<?xml version="1.0" encoding="utf-8"?>
<!-- Generator: Adobe Illustrator 20.0.0, SVG Export Plug-In . SVG Version: 6.00 Build 0)  -->
<svg version="1.1" id="Layer_1" xmlns="http://www.w3.org/2000/svg" xmlns:xlink="http://www.w3.org/1999/xlink" x="0px" y="0px"
	 viewBox="0 0 480 480" style="enable-background:new 0 0 480 480;" xml:space="preserve">
<g>
	<path d="M257.2,448.8c-11.2,0-21.4,0-32.1,0c0-63.8,0-127.4,0-191.6c-64.1,0-127.8,0-191.8,0c0-10.8,0-21.1,0-31.9
		c63.6,0,127.3,0,191.5,0c0-64.3,0-128,0-192c10.9,0,21.3,0,32.1,0c0,63.8,0,127.4,0,191.5c64.1,0,127.8,0,191.8,0
		c0,10.8,0,21.1,0,31.9c-63.6,0-127.3,0-191.5,0C257.2,321,257.2,384.7,257.2,448.8z"/>
</g>
</svg>
