<?xml version="1.0" encoding="utf-8"?>
<!-- Generator: Adobe Illustrator 20.0.0, SVG Export Plug-In . SVG Version: 6.00 Build 0)  -->
<svg version="1.1" id="Layer_1" xmlns="http://www.w3.org/2000/svg" xmlns:xlink="http://www.w3.org/1999/xlink" x="0px" y="0px"
	 viewBox="0 0 480 480" style="enable-background:new 0 0 480 480;" xml:space="preserve">
<g>
	<path d="M234.5,423.2c-18.4-8.6-37.1-16.4-48.4-35.2c-1.9-3.2-8.6-4.1-13.2-4.9c-25-4.5-50-8.6-75-12.9c-11.5-2-14.6-7-5.8-16.4
		c30.1-32.1,41.1-70.8,39.6-113.9c-0.5-13.2,0-26.5-0.1-39.7c-0.3-44.9,21.9-75,61.8-93c8.9-4,14.2-8.5,18.3-18.4
		c4.2-10.2,15-17.6,22.9-26.3c4.4,0,8.8,0,13.2,0c12.4,8.2,24.8,16,26.8,33.2c0.4,3.2,6.5,6.5,10.7,8.3
		c47.4,19.7,66.8,49,67.2,100.7c0.2,25.3-0.5,50.8,2.6,75.8c3.4,26.7,17.1,49.6,35.2,69.8c12.9,14.4,11.8,17.3-7.6,20.8
		c-23.3,4.3-46.7,7.8-70,12c-4.7,0.8-11.3,1.8-13.2,5c-11.3,18.7-30,26.5-48.4,35.1C245.6,423.2,240,423.2,234.5,423.2z M106,356.8
		c92.9,24.1,181.7,24.4,273.2-0.2c-37.8-41.4-42.5-90.2-40.2-140.8c0.3-7.2,0.2-14.3,0-21.5c-1.2-37.1-19.9-62.5-53.7-76.1
		c-61.2-24.6-148.1,6.7-141.4,95.5C147.6,264.2,144.5,314.4,106,356.8z M205.6,388.2c18.9,26.1,58.4,25.7,73.6,0
		C254.9,388.2,231.1,388.2,205.6,388.2z M260.9,96.6c-3.4-14.2-11-20.6-21.9-17.8c-6.7,1.7-12,9-17.9,13.7c1,1.4,2.1,2.7,3.1,4.1
		C235.8,96.6,247.5,96.6,260.9,96.6z"/>
	<path d="M285.5,148.3c-5.8-0.6-11.8-0.3-17.2-2c-19.3-5.9-38.2-5.4-56.7,2.2c-17.8,7.3-30,19.8-34.4,39.4c-0.9,4.1-5.7,7.3-8.7,11
		c-1.3-4.8-5.1-11.2-3.3-14.2c8.1-13.9,15.2-30.2,27.3-39.6c24.8-19.1,54.2-19.4,83.5-9.4c4.1,1.4,7.4,4.8,11.1,7.3
		C286.7,144.7,286.1,146.5,285.5,148.3z"/>
</g>
</svg>
