<?xml version="1.0" encoding="utf-8"?>
<!-- Generator: Adobe Illustrator 20.0.0, SVG Export Plug-In . SVG Version: 6.00 Build 0)  -->
<svg version="1.1" id="Layer_1" xmlns="http://www.w3.org/2000/svg" xmlns:xlink="http://www.w3.org/1999/xlink" x="0px" y="0px"
	 viewBox="0 0 480 480" style="enable-background:new 0 0 480 480;" xml:space="preserve">
<g>
	<path d="M417.4,113.5c0,94.8,0,189.7,0,284.5c-6.1,11.7-15.5,15.3-28.7,15.3c-97.1-0.4-194.3-0.4-291.4,0
		c-13.1,0.1-22.6-3.6-28.7-15.3c0-94.8,0-189.7,0-284.5c5.8-12,15.3-16.2,28.6-15.4c16.5,0.9,33.1,0.2,48,0.2
		c2.4-11.1,4.3-19.4,6.1-27.6c2,0,4.1,0,6.1,0c1.7,8.7,3.5,17.4,5.3,26.3c53.9,0,107.9,0,160.7,0c2-9.7,3.7-18,5.3-26.3
		c2,0,4.1,0,6.1,0c1.9,8.7,3.7,17.4,5.9,27.6c15.8,0,32,0.7,48.1-0.2C402.1,97.4,411.6,101.5,417.4,113.5z M402.5,181.7
		c-107.4,0-212.5,0-318.8,0c0,69.7,0.1,138.4-0.1,207.1c0,8.4,4,10.2,11.3,10.2c98.8-0.1,197.7-0.2,296.5,0.1
		c10.3,0,11.3-5.2,11.3-13.4c-0.2-44.3-0.1-88.6-0.1-133C402.5,229.4,402.5,206.1,402.5,181.7z M325.3,113.7
		c-55.8,0-109.7,0-164.5,0c0,8.1,0.7,14.8-0.3,21.2c-0.5,3.2-4,5.9-6.1,8.9c-2.3-2.8-6-5.4-6.5-8.4c-1-6.9-0.3-14-0.3-23
		c-19.7,0-37.9-0.4-56,0.4c-2.7,0.1-7.4,5.4-7.5,8.4c-0.8,14.6-0.4,29.2-0.4,44.6c106.8,0,211.9,0,318.7,0c0-15.4,0.4-30-0.4-44.6
		c-0.2-3.1-4.8-8.3-7.5-8.4c-18.1-0.8-36.3-0.4-56.1-0.4c0,9,0.7,16.1-0.3,22.9c-0.4,3.1-4.2,5.7-6.4,8.5c-2.2-2.9-5.7-5.6-6.2-8.8
		C324.6,128.1,325.3,121.1,325.3,113.7z"/>
	<path d="M210.9,284.6c-8.2-4-15.1-7.5-22-10.9c7.5-2.3,15-6.4,22.5-6.4c7.4,0,14.8,4.3,22.2,6.6
		C226.5,277.3,219.4,280.7,210.9,284.6z"/>
	<path d="M273.9,263.3c9,3.9,22.7,8.3,22.4,9.9c-2.6,13.2-14.4,7.3-22.4,7.3c-7.1,0-14.2-4-21.3-6.2
		C259.5,270.8,266.3,267.3,273.9,263.3z"/>
	<path d="M341.7,264.2c6.5,3.3,13,6.5,19.5,9.8c-7,2.4-13.8,5.3-21,6.9c-4.8,1.1-10.3,0.9-15.1-0.2c-3.2-0.8-5.7-4.4-8.6-6.7
		c2.9-2.3,5.4-5.8,8.7-6.6c4.8-1.1,10.1-0.3,15.2-0.3C340.9,266,341.3,265.1,341.7,264.2z"/>
	<path d="M144,281c-4.6,0-9.4,1-13.6-0.3c-3.6-1.1-6.5-4.7-9.7-7.1c3.4-2.2,6.7-5.8,10.4-6.3c7.5-1,15.3-1.1,22.7,0
		c4.1,0.6,7.6,4.6,11.4,7c-4,2.3-7.8,5-12.1,6.6C150.4,281.8,147.1,281,144,281C144,281,144,281,144,281z"/>
	<path d="M143.7,304.8c7.7,3.8,14.5,7.2,21.3,10.5c-7.5,2.1-14.9,5.9-22.4,6c-7.3,0.1-18.7,5.9-20.8-6.8
		C121.5,312.6,135,308.5,143.7,304.8z"/>
	<path d="M211.3,325c-8.7-3.6-21.6-7.3-21.3-9.1c1.7-12.9,13.2-7.2,20.5-7.2c7.7,0,15.3,3.6,22.9,5.6
		C226.2,317.8,218.9,321.3,211.3,325z"/>
	<path d="M340.4,325.2c-9.1-3.7-22.9-7.9-22.6-9.4c2.6-13.2,14.3-6.8,22-7.1c7-0.2,14.2,3.6,21.3,5.7
		C354.4,317.9,347.7,321.4,340.4,325.2z"/>
	<path d="M144.2,345.6c7.4,3.9,14.2,7.3,20.9,10.8c-7.1,2.1-14.1,6-21.2,5.9c-7.8-0.1-19.4,5.8-22-7.2
		C121.6,353.7,135.2,349.4,144.2,345.6z"/>
	<path d="M211.7,243c-8.5-3.7-15.6-6.8-22.7-9.9c7.3-2.3,14.7-6.3,22-6.4c7.4-0.1,14.9,3.8,22.4,6C226.5,236,219.6,239.2,211.7,243z
		"/>
	<path d="M275.5,243c-8.5-3.7-15.6-6.8-22.6-9.9c7.4-2.3,14.7-6.3,22.1-6.3c7.4,0,14.9,3.9,22.4,6C290.4,236,283.4,239.2,275.5,243z
		"/>
	<path d="M339.7,243c-8.7-3.7-15.8-6.7-23-9.7c7.3-2.3,14.5-6.4,21.8-6.5c7.5-0.1,15,3.7,22.5,5.9
		C354.3,235.9,347.4,239.2,339.7,243z"/>
	<path d="M275.1,325c-8.6-3.6-21.5-7.3-21.2-9.2c1.8-13,13.2-7.1,20.5-7.1c7.6,0,15.3,3.6,22.9,5.6
		C290.1,317.8,282.8,321.3,275.1,325z"/>
	<path d="M209.6,345.9c6.8,3.8,12.9,7.2,19,10.6c-6.5,2.1-13.1,6.2-19.4,5.9c-8.2-0.4-20.1,6.5-23.3-7.2
		C185.6,354,200.2,349.5,209.6,345.9z"/>
	<path d="M269.2,365.9c-7.5-3.6-14-6.8-20.4-10c6.9-2.3,13.8-6.6,20.6-6.3c7.7,0.3,19.8-6.7,22,7.2
		C291.5,358.6,277.7,362.5,269.2,365.9z"/>
</g>
</svg>
