<?xml version="1.0" encoding="utf-8"?>
<!-- Generator: Adobe Illustrator 20.0.0, SVG Export Plug-In . SVG Version: 6.00 Build 0)  -->
<svg version="1.1" id="Layer_1" xmlns="http://www.w3.org/2000/svg" xmlns:xlink="http://www.w3.org/1999/xlink" x="0px" y="0px"
	 viewBox="0 0 480 480" style="enable-background:new 0 0 480 480;" xml:space="preserve">
<g>
	<path d="M75.6,144.5c-1.1-7,2.2-11.9,6.6-16.9c19-21.9,41.9-38.3,68.8-49.3c10.8-4.4,20.6-1.4,29.4,5.3c1.6,1.2,2.9,3.3,3.6,5.2
		c8.5,25.4,16.8,50.8,25.1,76.3c2.2,6.9,1.8,14-1.1,20.5c-1.6,3.6-4.4,7.1-7.6,9.5c-7,5.1-14.5,9.5-21.8,14.1c-6.5,4.2-8.2,8.9-5,16
		c1.5,3.4,3.8,6.7,6.1,9.7c21.2,27.9,45.2,52.9,73.8,73.3c4.1,3,9.5,4.5,14.5,5.9c4,1.1,7.2-1,9.5-4.8c4.4-7.3,9.1-14.3,13.7-21.5
		c5.1-7.9,16.7-13.1,26-11c26.7,5.9,53,13.1,78,24.3c12.7,5.8,19.1,21,13.9,34.2c-11.6,29.7-30.3,54.2-55.1,74c-1,0.8-2.7,1.3-4,1.3
		c-32.8-0.5-64.7-5.6-94.8-18.9C171.4,355,114.3,293.7,86,206.4c-3-9.3-5-19-6.6-28.6C77.6,166.7,76.8,155.6,75.6,144.5z
		 M339.6,396.8c3.2-0.9,7.2-0.9,9.6-2.9c20.6-17.6,36.5-38.7,46.3-64.1c2.4-6.2-0.8-13-6.8-15.6c-2.6-1.1-5.2-2.4-7.8-3.2
		c-20.8-6.3-41.5-13.1-62.5-18.7c-9.6-2.6-13.3-0.6-17.5,7.1c-3.4,6.1-7.7,11.7-11.2,17.7c-5.1,8.6-13,11.6-22.3,11.4
		c-7.3-0.1-14.1-2.4-20.1-6.7c-31.7-23.2-59.4-50.4-81.9-82.7c-2.3-3.4-4.3-7.2-5.5-11.1c-3.3-10.4-2.5-24.1,11.2-31.3
		c6.2-3.3,11.8-7.4,17.7-11.2c8-5.1,9.5-8.2,6.6-17.3c-7.3-23.3-14.9-46.5-22.5-69.8c-2.4-7.5-8.9-10.3-16.4-7.4
		c-24.5,9.8-45,25.1-62,45.1c-2,2.4-3.2,6.3-3.2,9.4c0.4,19.9,3.4,39.4,9.4,58.4c19.1,60.9,56,108.8,107.5,145.6
		C247.2,377.7,290.8,394,339.6,396.8z"/>
	<path d="M417,231.6c0,2,0.1,4,0,6c-0.2,4.4-2.7,6.7-6.9,7.1c-3.7,0.4-6.7-2.7-7.1-6.9c-0.9-9.1-1.2-18.3-2.8-27.3
		C389.5,149.7,342.4,100.8,281.9,88c-10-2.1-20.4-2.6-30.7-3.7c-5.7-0.6-9-3.1-8.9-7.3c0.1-4.3,3.5-6.9,9.2-6.9
		c76,0,145.3,55.9,161.3,130.4c2.2,10.2,3.3,20.7,4.9,31C417.5,231.5,417.2,231.5,417,231.6z"/>
	<path d="M370.1,230.9c0.1,1.8,0.3,3.7,0.3,5.5c0,4.4-3,7.9-7,8.4c-3.9,0.4-7.2-2.7-7.8-7.4c-1.1-8.7-1.4-17.7-3.5-26.1
		c-11.1-45.4-51.8-78-98.4-79.5c-1,0-2,0-3-0.1c-5.1-0.4-8.5-3.4-8.4-7.4c0.1-4.2,3.5-7.1,8.7-7c13.9,0.2,27.6,2.4,40.5,7.6
		c44.7,18,70.7,51,78.1,98.6C370,225.9,370,228.4,370.1,230.9z"/>
	<path d="M251.5,166.9c37.7,1.7,67.7,32.4,68.3,68.6c0.1,5.9-2.1,9-6.6,9.3c-4.5,0.3-7.5-3.1-7.8-9c-1.4-23.9-13.2-40.8-34.9-50.3
		c-5.9-2.6-12.8-3.5-19.3-4.4c-6.3-0.9-9.2-2.7-9.2-7.4C242.1,168.9,245.1,166.7,251.5,166.9C252,166.9,252.5,166.9,251.5,166.9z"/>
</g>
</svg>
