<?xml version="1.0" encoding="utf-8"?>
<!-- Generator: Adobe Illustrator 20.0.0, SVG Export Plug-In . SVG Version: 6.00 Build 0)  -->
<svg version="1.1" id="Layer_1" xmlns="http://www.w3.org/2000/svg" xmlns:xlink="http://www.w3.org/1999/xlink" x="0px" y="0px"
	 viewBox="0 0 480 480" style="enable-background:new 0 0 480 480;" xml:space="preserve">
<g>
	<path d="M160.2,446c-2.5-0.7-5.1-1.2-7.6-2c-16-4.9-26.9-19.2-28.3-36.1c-1.4-15.9-3.4-31.8-5.2-47.7c-2-17.3-4-34.7-6-52
		c-2.3-19.4-4.5-38.9-6.7-58.4c-2-17.3-4-34.7-6.1-52c-2-17.3-4.1-34.7-6.1-52c-0.5-4.6-1-9.2-1.5-14.2c5.5,0,10.7,0,16.5,0
		c0.7,6,1.5,12.1,2.2,18.2c2.3,19.7,4.6,39.4,6.9,59.1c2,17.2,3.9,34.4,5.9,51.6c2,17.1,4,34.1,6,51.2c2,17.2,4,34.4,6,51.6
		c1.5,12.6,2.9,25.1,4.3,37.7c0.4,3.3,0.5,6.7,1.2,9.9c2.5,10.7,11.5,18.1,22.5,18.1c51.8,0.1,103.5,0.1,155.3,0
		c11.8,0,21.4-8.9,22.7-20.6c4-35.1,7.9-70.2,12-105.2c3.3-28.6,6.8-57.1,10.1-85.7c2.8-24.1,5.5-48.2,8.3-72.3
		c0.5-4.5,1.1-9,1.7-13.7c5.5,0,10.9,0,16.6,0c-0.9,8.3-1.8,16.4-2.8,24.4c-2,17.1-4,34.1-6,51.2c-2.3,20-4.7,40-7,59.9
		c-2,16.9-3.9,33.9-5.9,50.8c-2.3,19.7-4.6,39.4-6.9,59.1c-1.2,10.5-2.7,20.9-3.4,31.4c-1.2,17.7-15.2,33.7-32.7,36.5
		c-1.2,0.2-2.3,0.6-3.4,0.9C268.6,446,214.4,446,160.2,446z"/>
	<path d="M424.5,107.3c-22.8,0.1-45.6,0.2-68.4,0.2c-97.9,0-195.7,0-293.6,0c-1.3,0-2.7-0.1-4-0.2c0-5.3,0-10.7,0-16
		c1.5-0.1,2.9-0.2,4.4-0.2c32.6,0,65.3-0.1,97.9,0.1c3.8,0,5.4-1.1,4.9-4.9c-0.2-1.3,0-2.7,0.1-4c0.8-20,13.6-37.2,32.6-43.5
		c3.5-1.2,7.2-1.8,10.7-2.7c20.3,0,40.6,0,60.9,0c0.7,0.3,1.5,0.7,2.2,0.8c20.6,3,36.8,18.7,40.3,39.4c0.8,4.8,0.8,9.7,1.2,14.8
		c1.5,0.1,2.8,0.2,4.1,0.2c17.6,0,35.2,0,52.8,0c18,0,36,0.1,54,0.2C424.5,96.6,424.5,101.9,424.5,107.3z M296.1,91.1
		c3.3-21.5-10.9-38.2-31.9-38.3c-16.3-0.1-32.5,0-48.8,0c-20,0-33.4,13.6-33.5,33.7c0,3.8,1.2,4.7,4.8,4.7
		c28.8-0.1,57.6-0.1,86.4-0.1C280.7,91.1,288.3,91.1,296.1,91.1z"/>
	<path d="M307,146c5.5,0,10.8,0,16.6,0c-7,87.7-14,175.2-21,263.2c-5.6-0.4-10.9-0.8-16.5-1.3C293.1,320.4,300,233.3,307,146z"/>
	<path d="M161.8,145.9c5.8,0,10.9,0,16.6,0c5.8,87.2,11.6,174.4,17.5,262.1c-5.5,0.4-10.8,0.8-16.5,1.2
		C173.5,321.3,167.7,233.8,161.8,145.9z"/>
	<path d="M249.9,408.9c-5.5,0-10.6,0-15.9,0c0-87.6,0-175.1,0-262.8c5.2,0,10.4,0,15.9,0C249.9,233.7,249.9,321.2,249.9,408.9z"/>
</g>
</svg>
