<?xml version="1.0" encoding="utf-8"?>
<!-- Generator: Adobe Illustrator 20.0.0, SVG Export Plug-In . SVG Version: 6.00 Build 0)  -->
<svg version="1.1" id="Layer_1" xmlns="http://www.w3.org/2000/svg" xmlns:xlink="http://www.w3.org/1999/xlink" x="0px" y="0px"
	 viewBox="0 0 480 480" style="enable-background:new 0 0 480 480;" xml:space="preserve">
<g>
	<path d="M445,120.7c-2,7.9-7,13.7-12.7,19.2c-10.3,10-20.3,20.2-30.1,30.1c-30-30.1-59.9-60.1-90.6-90.9c0.6-0.4,2.2-1,3.3-2.1
		c9.2-9,18.4-18,27.3-27.3c5.5-5.7,11.3-10.8,19.2-12.7c2.7,0,5.3,0,8,0c7.8,1.8,13.5,6.7,19,12.3c14.6,14.9,29.3,29.6,44.1,44.1
		c5.7,5.6,10.7,11.3,12.6,19.3C445,115.4,445,118,445,120.7z"/>
	<path d="M37,443.4c2.4-9.7,4.9-19.5,7.1-29.2c6.4-27.8,12.8-55.5,19.2-83.3c0.2-0.7,0.5-1.4,0.7-2c29.7,29.7,59.3,59.3,89,89.2
		c-7.5,1.8-15.2,3.6-22.9,5.3c-29.8,6.9-59.7,13.8-89.5,20.7c-0.7,0.2-1.4,0.6-2.1,0.9C38.1,444.5,37.5,443.9,37,443.4z"/>
	<path d="M367.4,204.4C308,263.6,248.4,323.1,189.1,382.3c-29.7-29.7-59.5-59.7-89.3-89.5C159,233.6,218.7,174.1,278,114.9
		C307.5,144.4,337.4,174.4,367.4,204.4z"/>
</g>
</svg>
