<?xml version="1.0" encoding="utf-8"?>
<!-- Generator: Adobe Illustrator 20.0.0, SVG Export Plug-In . SVG Version: 6.00 Build 0)  -->
<svg version="1.1" id="Layer_1" xmlns="http://www.w3.org/2000/svg" xmlns:xlink="http://www.w3.org/1999/xlink" x="0px" y="0px"
	 viewBox="0 0 480 480" style="enable-background:new 0 0 480 480;" xml:space="preserve">
<g>
	<path d="M435.2,238c-3.1,74.8-34.8,130.1-96.1,167.7c-36.6,22.5-77,31.2-119.5,25.9C153,423,103.2,388.6,70.3,330.2
		c-15.5-27.4-23-57.4-22.8-88.9c0.2-49.8,17.7-93.1,51.5-129.5c30.6-33.1,68.5-53.8,113.1-60.4c53.9-8,103.1,4.8,146.4,37.9
		c37.7,28.7,62,66.6,72,113.1C433.2,215,433.9,228,435.2,238z M417.3,241.5c0.6-97.1-76.8-174.4-175.2-175
		c-98.9-0.6-176.7,75.7-177.3,173.6c-0.7,97.8,76.3,174.5,175.9,175.4C338.7,416.4,416.7,339.5,417.3,241.5z"/>
	<path d="M240.8,131.2c22.4,0.8,41.8,6.6,55.7,24.4c16,20.4,16,48.1-0.2,68.2c-5.4,6.6-11.7,12.3-17.7,18.4c-1.1,1.1-2.1,2.1-3.4,3
		c-11.3,8.4-16.2,19.7-15.4,33.6c0.3,6.3-3.1,9.9-8.3,10.1c-4.8,0.2-8.6-3.1-8.8-7.9c-0.7-17.5,3-33.2,17.2-45.3
		c7.5-6.4,14.6-13.5,21.3-20.6c9.2-9.8,12.2-21.8,8.9-34.9c-3.9-15.4-14.8-24.5-29.3-29.2c-11.7-3.7-24-3.6-35.8-0.7
		c-18.4,4.5-30.6,18.9-33.4,39.1c-0.2,1.7-0.4,3.3-0.8,4.9c-1,4.5-5.2,7.4-9.4,6.8c-4.5-0.7-8.1-4.7-7.5-9.3
		c3.7-28.7,18.9-55.5,57.7-59.8C234.8,131.6,238.2,131.4,240.8,131.2z"/>
	<path d="M245.3,329.4c0-4.3-0.1-8.5,0-12.8c0.2-5.1,3.7-8.7,8.6-8.7c4.9,0,8.5,3.6,8.6,8.6c0.1,8.4,0.1,16.8,0,25.2
		c-0.1,5.2-4,9.1-8.8,8.9c-4.7-0.1-8.3-3.9-8.4-8.9c-0.1-2.1,0-4.1,0-6.2C245.3,333.5,245.3,331.4,245.3,329.4z"/>
</g>
</svg>
