<?xml version="1.0" encoding="utf-8"?>
<!-- Generator: Adobe Illustrator 20.0.0, SVG Export Plug-In . SVG Version: 6.00 Build 0)  -->
<svg version="1.1" id="Layer_1" xmlns="http://www.w3.org/2000/svg" xmlns:xlink="http://www.w3.org/1999/xlink" x="0px" y="0px"
	 viewBox="0 0 480 480" style="enable-background:new 0 0 480 480;" xml:space="preserve">
<g>
	<path d="M200.8,73.9c2.9,1.9,5.8,3.8,8.6,5.7c13.8,9.1,19.9,24.5,15.7,39.2c-4.4,15.3-19.4,26.9-34.5,26.7
		c-15.2-0.2-29.8-11.9-34.2-27.3c-4.1-14.3,2.6-30,16.6-38.9c2.9-1.9,6-3.6,9-5.4C188.3,73.9,194.5,73.9,200.8,73.9z M212.1,110
		c0.2-13-8.6-22.1-21.3-21.9c-12.1,0.1-21,9-21.3,21c-0.3,12.7,8.7,21.7,21.7,21.6C203.8,130.6,211.9,122.7,212.1,110z"/>
	<path d="M291.2,331.3c18.6,0,35.9,17.5,35.6,36.2c-0.3,18.2-17,34.9-35.2,35.3c-18.4,0.4-36.4-17.2-36.4-35.6
		C255.1,348.5,272.4,331.3,291.2,331.3z M312.5,366.8c-0.1-12.1-8.8-21-20.9-21.3c-12.7-0.3-21.7,8.7-21.6,21.6
		c0,12.8,7.9,20.7,20.6,20.9C303.7,388.2,312.5,379.7,312.5,366.8z"/>
	<path d="M184.1,238.8c-0.3-19.1,16.2-36.1,35.2-36.2c19.1-0.1,35.7,16.6,35.6,35.8c0,18.4-16.2,35.1-34.6,35.7
		C201.8,274.7,184.4,257.8,184.1,238.8z M241,238.4c0-12.7-9.3-21.9-21.9-21.6c-12.2,0.3-20.8,9-20.9,21.3
		c-0.1,12.9,8.8,21.5,21.9,21.3C232.5,259.2,240.9,250.8,241,238.4z"/>
	<path d="M320.2,116.8c-22.3,0-44.6,0.4-66.8-0.3c-4.1-0.1-8.1-4.4-12.1-6.8c4.1-2.3,8.2-6.6,12.3-6.7c44.1-0.5,88.2-0.5,132.3,0.1
		c4.1,0,8.1,4.4,12.1,6.7c-4.1,2.4-8.2,6.6-12.3,6.7C363.9,117.1,342,116.8,320.2,116.8z"/>
	<path d="M163,374.2c-22.3,0-44.6,0.4-66.8-0.3C92,373.7,88,369.4,84,367c4.1-2.3,8.1-6.6,12.2-6.7c44.1-0.5,88.2-0.5,132.4,0
		c4.1,0,8.2,4.4,12.2,6.7c-4.1,2.4-8.1,6.6-12.2,6.8C206.7,374.5,184.9,374.2,163,374.2z"/>
	<path d="M332.2,245.5c-16.9,0-33.9,0.4-50.8-0.3c-3.8-0.2-7.4-4.1-11.2-6.3c3.8-2.5,7.6-7.1,11.5-7.2c35.2-0.6,70.4-0.5,105.5,0
		c3.6,0.1,7.1,4.4,10.7,6.8c-3.7,2.3-7.3,6.5-11.1,6.7C368.7,245.9,350.4,245.5,332.2,245.5z"/>
	<path d="M125.1,245.4c-10.7,0-21.4,0.6-32-0.3c-3.2-0.3-6-4.7-9-7.2c2.9-2.1,5.7-6.1,8.6-6.1c22.7-0.5,45.4-0.5,68.1,0
		c2.8,0.1,5.5,4.2,8.3,6.5c-3.1,2.4-6,6.7-9.2,7C148.3,246,136.6,245.5,125.1,245.4C125.1,245.5,125.1,245.5,125.1,245.4z"/>
	<path d="M111.8,116.7c-6.7,0-13.5,0.7-20-0.4c-2.9-0.5-5.2-4.7-7.7-7.2c2.4-2.1,4.8-6,7.3-6.1c13.8-0.6,27.7-0.6,41.5,0
		c2.6,0.1,5.1,3.7,7.6,5.7c-2.4,2.6-4.5,7.1-7.3,7.6C126.2,117.4,119,116.7,111.8,116.7z"/>
	<path d="M369.6,360.3c7.1,0,14.4-0.6,21.4,0.3c2.6,0.3,4.7,4.1,7,6.4c-2.3,2.4-4.4,6.6-6.8,6.8c-14.2,0.6-28.6,0.7-42.8,0
		c-2.4-0.1-4.7-4.3-7-6.6c2.7-2.3,5.2-6.2,8.2-6.6C356.1,359.5,362.9,360.2,369.6,360.3C369.6,360.2,369.6,360.2,369.6,360.3z"/>
</g>
</svg>
