<?xml version="1.0" encoding="utf-8"?>
<!-- Generator: Adobe Illustrator 20.0.0, SVG Export Plug-In . SVG Version: 6.00 Build 0)  -->
<svg version="1.1" id="Layer_1" xmlns="http://www.w3.org/2000/svg" xmlns:xlink="http://www.w3.org/1999/xlink" x="0px" y="0px"
	 viewBox="0 0 480 480" style="enable-background:new 0 0 480 480;" xml:space="preserve">
<g>
	<path d="M65,481c0-65.6,0-131.3,0-196.9c0-0.8,0-1.7,0-2.5c0.2-5.1,3.3-8.5,7.9-8.5c4.7-0.1,8.1,3.4,8.1,8.8c0.1,13.7,0,27.3,0,41
		c0,46,0,92,0,138c0,1.2,0,2.3,0,3.9c31.9,0,63.6,0,95.9,0c0-47.7,0-95.4,0-143.4c42.8,0,85.1,0,127.9,0c0,47.6,0,95.3,0,143.4
		c32.2,0,64,0,96.3,0c0-2.3,0-4.6,0-6.9c0-57.8,0-115.6,0-173.4c0-1.5-0.2-3,0.1-4.5c0.9-4.3,3.6-6.8,8-6.8c4.2,0,6.8,2.5,7.7,6.5
		c0.4,1.6,0.2,3.3,0.2,5c0,65.5,0,131,0,196.4c-42.7,0-85.3,0-128,0c0-47.9,0-95.8,0-143.7c-32.3,0-64,0-96,0c0,48.1,0,95.9,0,143.7
		C150.3,481,107.7,481,65,481z"/>
	<path d="M1,270c2.4-2.5,4.7-5.1,7.2-7.5c74.2-74.2,148.4-148.4,222.6-222.6c9.4-9.4,11.1-9.4,20.5,0c48,48.1,96.1,96.1,144.2,144.2
		c27.1,27.1,54.2,54.2,81.3,81.3c1.5,1.5,2.9,3.1,4.3,4.7c0,2,0,4,0,6c-5.8,6.7-9.6,6.8-16,0.4C391.6,203,318.2,129.6,244.8,56.2
		c-1.2-1.2-2.4-2.2-4.9-4.6c-1.2,1.9-2.1,3.8-3.4,5.2C163.4,130,90.2,203.2,17,276.3c-6.4,6.4-10.2,6.4-16-0.3C1,274,1,272,1,270z"
		/>
	<path d="M385,65c-22.9,0-45,0-67.1,0c-2,0-4,0.2-6-0.2c-4.3-0.8-6.9-3.5-6.8-7.9c0-4.4,2.7-7,7-7.8c0.6-0.1,1.3-0.1,2-0.1
		c28.2,0,56.3,0,84.5,0c0.6,0,1.3,0.1,2.2,0.2c0.1,1.4,0.3,2.6,0.3,3.9c0,27.3,0.1,54.6-0.1,82c0,2.5-0.7,5.9-2.3,7.2
		c-2.2,1.6-5.8,2.4-8.5,1.9c-3.8-0.8-5.1-4.3-5.1-8.2c0.1-13.8,0-27.7,0-41.5C385,84.9,385,75.2,385,65z"/>
</g>
</svg>
