<?xml version="1.0" encoding="utf-8"?>
<!-- Generator: Adobe Illustrator 20.0.0, SVG Export Plug-In . SVG Version: 6.00 Build 0)  -->
<svg version="1.1" id="Layer_1" xmlns="http://www.w3.org/2000/svg" xmlns:xlink="http://www.w3.org/1999/xlink" x="0px" y="0px"
	 viewBox="0 0 480 480" style="enable-background:new 0 0 480 480;" xml:space="preserve">
<style type="text/css">
	.st0{display:none;}
	.st1{display:inline;}
</style>
<g class="st0">
	<path class="st1" d="M179.2,465c-6.2-0.6-12.4-1.1-18.6-1.8c-10-1.1-19.8-2.9-28.9-7.3c-12.7-6.2-19.1-16.5-20-30.4
		c-1.4-23.4,7.8-42.8,22.5-60.1c16.2-19,36.7-31.6,60.2-39.6c1.2-0.4,2.4-0.8,4.3-1.4c-25.1-19.1-36.2-43.9-30.9-74.8
		c3.1-18.1,12.5-32.8,27-44.1c29.8-23.2,72.4-19.6,98.3,8.3c9.8,10.6,15.9,23,18.4,37.2c2.5,14,0.8,27.7-4.7,40.8
		c-5.6,13.3-14.6,23.8-25.9,31.9c9.8,4.5,19.7,8.2,28.8,13.3c23.1,12.8,41.3,30.5,51.8,55.2c4.7,11.1,7,22.8,5.7,35
		c-1.7,15.9-10.5,26.4-25.3,30.8c-10.7,3.2-22,4.2-33.1,6c-3.1,0.5-6.3,0.7-9.5,1C259.4,465,219.3,465,179.2,465z M231.5,329.3
		c-9.6,2.8-18.3,5.4-26.9,7.9c-24,7.1-44.9,19.2-61,38.7c-11.9,14.3-19.4,30.4-17.9,49.6c0.6,7.8,4.2,13.8,11.3,17.3
		c3.3,1.6,6.9,3.3,10.5,3.9c10.8,1.6,21.7,3.8,32.6,3.8c43.4,0.2,86.8,0.1,130.1-0.7c9.4-0.2,19-2.5,28.1-5.3
		c10.9-3.4,15.3-10.7,15.5-22.1c0.2-9.8-2-19.1-6.2-27.8c-12-24.5-31.8-40.9-56.5-51.2c-12.5-5.3-25.8-8.5-38.7-12.7
		c-1.3-0.4-2.6-0.8-4.6-1.4c8.9-6,17-11.3,25-16.8c21.6-14.7,31-41,23.6-66c-7.3-24.6-29.6-41.5-55.5-42.2
		c-36.6-0.9-65.7,32.3-59.7,68.3c2.9,17.2,11.7,30.7,26.2,40.4C215,318.2,222.9,323.5,231.5,329.3z"/>
	<path class="st1" d="M454.7,371.5c-0.4,1.5-0.8,2.9-1.1,4.4c-2.4,11.7-8.5,20.7-18.9,26.6c-15.4,8.7-32.4,9.9-49.8,10.9
		c0-4.8,0-9,0-13.7c5.3-0.4,10.8-0.7,16.3-1.4c5.2-0.6,10.5-1.3,15.6-2.6c18.4-4.7,26.2-17.2,23.6-36.7c-3.4-24.9-17.5-43-36.8-57.7
		c-14.5-11-31.1-17.5-48.5-22.3c-1.6-0.4-3.1-1-5.3-1.7c4.9-3.3,9.1-6.1,13.3-9.1c30.5-21.7,35.3-65.2,10.2-92.7
		c-24.7-27-69.7-25.8-92.9,2.4c-1,1.3-2.1,2.5-3.3,4c-3.8-2.6-7.3-5.2-10.9-7.7c17.5-26.7,62.1-45.8,101.8-20.1
		c37.5,24.3,50.3,78,12.4,118.1c1.9,0.9,3.6,1.6,5.3,2.4c26.7,12.6,48.3,30.7,61.2,57.7c3.6,7.5,5,16.1,7.4,24.1
		c0.3,1,0.6,2.1,0.8,3.2C454.7,363.7,454.7,367.6,454.7,371.5z"/>
	<path class="st1" d="M27.3,359c0.7-3.4,1.3-6.8,2.2-10.1c6.7-26,22.8-45.5,44.2-60.7c8.7-6.1,18.3-11,27.7-16.5
		c-19.2-21.2-27.5-46-19.2-74.7c6-20.8,19.2-36.2,38.3-46.3c39.5-21,80.7,0,95.5,23.7c-3.5,2.5-7,4.9-10.9,7.7
		c-14.1-18.9-33-27.6-56.4-25.8c-16.3,1.3-30.3,8-41,20.6c-13.8,16.3-17.5,35.2-13.1,55.9c4.6,21,19.5,33.6,38.1,44.4
		c-4.5,1.4-7.9,2.5-11.3,3.4c-23.8,6.8-44.7,18.3-60.9,37.3c-12,14-19.4,30-19.2,48.9c0.2,14.1,6.3,23.6,19.9,27.4
		c10.3,2.8,21.3,3.7,32,4.9c3.4,0.4,4.6,1.2,4.2,4.7c-0.3,2.9-0.1,5.8-0.1,9.6c-5.7-0.4-11.1-0.2-16.3-1.2c-9.5-1.9-19.2-3.6-28.2-7
		c-14.3-5.4-22.9-16.2-24.9-31.8c-0.1-0.6-0.5-1.3-0.8-1.9C27.3,367.4,27.3,363.2,27.3,359z"/>
</g>
<g>
	<path d="M386.3,223.2c0,80.8,0,161.7,0,242.5c-97,0-194,0-291,0c0-80.8,0-161.7,0-242.5c16.1,0,32.2,0,48.5,0c0-9-0.1-17.4,0-25.9
		c0.1-11-0.6-22.1,0.8-32.9c5-40.1,27.1-67.2,64.8-81.3c7.3-2.7,15.3-3.7,23-5.4c5.6,0,11.1,0,16.7,0c2.6,0.5,5.2,1,7.7,1.4
		c46.4,7.7,80.8,48.1,80.9,95.1c0,14.9,0,29.8,0,44.7c0,1.3,0,2.7,0,4.3C354.2,223.2,370.2,223.2,386.3,223.2z M111.5,239.3
		c-0.1,1.7-0.2,3-0.2,4.2c0,67.3,0,134.6-0.1,201.9c0,3.6,1.1,4.3,4.5,4.3c83.4-0.1,166.7-0.1,250.1,0c3.7,0,4.5-1.1,4.5-4.7
		c-0.1-67.1-0.1-134.1,0-201.2c0-4-1.2-4.7-4.9-4.7c-83.1,0.1-166.2,0.1-249.3,0.1C114.7,239.3,113.3,239.3,111.5,239.3z
		 M321.5,223.1c0.1-1.1,0.2-1.9,0.2-2.6c0-15.3,0.1-30.6-0.1-45.8c-0.1-5.1-0.5-10.4-1.5-15.4c-9-45.1-52.9-73.5-97.9-63.3
		c-32.2,7.3-58.5,35.6-61.4,68.4c-1.7,19.2-0.7,38.6-0.9,57.9c0,0.2,0.2,0.4,0.4,0.8C213.9,223.1,267.5,223.1,321.5,223.1z"/>
	<path d="M232.6,356.1c0-6.3,0.1-12.6-0.1-18.9c-0.1-1.5-0.9-3.4-2-4.4c-7.1-6.3-7.8-16.8-1.5-23.7c6.1-6.6,17.2-6.6,23.4-0.2
		c6.4,6.7,5.8,17.4-1.2,23.7c-1.2,1.1-2.2,3.1-2.2,4.7c-0.2,12.7-0.1,25.5-0.1,38.3c0,5.5-2.9,8.9-7.5,9.2c-5.2,0.3-8.7-3-8.8-8.6
		C232.5,369.4,232.6,362.8,232.6,356.1z"/>
</g>
</svg>
