<?xml version="1.0" encoding="utf-8"?>
<!-- Generator: Adobe Illustrator 20.0.0, SVG Export Plug-In . SVG Version: 6.00 Build 0)  -->
<svg version="1.1" id="Layer_1" xmlns="http://www.w3.org/2000/svg" xmlns:xlink="http://www.w3.org/1999/xlink" x="0px" y="0px"
	 viewBox="0 0 480 480" style="enable-background:new 0 0 480 480;" xml:space="preserve">
<g>
	<path d="M447,103.4c0,91.7,0,183.5,0,275.2c-137.3,0-274.7,0-412,0c0-91.7,0-183.5,0-275.2C172.3,103.4,309.7,103.4,447,103.4z
		 M62,116.4c61.5,59.5,122.3,118.4,183.3,177.4c58.5-59.2,116.5-118.1,175.1-177.4C300.7,116.4,181.9,116.4,62,116.4z M423.3,365.6
		c-38.5-38.5-77.3-77.3-116.4-116.4c-0.7,0.8-1.7,2.1-2.8,3.3c-17.5,17.8-35,35.5-52.5,53.3c-4.7,4.7-7.4,4.7-12.2,0
		c-16.9-16.3-33.7-32.6-50.6-49c-3.8-3.7-7.7-7.4-10.5-10.1c-40.1,40-79.8,79.7-119,119C180.1,365.6,302,365.6,423.3,365.6z
		 M48,355.9c40-40,79.7-79.7,119.6-119.6C128,198,88.3,159.5,48,120.5C48,199.6,48,277.6,48,355.9z M317.5,238.9
		c39.1,39.1,77.8,77.8,116.5,116.5c0-77.7,0-155.7,0-234.6C394.6,160.7,355.9,199.9,317.5,238.9z"/>
</g>
</svg>
