<?xml version="1.0" encoding="utf-8"?>
<!-- Generator: Adobe Illustrator 20.0.0, SVG Export Plug-In . SVG Version: 6.00 Build 0)  -->
<svg version="1.1" id="Layer_1" xmlns="http://www.w3.org/2000/svg" xmlns:xlink="http://www.w3.org/1999/xlink" x="0px" y="0px"
	 viewBox="0 0 480 480" style="enable-background:new 0 0 480 480;" xml:space="preserve">
<g>
	<path d="M57.9,60.5c0,121.4,0,240,0,359.8c99.4,0,198.2,0,299.2,0c0-17.4,0-33.9,0-50.5c0-10.2-0.6-20.6,0.7-30.7
		c0.4-3.5,5.5-6.4,8.5-9.6c2.7,2.9,7.7,5.9,7.8,8.9c0.6,30.2,0.6,60.4-0.1,90.6c-0.1,3.2-5.4,7-9.1,9.1c-2.4,1.4-6.3,0.4-9.6,0.4
		c-98.7,0-197.4-0.2-296.2,0.3c-13.7,0.1-19.1-3.4-19-18.1c0.5-119.8,0.5-239.5,0-359.3c-0.1-14.6,5.4-18.2,19.1-18.1
		c98.7,0.5,197.4,0.2,296.2,0.3c3.8,0,8.1-0.9,11.2,0.6c3.2,1.6,6.3,5.5,7,8.9c0.4,1.8-4.2,5.9-7.2,6.7c-4.5,1.2-9.6,0.7-14.5,0.7
		c-91.7,0-183.4,0-275.1,0.1C70.9,60.5,65.1,60.5,57.9,60.5z"/>
	<path d="M285.7,323.8c0.5-0.7,1.1-1.1,1-1.4c-9.2-33.6,6.4-61.6,19.5-90.5c21.5-47.6,42.5-95.4,62.9-143.4
		c4.7-11,11.6-16.1,22.2-12.1c15.4,5.8,30.6,12.5,44.6,21c4,2.4,6.4,13.8,4.3,18.8c-26.9,62.8-52.4,126.5-83.6,187.1
		c-10.3,20-35.9,32.4-55.2,47.2c-2.3,1.8-9.9-2-14.4-4.5c-15.3-8.5-30.3-17.6-49.3-28.8c2.5,7.6,4.2,10.4,4.2,13.2
		c0.1,5.5,1.2,13-1.8,15.9c-3.2,3.1-11.8,4.2-16,2.1c-13-6.3-25.1-14.4-37.4-22c-14.4-8.9-29.3-15.7-48.8-10.9
		c5,6.7,10.3,12,13.2,18.4c2.2,4.8,3.8,13,1.3,16.1c-3.4,4.1-11.2,6.7-16.8,6.3c-19.2-1.3-30.8-18.2-27.9-39.7
		c-2.5-1.4-6.1-2.2-7.7-4.6c-2.3-3.4-3.1-7.8-4.6-11.7c4.3-1.1,10.1-4.5,12.5-2.8c9.9,6.8,19,1,28.5,1c17.1,0,34.7,3.7,51.1,8.9
		c10.8,3.4,20,12.1,30.4,18.8c-2.3-27.5,4.3-32.4,29.3-21.7C260.4,310,272.9,317.3,285.7,323.8z M345,290.1
		c24.2-54.7,47.8-107.8,71.2-160.9c9.5-21.5,7.7-25.6-14.9-32.8c-4.5-1.4-9.3-1.8-15.1-2.9c-26.4,59.9-52.6,119.2-79.4,179.7
		C319.9,278.9,331.6,284.2,345,290.1z M336.9,305.5c-13.3-5.7-23.7-10.1-36.2-15.4c1.9,13.4,3.3,24.1,5.2,37.6
		C316.7,319.9,325.2,313.9,336.9,305.5z"/>
	<path d="M182,133.2c-27,0-54,0.5-80.9-0.4c-5.5-0.2-10.8-5.6-16.2-8.7c5.5-2.9,10.9-8.3,16.4-8.3c53.4-0.6,106.8-0.6,160.2,0
		c5.6,0.1,11.2,5.1,16.8,7.8c-5.7,3.2-11.3,9-17.1,9.2C234.9,133.8,208.4,133.3,182,133.2C182,133.3,182,133.2,182,133.2z"/>
	<path d="M181.1,186.9c-27.5,0-55,0.4-82.5-0.3c-4.6-0.1-9.2-4.8-13.7-7.4c4.7-3.1,9.3-8.9,14-8.9c55-0.6,110-0.6,165,0
		c4.9,0.1,9.7,5.5,14.5,8.4c-4.9,2.8-9.8,7.8-14.8,8C236.1,187.4,208.6,187,181.1,186.9C181.1,186.9,181.1,186.9,181.1,186.9z"/>
	<path d="M182.2,241.2c-27.5,0-55,0.4-82.5-0.4c-5-0.1-10-5.2-14.9-7.9c4.9-2.9,9.8-8.1,14.7-8.2c55-0.6,109.9-0.6,164.9,0.1
		c4.7,0.1,9.2,5.7,13.9,8.7c-4.6,2.6-9.1,7.2-13.7,7.4C237.1,241.5,209.6,241.2,182.2,241.2z"/>
</g>
</svg>
