<?xml version="1.0" encoding="utf-8"?>
<!-- Generator: Adobe Illustrator 20.0.0, SVG Export Plug-In . SVG Version: 6.00 Build 0)  -->
<svg version="1.1" id="Layer_1" xmlns="http://www.w3.org/2000/svg" xmlns:xlink="http://www.w3.org/1999/xlink" x="0px" y="0px"
	 viewBox="0 0 480 480" style="enable-background:new 0 0 480 480;" xml:space="preserve">
<g>
	<path d="M188.9,258.7c-53.7-28.9-68.6-90.5-52.7-135c16-44.7,58.6-75,105.7-74.4c48,0.6,90.1,31.8,104.8,77
		c15,46.2-2.2,104.2-53.3,132.2c7.4,3.1,14.9,5.7,21.8,9.3c61.8,31.9,94.1,82.8,97.4,152.1c0.5,9.5-6.9,15.4-14.5,11.8
		c-4.8-2.3-6-6.6-6.1-11.6c-0.3-26.7-6.9-51.9-21.1-74.5c-31.7-50.7-77.8-76.2-137.7-73.6c-73.5,3.2-132.3,58.4-142,131.4
		c-0.8,5.8-0.9,11.6-1.2,17.4c-0.3,7.4-4.4,12.1-10.6,12c-6-0.2-10.1-4.9-9.8-12c1.8-60.6,27.8-108.2,78-141.9
		c11.5-7.7,24.9-12.5,37.4-18.6C186.3,259.6,187.5,259.2,188.9,258.7z M150.7,160.4c-0.2,49.6,40.2,90.1,90.1,90.4
		c49.6,0.3,90.4-40.3,90.5-90c0.1-49.7-39.8-90.6-88.6-90.8C191.2,69.7,150.8,109.4,150.7,160.4z"/>
</g>
</svg>
