<?xml version="1.0" encoding="UTF-8"?>
<svg width="100px" height="100px" viewBox="0 0 100 100" version="1.1" xmlns="http://www.w3.org/2000/svg" xmlns:xlink="http://www.w3.org/1999/xlink">
    <!-- Generator: Sketch 61 (89581) - https://sketch.com -->
    <title>ic_3d_animation_design</title>
    <desc>Created with Sketch.</desc>
    <g id="Assets" stroke="none" stroke-width="1" fill="none" fill-rule="evenodd">
        <g id="Artboard" transform="translate(0.000000, -192.000000)" fill="#99D3F6" fill-rule="nonzero">
            <g id="ic_3d_animation_design" transform="translate(0.000000, 192.000000)">
                <path d="M84.0707965,19.4690265 C83.0938053,19.4690265 82.300885,20.2619469 82.300885,21.2389381 C82.300885,22.2159292 83.0938053,23.0088496 84.0707965,23.0088496 C85.0477876,23.0088496 85.840708,22.2159292 85.840708,21.2389381 C85.840708,20.2619469 85.0477876,19.4690265 84.0707965,19.4690265 Z" id="Path"></path>
                <path d="M15.9292035,19.4690265 C14.9522124,19.4690265 14.159292,20.2619469 14.159292,21.2389381 C14.159292,22.2159292 14.9522124,23.0088496 15.9292035,23.0088496 C16.9061947,23.0088496 17.699115,22.2159292 17.699115,21.2389381 C17.699115,20.2619469 16.9061947,19.4690265 15.9292035,19.4690265 Z" id="Path"></path>
                <path d="M98.0375884,43.2961958 L95.6905442,43.2961958 C94.9569947,37.7413152 93.1845446,32.4477478 90.4030224,27.5393038 C89.8757224,26.6089905 88.68081,26.274394 87.7337501,26.7925846 C86.7868866,27.3107753 86.4466044,28.485238 86.9739044,29.4157441 C89.4284888,33.7477564 91.0254993,38.4080012 91.733145,43.2961958 L90.1879421,43.2961958 C89.1041022,43.2961958 88.2255305,44.1595898 88.2255305,45.224706 L88.2255305,52.9387465 C88.2255305,54.0038626 89.1041022,54.8672566 90.1879421,54.8672566 L98.0375884,54.8672566 C99.1214283,54.8672566 100,54.0038626 100,52.9387465 L100,45.224706 C100,44.1595898 99.1214283,43.2961958 98.0375884,43.2961958 Z M96.0751768,51.0102364 L92.1503537,51.0102364 L92.1503537,47.1532161 L93.9318309,47.1532161 C93.9324196,47.1532161 93.9332046,47.1532161 93.9337933,47.1532161 C93.9345783,47.1532161 93.935167,47.1532161 93.935952,47.1532161 L96.0751768,47.1532161 L96.0751768,51.0102364 Z" id="Shape"></path>
                <path d="M71.6774739,57.1194067 C71.6762913,57.0891099 71.6755028,57.058813 71.6729405,57.0285162 C71.6693927,56.9870779 71.6636767,56.9462261 71.6575665,56.9055696 C71.6538215,56.8805503 71.650865,56.855531 71.6459374,56.8305116 C71.6368707,56.7826231 71.6250445,56.7357118 71.612627,56.688996 C71.6078966,56.6712089 71.6041516,56.6534217 71.5988298,56.63583 C71.5812877,56.5773864 71.560789,56.5201156 71.537925,56.4640175 C71.5353627,56.4579582 71.5335888,56.4515079 71.5310264,56.4454485 C71.5038262,56.3801637 71.4732753,56.316638 71.4393736,56.2552625 L51.7294793,20.4862187 C51.3839579,19.8591718 50.7207067,19.4690265 49.9999014,19.4690265 C49.2790962,19.4690265 48.615845,19.8591718 48.2703236,20.4864142 L28.5604293,56.2554579 C28.5265276,56.3168335 28.4959767,56.3803591 28.4687765,56.445644 C28.4662141,56.4517033 28.4644402,56.4579582 28.4618779,56.464213 C28.4390139,56.520311 28.4185152,56.5775818 28.4009731,56.6360254 C28.3956513,56.6536171 28.3919063,56.6714043 28.3871759,56.6891915 C28.3745613,56.7359073 28.3629322,56.7826231 28.3538655,56.8307071 C28.349135,56.855531 28.3461785,56.8805503 28.3422364,56.9057651 C28.3361262,56.9464215 28.3304102,56.9872734 28.3268624,57.0287117 C28.3243001,57.0590085 28.3233145,57.0893054 28.322329,57.1196022 C28.3213435,57.1442306 28.3185841,57.1684681 28.3185841,57.1934874 C28.3185841,57.206388 28.320358,57.2187022 28.3205551,57.2316028 C28.3211464,57.2622906 28.3231174,57.2927829 28.3252856,57.3234707 C28.3278479,57.3623679 28.3310016,57.4010697 28.3359291,57.4393805 C28.339477,57.4663545 28.3438132,57.493133 28.3483466,57.520107 C28.3554423,57.5623271 28.3639177,57.6041563 28.3737729,57.6453991 C28.3792918,57.6686592 28.3854019,57.6919194 28.3919063,57.7149841 C28.4043238,57.7595498 28.4185152,57.8033336 28.4338893,57.8465311 C28.4382255,57.8588453 28.440985,57.8713549 28.4457154,57.8836691 L35.5540339,76.563923 C34.9838152,76.8442177 34.4563679,77.2165757 33.992979,77.675915 C32.8757999,78.7838023 32.2606418,80.2562291 32.2606418,81.8218919 C32.2606418,84.3699545 33.908619,86.542727 36.2026995,87.3496005 L36.2026995,98.0453647 C36.2026995,99.1249098 37.0851291,100 38.1737283,100 L61.8260746,100 C62.9146738,100 63.7971034,99.1249098 63.7971034,98.0453647 L63.7971034,87.3529234 C64.6188253,87.0653965 65.3723497,86.5972614 66.007021,85.9678688 C67.124003,84.8599815 67.7391611,83.3875548 67.7391611,81.8218919 C67.7391611,79.5206998 66.3951165,77.5259945 64.4449806,76.566464 L71.5542846,57.8836691 C71.559015,57.8713549 71.5617745,57.8588453 71.5661107,57.8465311 C71.5814848,57.8033336 71.5956762,57.7595498 71.6080937,57.7149841 C71.6145981,57.6919194 71.6205111,57.6686592 71.6262271,57.6453991 C71.6360823,57.6041563 71.6443606,57.5623271 71.6516534,57.520107 C71.6561868,57.493133 71.6607201,57.4663545 71.6640709,57.4393805 C71.6689984,57.4010697 71.6721521,57.3623679 71.6747144,57.3234707 C71.6766855,57.2927829 71.6788536,57.2622906 71.6794449,57.2316028 C71.679642,57.2188977 71.6814159,57.206388 71.6814159,57.1934874 C71.6814159,57.1684681 71.6784594,57.1442306 71.6774739,57.1194067 Z M49.9999014,55.2388521 C51.0867268,55.2388521 51.9709303,56.1157015 51.9709303,57.1934874 C51.9709303,58.2712733 51.0867268,59.1481227 49.9999014,59.1481227 C48.9130761,59.1481227 48.0288726,58.2712733 48.0288726,57.1934874 C48.0288726,56.1157015 48.9130761,55.2388521 49.9999014,55.2388521 Z M59.8550457,96.0907294 L40.1447572,96.0907294 L40.1447572,87.6857977 L59.8550457,87.6857977 L59.8550457,96.0907294 Z M63.2193949,83.2034281 C62.8468704,83.5730497 62.3519451,83.7765272 61.8260746,83.7765272 L38.1737283,83.7765272 C37.086903,83.7765272 36.2026995,82.8996778 36.2026995,81.8218919 C36.2026995,81.3003952 36.4078836,80.8095863 36.780408,80.4403557 C37.1531296,80.0707342 37.6478578,79.8672566 38.1737283,79.8672566 L61.8128687,79.8672566 C61.8172049,79.8672566 61.8215412,79.867843 61.8258775,79.867843 C61.8280456,79.867843 61.8304108,79.8676476 61.832579,79.8676476 C62.9164477,79.8711659 63.7973005,80.7462561 63.7973005,81.8218919 C63.7973005,82.3433886 63.5919193,82.8341975 63.2193949,83.2034281 Z M60.4631081,75.9579861 L39.5366948,75.9579861 L33.1401148,59.1481227 L38.1737283,59.1481227 C39.2623276,59.1481227 40.1447572,58.2730325 40.1447572,57.1934874 C40.1447572,56.1139423 39.2623276,55.2388521 38.1737283,55.2388521 L33.6127676,55.2388521 L48.0288726,29.0768408 L48.0288726,51.6657788 C45.7347921,52.4726523 44.0868149,54.6452294 44.0868149,57.1934874 C44.0868149,60.4268451 46.7394255,63.0573932 49.9999014,63.0573932 C53.2603774,63.0573932 55.912988,60.4268451 55.912988,57.1934874 C55.912988,54.6454249 54.2650108,52.4726523 51.9709303,51.6657788 L51.9709303,29.0768408 L66.3870353,55.2388521 L61.8260746,55.2388521 C60.7374753,55.2388521 59.8550457,56.1139423 59.8550457,57.1934874 C59.8550457,58.2730325 60.7374753,59.1481227 61.8260746,59.1481227 L66.859688,59.1481227 L60.4631081,75.9579861 Z" id="Shape"></path>
                <path d="M12.2661972,26.7927491 C11.3191263,26.2743686 10.1240036,26.6087703 9.59689372,27.5394638 C6.81553522,32.4478791 5.04286808,37.7414155 4.30950629,43.2962636 L1.96243456,43.2962636 C0.878581952,43.2962636 3.19744231e-14,44.1596525 3.19744231e-14,45.2247624 L3.19744231e-14,52.9387578 C3.19744231e-14,54.0038677 0.878581952,54.8672566 1.96243456,54.8672566 L9.81217279,54.8672566 C10.8960254,54.8672566 11.7746074,54.0038677 11.7746074,52.9387578 L11.7746074,45.2247624 C11.7746074,44.1596525 10.8960254,43.2962636 9.81217279,43.2962636 L8.26675558,43.2962636 C8.97460572,38.4080976 10.5714387,33.7478801 13.0260519,29.4158932 C13.553358,28.4853925 13.2132681,27.3109367 12.2661972,26.7927491 Z M7.84973823,51.010259 L3.92486912,51.010259 L3.92486912,47.1532613 L6.06411903,47.1532613 C6.064904,47.1532613 6.06549273,47.1532613 6.06627771,47.1532613 C6.06686644,47.1532613 6.06765141,47.1532613 6.06824014,47.1532613 L7.84973823,47.1532613 L7.84973823,51.010259 Z" id="Shape"></path>
                <path d="M94.140625,1.91846539e-13 C91.5945313,1.91846539e-13 89.4234375,1.61323777 88.6171875,3.85895891 L55.859375,3.85895891 L55.859375,1.92947946 C55.859375,0.863827952 54.9849609,1.91846539e-13 53.90625,1.91846539e-13 L46.09375,1.91846539e-13 C45.0150391,1.91846539e-13 44.140625,0.863827952 44.140625,1.92947946 L44.140625,3.85895891 L11.3828125,3.85895891 C10.5765625,1.61323777 8.40546875,1.91846539e-13 5.859375,1.91846539e-13 C2.62851562,1.91846539e-13 0,2.59669345 0,5.78843837 C0,8.98018328 2.62851562,11.5768767 5.859375,11.5768767 C8.40546875,11.5768767 10.5765625,9.96363896 11.3828125,7.71791782 L31.0183594,7.71791782 C26.8525391,9.43997824 23.0322266,11.6754731 19.8876953,14.2943556 C19.0628906,14.9812503 18.9580078,16.1985589 19.6533203,17.0131851 C20.0396484,17.4660339 20.5917969,17.699115 21.1474609,17.699115 C21.5919922,17.699115 22.0388672,17.5501592 22.4052734,17.2449156 C28.0091797,12.5778907 36.0064453,9.24471491 44.140625,8.12677452 L44.140625,9.64739728 C44.140625,10.7130488 45.0150391,11.5768767 46.09375,11.5768767 L53.90625,11.5768767 C54.9849609,11.5768767 55.859375,10.7130488 55.859375,9.64739728 L55.859375,8.12677452 C63.9935547,9.24471491 71.9908203,12.5778907 77.5947266,17.2447226 C77.9611328,17.5499663 78.4080078,17.699115 78.8525391,17.6989221 C79.4083984,17.6989221 79.9605469,17.465841 80.3466797,17.0129921 C81.0421875,16.1985589 80.9371094,14.9812503 80.1123047,14.2943556 C76.9677734,11.6754731 73.1474609,9.43997824 68.9816406,7.71791782 L88.6171875,7.71791782 C89.4234375,9.96363896 91.5943359,11.5768767 94.140625,11.5768767 C97.3714844,11.5768767 100,8.98018328 100,5.78843837 C100,2.59669345 97.3714844,1.91846539e-13 94.140625,1.91846539e-13 Z M5.859375,7.71791782 C4.78242187,7.71791782 3.90625,6.85235334 3.90625,5.78843837 C3.90625,4.72452339 4.78242187,3.85895891 5.859375,3.85895891 C6.93632812,3.85895891 7.8125,4.72452339 7.8125,5.78843837 C7.8125,6.85235334 6.93632813,7.71791782 5.859375,7.71791782 Z M51.953125,5.78843837 L51.953125,5.96209152 L51.953125,7.71791782 L48.046875,7.71791782 L48.046875,5.96209152 L48.046875,5.78843837 L48.046875,3.85895891 L51.953125,3.85895891 L51.953125,5.78843837 Z M94.140625,7.71791782 C93.0636719,7.71791782 92.1875,6.85235334 92.1875,5.78843837 C92.1875,4.72452339 93.0636719,3.85895891 94.140625,3.85895891 C95.2175781,3.85895891 96.09375,4.72452339 96.09375,5.78843837 C96.09375,6.85235334 95.2175781,7.71791782 94.140625,7.71791782 Z" id="Shape"></path>
            </g>
        </g>
    </g>
</svg>