<?xml version="1.0" encoding="UTF-8"?>
<svg width="24px" height="24px" viewBox="0 0 24 24" version="1.1" xmlns="http://www.w3.org/2000/svg" xmlns:xlink="http://www.w3.org/1999/xlink">
    <!-- Generator: Sketch 61 (89581) - https://sketch.com -->
    <title>ic_account_settings</title>
    <desc>Created with Sketch.</desc>
    <g id="Assets" stroke="none" stroke-width="1" fill="none" fill-rule="evenodd">
        <g id="Artboard" transform="translate(-216.000000, -64.000000)" fill="#979797" fill-rule="nonzero" stroke="#979797" stroke-width="0.3">
            <g id="ic_account_settings" transform="translate(220.000000, 66.000000)">
                <g id="Group" transform="translate(0.574341, 0.990356)">
                    <path d="M7.37213418,8.6706848 C8.55961595,8.6706848 9.58774458,8.24345399 10.4280447,7.40052795 C11.268071,6.55773926 11.6941078,5.52653504 11.6941078,4.33520508 C11.6941078,3.14428711 11.2682079,2.11294554 10.4279078,1.26988221 C9.58760769,0.427230844 8.55947905,0 7.37213418,0 C6.18451556,0 5.15652379,0.427230844 4.31636061,1.27001953 C3.47619743,2.11280822 3.05016063,3.14414979 3.05016063,4.33520508 C3.05016063,5.52653504 3.47619743,6.55787658 4.31636061,7.40066527 C5.15679761,8.24331663 6.18492624,8.6706848 7.37213418,8.6706848 Z M5.06000839,2.01585389 C5.70467657,1.36917112 6.46091923,1.05482482 7.37213418,1.05482482 C8.28321224,1.05482482 9.03959187,1.36917112 9.6843969,2.01585389 C10.329065,2.66267394 10.642569,3.42141722 10.642569,4.33520508 C10.642569,5.24926758 10.329065,6.00787354 9.6843969,6.65469359 C9.03959187,7.30151367 8.28321224,7.61585998 7.37213418,7.61585998 C6.46119305,7.61585998 5.70495035,7.30137635 5.06000839,6.65469359 C4.41520335,6.00801086 4.10169939,5.24926758 4.10169939,4.33520508 C4.10169939,3.42141722 4.41520335,2.66267394 5.06000839,2.01585389 Z" id="Shape"></path>
                    <path d="M14.9344243,13.8411255 C14.9101928,13.4903869 14.8611821,13.1077881 14.7890351,12.7037659 C14.7162036,12.2967224 14.6224262,11.9119263 14.5101672,11.5602264 C14.3940749,11.1967163 14.2365015,10.8377381 14.0414172,10.4937286 C13.839214,10.136673 13.6015534,9.82575988 13.3348697,9.56991579 C13.0560018,9.30226134 12.7145699,9.08706663 12.3197467,8.9300995 C11.9262923,8.77395628 11.4902618,8.69485472 11.0238391,8.69485472 C10.8406651,8.69485472 10.6635149,8.77024842 10.3213986,8.99368284 C10.1108444,9.13142394 9.864559,9.2907257 9.58966121,9.46691895 C9.35460172,9.617157 9.03616931,9.75791932 8.64285193,9.88536073 C8.25911762,10.0099182 7.86949658,10.0730896 7.48480395,10.0730896 C7.10038514,10.0730896 6.7107641,10.0099182 6.326756,9.88536073 C5.9338493,9.75805664 5.61528,9.61729432 5.38063121,9.46705627 C5.10833453,9.29251097 4.86191222,9.13320921 4.64820932,8.99354552 C4.30636682,8.7701111 4.12921654,8.6947174 3.94604264,8.6947174 C3.47948306,8.6947174 3.04358937,8.77395628 2.65027199,8.93023682 C2.25572246,9.08692931 1.91415379,9.30212402 1.63501206,9.57005311 C1.36832835,9.82603455 1.13066772,10.1368103 0.928601425,10.4937286 C0.733790888,10.8377381 0.576080607,11.196579 0.459988318,11.5603638 C0.347866157,11.9120636 0.254088785,12.2967224 0.181257301,12.7037659 C0.108973423,13.1072388 0.0600996729,13.489975 0.0358681542,13.8415375 C0.0120473131,14.1852722 -3.91686683e-13,14.5430145 -3.91686683e-13,14.9044647 C-3.91686683e-13,15.8440704 0.297760304,16.6047363 0.884929907,17.1657257 C1.46484375,17.7192993 2.23203855,18 3.1652946,18 L11.8054085,18 C12.7383908,18 13.5055856,17.7192993 14.0856363,17.1657257 C14.6729428,16.6051483 14.9707031,15.8442078 14.9707031,14.9043274 C14.9707031,14.5416412 14.958382,14.1838989 14.9344243,13.8411255 L14.9344243,13.8411255 Z M13.3606071,16.4014893 C12.9774204,16.767334 12.4686953,16.9451752 11.8052716,16.9451752 L3.1652946,16.9451752 C2.50173407,16.9451752 1.99300893,16.767334 1.60995911,16.4016266 C1.23416509,16.0427856 1.05153876,15.5529327 1.05153876,14.9044647 C1.05153876,14.5671845 1.06262776,14.2341614 1.08480578,13.9144592 C1.10643617,13.6007996 1.15065529,13.2562408 1.21623102,12.8901215 C1.28098532,12.528534 1.36339991,12.1891937 1.46142123,11.8819885 C1.55547238,11.5874176 1.68374891,11.2957306 1.84282819,11.0147553 C1.99465171,10.7469635 2.16933778,10.5172119 2.36209479,10.3320923 C2.54239377,10.1589203 2.76964991,10.0171967 3.03742882,9.91090392 C3.28508324,9.81257629 3.56340354,9.75874328 3.86554468,9.75064085 C3.90237112,9.77027892 3.96794685,9.80776976 4.07418224,9.8772583 C4.29034938,10.0185699 4.53950972,10.1797943 4.81495511,10.3562622 C5.12544722,10.5548401 5.52547276,10.7341919 6.00339515,10.8889618 C6.49199583,11.0474396 6.99031651,11.1279144 7.48494084,11.1279144 C7.97956521,11.1279144 8.47802278,11.0474396 8.96634967,10.8890991 C9.44468275,10.7340546 9.84457143,10.5548401 10.1554742,10.3559875 C10.437354,10.1752625 10.6795323,10.0187073 10.8956995,9.8772583 C11.0019349,9.80790711 11.0675106,9.77027892 11.104337,9.75064085 C11.4066151,9.75874328 11.6849354,9.81257629 11.9327267,9.91090392 C12.2003687,10.0171967 12.4276248,10.1590576 12.6079239,10.3320923 C12.8006809,10.5170746 12.9753669,10.7468262 13.1271904,11.0148926 C13.2864066,11.2957306 13.41482,11.5875549 13.5087343,11.8818512 C13.6068925,12.1894684 13.689444,12.5286713 13.7540614,12.8899841 C13.8195002,13.2567902 13.8638562,13.6014862 13.8854866,13.9145966 L13.8854866,13.9148712 C13.9078016,14.2333374 13.9190275,14.5662231 13.9191643,14.9044647 C13.9190275,15.5530701 13.7364011,16.0427856 13.3606071,16.4014893 L13.3606071,16.4014893 Z" id="Shape"></path>
                </g>
            </g>
        </g>
    </g>
</svg>