<?xml version="1.0" encoding="UTF-8"?>
<svg width="54px" height="74px" viewBox="0 0 54 74" version="1.1" xmlns="http://www.w3.org/2000/svg" xmlns:xlink="http://www.w3.org/1999/xlink">
    <!-- Generator: Sketch 61 (89581) - https://sketch.com -->
    <title>ic_apple</title>
    <desc>Created with Sketch.</desc>
    <g id="Assets" stroke="none" stroke-width="1" fill="none" fill-rule="evenodd">
        <g id="Artboard" transform="translate(-192.000000, -192.000000)" fill="#6ADFE1" fill-rule="nonzero" stroke="#A4E9EA" stroke-width="0.4">
            <g id="ic_apple" transform="translate(193.000000, 193.000000)">
                <path d="M37.3612061,0 L14.765625,0 C6.62365716,0 3.90798505e-14,6.62365716 3.90798505e-14,14.765625 L3.90798505e-14,57.234375 C3.90798505e-14,65.3763428 6.62365716,72 14.765625,72 L37.3612061,72 C45.5031738,72 52.1268311,65.3763428 52.1268311,57.234375 L52.1268311,14.765625 C52.1268311,6.62365716 45.5031738,0 37.3612061,0 Z M47.9080811,57.234375 C47.9080811,63.0499878 43.1768188,67.78125 37.3612061,67.78125 L14.765625,67.78125 C8.95001217,67.78125 4.21875,63.0499878 4.21875,57.234375 L4.21875,14.765625 C4.21875,8.95001217 8.95001217,4.21875 14.765625,4.21875 L37.3612061,4.21875 C43.1768188,4.21875 47.9080811,8.95001217 47.9080811,14.765625 L47.9080811,57.234375 Z" id="Shape"></path>
                <path d="M40.2857665,43.5388184 C40.7526855,43.1520996 41.0498657,42.567627 41.0498657,41.9139405 C41.0498657,40.7493897 40.1055908,39.8045655 38.9404907,39.8045655 L37.2738648,39.8045655 L28.7731934,29.2637329 L32.4129639,24.75 C33.1446533,23.8430786 33.0023804,22.5153809 32.095459,21.7836914 C31.1885376,21.0525512 29.8602906,21.1948242 29.1291504,22.1017456 L26.0634156,25.9035645 L22.9971313,22.1017456 C22.2659913,21.1948242 20.9377441,21.0525512 20.031372,21.7836914 C19.1244507,22.5153809 18.9821777,23.8430786 19.7133179,24.75 L23.3536376,29.2637329 L14.8524171,39.8045655 L13.1863403,39.8045655 C12.0212402,39.8045655 11.0769653,40.7493897 11.0769653,41.9139405 C11.0769653,42.567627 11.3741454,43.1520996 11.8410645,43.5388184 L10.9182129,44.6835938 C10.1865234,45.5899658 10.3287964,46.9182129 11.2357178,47.6493531 C11.6257324,47.9641113 12.09375,48.1168212 12.559021,48.1168212 C13.1748047,48.1168212 13.7850953,47.8487548 14.2020264,47.3318481 L16.8700562,44.0233155 L35.2567749,44.0233155 L37.9248047,47.3318481 C38.3417359,47.8487548 38.9520264,48.1168212 39.5678101,48.1168212 C40.0330811,48.1168212 40.5010986,47.9641113 40.890564,47.6493531 C41.7974853,46.9182129 41.9397583,45.5899658 41.2086181,44.6835938 L40.2857665,43.5388184 Z M20.2719727,39.8045655 L26.0634156,32.6239014 L31.8548585,39.8045655 L20.2719727,39.8045655 Z" id="Shape"></path>
            </g>
        </g>
    </g>
</svg>