<?xml version="1.0" encoding="UTF-8"?>
<svg width="35px" height="32px" viewBox="0 0 35 32" version="1.1" xmlns="http://www.w3.org/2000/svg" xmlns:xlink="http://www.w3.org/1999/xlink">
    <!-- Generator: Sketch 61 (89581) - https://sketch.com -->
    <title>ic_consulting</title>
    <desc>Created with Sketch.</desc>
    <g id="Assets" stroke="none" stroke-width="1" fill="none" fill-rule="evenodd">
        <g id="Artboard" transform="translate(-64.000000, -128.000000)" fill="#FFFFFF" fill-rule="nonzero">
            <g id="ic_consulting" transform="translate(64.000000, 128.000000)">
                <path d="M28.1604167,6.18757447 C27.9052083,6.18757447 27.6470833,6.09897305 27.44,5.91741277 C24.679375,3.5062922 21.14875,2.1787234 17.5,2.1787234 C14.06125,2.1787234 10.6983333,3.37992624 8.02958333,5.56300709 C7.56145833,5.94500993 6.87166667,5.87674326 6.48958333,5.41194894 C6.1075,4.94715461 6.17458333,4.2601305 6.64125,3.87812766 C9.699375,1.37695319 13.5566667,2.39808173e-13 17.5,2.39808173e-13 C21.6795833,2.39808173e-13 25.7220833,1.51929645 28.8822917,4.27901277 C29.3358333,4.67554043 29.3810417,5.36401702 28.9829167,5.81719149 C28.7670833,6.06120851 28.46375,6.18757447 28.1604167,6.18757447 Z" id="Path"></path>
                <path d="M10.5729167,5.80992908 L6.92708333,5.80992908 C6.32333333,5.80992908 5.83333333,5.32189504 5.83333333,4.72056738 L5.83333333,1.0893617 C5.83333333,0.488034043 6.32333333,6.86561918e-13 6.92708333,6.86561918e-13 C7.53083333,6.86561918e-13 8.02083333,0.488034043 8.02083333,1.0893617 L8.02083333,3.63120567 L10.5729167,3.63120567 C11.1766667,3.63120567 11.6666667,4.11923972 11.6666667,4.72056738 C11.6666667,5.32189504 11.1766667,5.80992908 10.5729167,5.80992908 Z" id="Path"></path>
                <path d="M17.675,31.9546099 C13.4939583,31.9546099 9.45145833,30.4353135 6.29270833,27.6755972 C5.83770833,27.2790695 5.79395833,26.5905929 6.19208333,26.1374184 C6.59020833,25.6856965 7.28145833,25.6406695 7.73645833,26.0371972 C10.495625,28.4483177 14.0247917,29.7758865 17.675,29.7758865 C21.11375,29.7758865 24.4766667,28.5746837 27.1454167,26.3916028 C27.6120833,26.0081475 28.3004167,26.0764142 28.6854167,26.542661 C29.0689583,27.0074553 29.0004167,27.6944794 28.53375,28.0764823 C25.475625,30.5776567 21.6183333,31.9546099 17.675,31.9546099 L17.675,31.9546099 Z" id="Path"></path>
                <path d="M28.0729167,31.9546099 C27.4691667,31.9546099 26.9791667,31.4665759 26.9791667,30.8652482 L26.9791667,28.3234043 L24.4270833,28.3234043 C23.8233333,28.3234043 23.3333333,27.8353702 23.3333333,27.2340426 C23.3333333,26.6327149 23.8233333,26.1446809 24.4270833,26.1446809 L28.0729167,26.1446809 C28.6766667,26.1446809 29.1666667,26.6327149 29.1666667,27.2340426 L29.1666667,30.8652482 C29.1666667,31.4665759 28.6766667,31.9546099 28.0729167,31.9546099 Z" id="Path"></path>
                <path d="M7.29166667,15.977305 C5.28208333,15.977305 3.64583333,14.3476199 3.64583333,12.3460993 C3.64583333,10.3445787 5.28208333,8.71489362 7.29166667,8.71489362 C9.30125,8.71489362 10.9375,10.3445787 10.9375,12.3460993 C10.9375,14.3476199 9.30125,15.977305 7.29166667,15.977305 Z M7.29166667,10.893617 C6.488125,10.893617 5.83333333,11.5457816 5.83333333,12.3460993 C5.83333333,13.146417 6.488125,13.7985816 7.29166667,13.7985816 C8.09520833,13.7985816 8.75,13.146417 8.75,12.3460993 C8.75,11.5457816 8.09520833,10.893617 7.29166667,10.893617 Z" id="Shape"></path>
                <path d="M13.4895833,23.2397163 C12.8858333,23.2397163 12.3958333,22.7516823 12.3958333,22.1503546 L12.3958333,21.4241135 C12.3958333,20.4233532 11.5777083,19.6085106 10.5729167,19.6085106 L4.01041667,19.6085106 C3.005625,19.6085106 2.1875,20.4233532 2.1875,21.4241135 L2.1875,22.1503546 C2.1875,22.7516823 1.6975,23.2397163 1.09375,23.2397163 C0.49,23.2397163 -4.08562073e-14,22.7516823 -4.08562073e-14,22.1503546 L-4.08562073e-14,21.4241135 C-4.08562073e-14,19.2206979 1.798125,17.4297872 4.01041667,17.4297872 L10.5729167,17.4297872 C12.7852083,17.4297872 14.5833333,19.2206979 14.5833333,21.4241135 L14.5833333,22.1503546 C14.5833333,22.7516823 14.0933333,23.2397163 13.4895833,23.2397163 Z" id="Path"></path>
                <path d="M27.7083333,15.977305 C25.69875,15.977305 24.0625,14.3476199 24.0625,12.3460993 C24.0625,10.3445787 25.69875,8.71489362 27.7083333,8.71489362 C29.7179167,8.71489362 31.3541667,10.3445787 31.3541667,12.3460993 C31.3541667,14.3476199 29.7179167,15.977305 27.7083333,15.977305 Z M27.7083333,10.893617 C26.9047917,10.893617 26.25,11.5457816 26.25,12.3460993 C26.25,13.146417 26.9047917,13.7985816 27.7083333,13.7985816 C28.511875,13.7985816 29.1666667,13.146417 29.1666667,12.3460993 C29.1666667,11.5457816 28.511875,10.893617 27.7083333,10.893617 Z" id="Shape"></path>
                <path d="M33.90625,23.2397163 C33.3025,23.2397163 32.8125,22.7516823 32.8125,22.1503546 L32.8125,21.4241135 C32.8125,20.4233532 31.994375,19.6085106 30.9895833,19.6085106 L24.4270833,19.6085106 C23.4222917,19.6085106 22.6041667,20.4233532 22.6041667,21.4241135 L22.6041667,22.1503546 C22.6041667,22.7516823 22.1141667,23.2397163 21.5104167,23.2397163 C20.9066667,23.2397163 20.4166667,22.7516823 20.4166667,22.1503546 L20.4166667,21.4241135 C20.4166667,19.2206979 22.2147917,17.4297872 24.4270833,17.4297872 L30.9895833,17.4297872 C33.201875,17.4297872 35,19.2206979 35,21.4241135 L35,22.1503546 C35,22.7516823 34.51,23.2397163 33.90625,23.2397163 Z" id="Path"></path>
            </g>
        </g>
    </g>
</svg>