<?xml version="1.0" encoding="UTF-8"?>
<svg width="64px" height="64px" viewBox="0 0 64 64" version="1.1" xmlns="http://www.w3.org/2000/svg" xmlns:xlink="http://www.w3.org/1999/xlink">
    <!-- Generator: Sketch 61 (89581) - https://sketch.com -->
    <title>ic_corporate</title>
    <desc>Created with Sketch.</desc>
    <g id="Assets" stroke="none" stroke-width="1" fill="none" fill-rule="evenodd">
        <g id="Artboard" transform="translate(-576.000000, -192.000000)">
            <g id="ic_corporate" transform="translate(576.000000, 192.000000)">
                <polygon id="Rectangle" fill="#EFA91F" points="36 19 53 26.2768555 53 61 36 61"></polygon>
                <path d="M14,24 L21.2368732,28.5184219 C23.5777049,29.979946 25,32.5447284 25,35.3043562 L25,61 L25,61 L14,61 L14,24 Z" id="Rectangle-Copy" fill="#EFA91F" transform="translate(19.500000, 42.500000) scale(-1, 1) translate(-19.500000, -42.500000) "></path>
                <g id="1507075" fill="#000000" fill-rule="nonzero">
                    <path d="M55.6993178,60.25 L55.6993178,22.4882812 L57.6369396,23.2861328 C57.869883,23.3823242 58.1106238,23.4277344 58.3474659,23.4277344 C59.0838207,23.4277344 59.7821637,22.9892578 60.0794347,22.2646485 C60.4722222,21.3071289 60.0155945,20.2114258 59.0599416,19.8178711 L55.6993178,18.434082 L55.6993178,15.980957 L57.6369396,16.7788086 C57.8693957,16.8745117 58.1106238,16.9199219 58.3474659,16.9199219 C59.0838207,16.9199219 59.7816764,16.4819336 60.0789473,15.7573242 C60.4722222,14.7998047 60.0155945,13.7041015 59.0594543,13.3105469 L27.0823586,0.14111325 C26.1267057,-0.252441375 25.0331384,0.205078125 24.6398635,1.16259763 C24.2470761,2.1206055 24.7037037,3.21582025 25.6593567,3.60986325 L27.6466862,4.42822263 L27.6466862,6.88085938 L27.0823586,6.6484375 C26.1267057,6.25537113 25.0331384,6.71240238 24.6403508,7.66992188 C24.2470761,8.62792975 24.7037037,9.72363275 25.6598441,10.1171875 L27.6466862,10.9355469 L27.6466862,14.6699219 L11.7456141,22.909668 C9.6364523,24.0024414 8.32651078,26.1601562 8.32651078,28.5405274 L8.32651078,60.25 L1.9337232,60.25 C0.900097497,60.25 0.0623781676,61.0893555 0.0623781676,62.125 C0.0623781676,63.1606445 0.900097497,64 1.9337232,64 L62.0657895,64 C63.0994152,64 63.9371345,63.1606445 63.9371345,62.125 C63.9371345,61.0893555 63.0994152,60.25 62.0657895,60.25 L55.6993178,60.25 Z M31.3893762,5.96923825 L51.9566277,14.4394531 L51.9566277,16.8925781 L31.3893762,8.42236325 L31.3893762,5.96923825 Z M21.7290448,60.25 L21.7290448,54.2856445 C21.7290448,53.2504883 20.8913255,52.4106445 19.8576998,52.4106445 C18.8245614,52.4106445 17.9863548,53.2504883 17.9863548,54.2856445 L17.9863548,60.25 L12.0692008,60.25 L12.0692008,48.6464844 L12.0692008,44.8964844 L12.0692008,41.7631836 L12.0692008,38.0131836 L12.0692008,34.7822265 L12.0692008,31.0322265 L12.0692008,28.5405274 C12.0692008,27.5678711 12.6038012,26.6865235 13.4649123,26.2402344 L27.6466862,18.8916015 L27.6466862,60.25 L21.7290448,60.25 Z M47.287037,60.25 L43.5443469,60.25 L39.8016569,60.25 L36.0589668,60.25 L31.3893762,60.25 L31.3893762,12.4765625 L51.9566277,20.9467774 L51.9566277,60.25 L47.287037,60.25 Z" id="Shape"></path>
                </g>
            </g>
        </g>
    </g>
</svg>