<?xml version="1.0" encoding="UTF-8"?>
<svg width="88px" height="74px" viewBox="0 0 88 74" version="1.1" xmlns="http://www.w3.org/2000/svg" xmlns:xlink="http://www.w3.org/1999/xlink">
    <!-- Generator: Sketch 61 (89581) - https://sketch.com -->
    <title>ic_desktop</title>
    <desc>Created with Sketch.</desc>
    <g id="Assets" stroke="none" stroke-width="1" fill="none" fill-rule="evenodd">
        <g id="Artboard" transform="translate(-264.000000, -192.000000)" fill="#D9ACF9" fill-rule="nonzero" stroke="#D9ACF9" stroke-width="0.4">
            <g id="ic_desktop" transform="translate(265.000000, 193.000000)">
                <path d="M79.9470333,1.84741111e-13 L6.05296667,1.84741111e-13 C2.722975,-0.00790263205 0.01505,2.69389737 0,6.03937737 L0,52.0401774 C0.01505,55.3856574 2.722975,58.0874574 6.05296667,58.0795374 L37.6078,58.0795374 L37.6078,69.1200174 L19.2482333,69.1200174 C18.456675,69.1200174 17.8149,69.7647774 17.8149,70.5600174 C17.8149,71.3552574 18.456675,72.0000174 19.2482333,72.0000174 L66.7517667,72.0000174 C67.543325,72.0000174 68.1851,71.3552574 68.1851,70.5600174 C68.1851,69.7647774 67.543325,69.1200174 66.7517667,69.1200174 L48.3922,69.1200174 L48.3922,58.0795374 L79.9470333,58.0795374 C83.277025,58.0874574 85.98495,55.3856574 86,52.0401774 L86,6.03937737 C85.98495,2.69389737 83.277025,-0.00790263205 79.9470333,1.84741111e-13 Z M45.5255333,69.1200174 L40.4744667,69.1200174 L40.4744667,58.0795374 L45.5255333,58.0795374 L45.5255333,69.1200174 Z M83.1333333,52.0401774 C83.1198958,53.7957174 81.6944458,55.2090774 79.9470333,55.1995854 L6.05296667,55.1995854 C4.30555417,55.2090774 2.88010417,53.7957174 2.86666667,52.0401774 L2.86666667,48.1377774 L83.1333333,48.1377774 L83.1333333,52.0401774 Z M83.1333333,45.2577774 L2.86666667,45.2577774 L2.86666667,6.03937737 C2.88010417,4.28383737 4.30555417,2.87047737 6.05296667,2.87996936 L79.9470333,2.87996936 C81.6944458,2.87047737 83.1198958,4.28383737 83.1333333,6.03937737 L83.1333333,45.2577774 Z" id="Shape"></path>
                <path d="M44.4333333,23.0400174 L44.4333333,20.1600174 L39.8466667,20.1600174 C39.5927875,18.1611174 38.8103667,16.2669774 37.5805667,14.6750574 L40.8227667,11.4177774 L38.7960333,9.38161737 L35.5538333,12.6388974 C33.9701792,11.4064374 32.0871375,10.6223574 30.1,10.3680174 L30.1,5.76001737 L27.2333333,5.76001737 L27.2333333,10.3680174 C25.2436875,10.6230774 23.3583167,11.4091374 21.7737667,12.6446574 L18.5315667,9.38737737 L16.5048333,11.4235374 L19.7470333,14.6808174 C18.5202792,16.2718374 17.7398292,18.1636374 17.4866667,20.1600174 L12.9,20.1600174 L12.9,23.0400174 L17.4866667,23.0400174 C17.7387542,25.0383774 18.5193833,26.9323374 19.7470333,28.5249774 L16.5048333,31.7822574 L18.5315667,33.8184174 L21.7737667,30.5611374 C23.3590333,31.7944974 25.244225,32.5787574 27.2333333,32.8320174 L27.2333333,37.4400174 L30.1,37.4400174 L30.1,32.8320174 C32.0896458,32.5771374 33.9750167,31.7908974 35.5595667,30.5553774 L38.8017667,33.8126574 L40.8285,31.7764974 L37.5863,28.5192174 C38.8130542,26.9281974 39.5935042,25.0363974 39.8466667,23.0400174 L44.4333333,23.0400174 Z M28.6666667,30.0600174 C24.0160375,30.0600174 20.2458333,26.2722774 20.2458333,21.6000174 C20.2513875,16.9299174 24.0181875,13.1455974 28.6666667,13.1400174 C33.3172958,13.1400174 37.0875,16.9277574 37.0875,21.6000174 C37.0875,26.2722774 33.3172958,30.0600174 28.6666667,30.0600174 Z" id="Shape"></path>
                <path d="M63.0666667,34.5600174 L63.0666667,31.6800174 L61.1173333,31.6800174 C60.9424667,30.8752374 60.6233708,30.1091574 60.1756333,29.4192174 L61.5602333,28.0281774 L59.5335,25.9920174 L58.1489,27.3830574 C57.4621542,26.9343174 56.7003375,26.6142774 55.9,26.4384174 L55.9,24.4800174 L53.0333333,24.4800174 L53.0333333,26.4384174 C52.2329958,26.6142774 51.4711792,26.9343174 50.7844333,27.3830574 L49.3998333,25.9920174 L47.3731,28.0281774 L48.7577,29.4192174 C48.3099625,30.1091574 47.9908667,30.8752374 47.816,31.6800174 L45.8666667,31.6800174 L45.8666667,34.5600174 L47.816,34.5600174 C47.9908667,35.3647974 48.3099625,36.1308774 48.7577,36.8208174 L47.3731,38.2118574 L49.3998333,40.2480174 L50.7844333,38.8569774 C51.4711792,39.3057174 52.2329958,39.6257574 53.0333333,39.8016174 L53.0333333,41.7600174 L55.9,41.7600174 L55.9,39.8016174 C56.7003375,39.6257574 57.4621542,39.3057174 58.1489,38.8569774 L59.5335,40.2480174 L61.5602333,38.2118574 L60.1756333,36.8208174 C60.6233708,36.1308774 60.9424667,35.3647974 61.1173333,34.5600174 L63.0666667,34.5600174 Z M54.4666667,37.0800174 C52.2897917,37.0800174 50.525,35.3070174 50.525,33.1200174 C50.5266125,30.9335574 52.2903292,29.1616374 54.4666667,29.1600174 C56.6435417,29.1600174 58.4083333,30.9330174 58.4083333,33.1200174 C58.4083333,35.3070174 56.6435417,37.0800174 54.4666667,37.0800174 Z" id="Shape"></path>
                <path d="M55.6362667,11.5200174 C55.2026833,10.3003374 54.2471875,9.34057737 53.0333333,8.90497737 L53.0333333,7.20001737 L50.1666667,7.20001737 L50.1666667,8.90497737 C48.9528125,9.34057737 47.9973167,10.3005174 47.5637333,11.5200174 L45.8666667,11.5200174 L45.8666667,14.4000174 L47.5637333,14.4000174 C47.9973167,15.6195174 48.9528125,16.5794574 50.1666667,17.0150574 L50.1666667,18.7200174 L53.0333333,18.7200174 L53.0333333,17.0150574 C54.2473667,16.5794574 55.2026833,15.6195174 55.6362667,14.4000174 L57.3333333,14.4000174 L57.3333333,11.5200174 L55.6362667,11.5200174 L55.6362667,11.5200174 Z M51.6,14.4000174 C50.8084417,14.4000174 50.1666667,13.7552574 50.1666667,12.9600174 C50.1666667,12.1647774 50.8084417,11.5200174 51.6,11.5200174 C52.3915583,11.5200174 53.0333333,12.1647774 53.0333333,12.9600174 C53.0333333,13.7552574 52.3915583,14.4000174 51.6,14.4000174 Z" id="Shape"></path>
                <path d="M28.6666667,15.8400174 C25.5002542,15.8400174 22.9333333,18.4188774 22.9333333,21.6000174 C22.9333333,24.7811574 25.5002542,27.3600174 28.6666667,27.3600174 C31.8330792,27.3600174 34.4,24.7811574 34.4,21.6000174 C34.4,18.4188774 31.8330792,15.8400174 28.6666667,15.8400174 Z M28.6666667,24.4800174 C27.0833708,24.4800174 25.8,23.1906774 25.8,21.6000174 C25.8,20.0093574 27.0833708,18.7200174 28.6666667,18.7200174 C30.2499625,18.7200174 31.5333333,20.0093574 31.5333333,21.6000174 C31.5333333,23.1906774 30.2499625,24.4800174 28.6666667,24.4800174 Z" id="Shape"></path>
            </g>
        </g>
    </g>
</svg>