<?xml version="1.0" encoding="UTF-8"?>
<svg width="24px" height="24px" viewBox="0 0 24 24" version="1.1" xmlns="http://www.w3.org/2000/svg" xmlns:xlink="http://www.w3.org/1999/xlink">
    <!-- Generator: Sketch 61 (89581) - https://sketch.com -->
    <title>ic_duration</title>
    <desc>Created with Sketch.</desc>
    <g id="Assets" stroke="none" stroke-width="1" fill="none" fill-rule="evenodd">
        <g id="Artboard" transform="translate(-768.000000, -64.000000)" fill="#BABABA" fill-rule="nonzero" stroke="#BABABA" stroke-width="0.5">
            <g id="ic_duration" transform="translate(772.000000, 68.000000)">
                <g id="Group">
                    <path d="M10.8464407,7.90576271 L8.90962712,7.90576271 C8.81091525,7.52637288 8.5139661,7.22942373 8.13457627,7.13071186 L8.13457627,4.38033898 C8.13457627,4.23037288 8.01308475,4.10915254 7.86338983,4.10915254 C7.71369492,4.10915254 7.59220339,4.23037288 7.59220339,4.38033898 L7.59220339,7.13071186 C7.12576271,7.2519322 6.77864407,7.67281356 6.77864407,8.17694915 C6.77864407,8.77518644 7.26515254,9.26169492 7.86338983,9.26169492 C8.36725424,9.26169492 8.78840678,8.91457627 8.90962712,8.44813559 L10.8464407,8.44813559 C10.9961356,8.44813559 11.1176271,8.32691525 11.1176271,8.17694915 C11.1176271,8.02698305 10.9964068,7.90576271 10.8464407,7.90576271 Z M7.86338983,8.71932203 C7.56427119,8.71932203 7.32101695,8.4760678 7.32101695,8.17694915 C7.32101695,7.87783051 7.56427119,7.63457627 7.86338983,7.63457627 C8.16250847,7.63457627 8.40576271,7.87783051 8.40576271,8.17694915 C8.40576271,8.4760678 8.16250847,8.71932203 7.86338983,8.71932203 Z" id="Shape"></path>
                    <path d="M12.7444746,2.72501695 C11.4482034,1.56325424 9.73728814,0.854915254 7.86366102,0.854915254 C5.9900339,0.854915254 4.27911864,1.56325424 2.98284746,2.72501695 L2.59288136,3.10223729 C1.324,4.41938983 0.541355932,6.20813559 0.541355932,8.17694915 C0.541355932,10.8611525 1.99410169,13.2112542 4.15383051,14.4861017 L4.65172881,14.7551186 C5.6220339,15.2307797 6.7119322,15.4989831 7.86338983,15.4989831 C9.01484746,15.4989831 10.1047458,15.2307797 11.0750508,14.7551186 L11.5729492,14.4861017 C13.732678,13.2112542 15.1854237,10.8611525 15.1854237,8.17694915 C15.1854237,6.20813559 14.4027797,4.41938983 13.1338983,3.10223729 L12.7444746,2.72501695 Z M7.86338983,14.9566102 C4.12508475,14.9566102 1.08372881,11.9152542 1.08372881,8.17694915 C1.08372881,4.43864407 4.12508475,1.39728814 7.86338983,1.39728814 C11.6016949,1.39728814 14.6430508,4.43864407 14.6430508,8.17694915 C14.6430508,11.9152542 11.6019661,14.9566102 7.86338983,14.9566102 Z" id="Shape"></path>
                    <path d="M7.86338983,2.72040678 C8.01308475,2.72040678 8.13457627,2.59918644 8.13457627,2.44922034 L8.13457627,2.1780339 C8.13457627,2.0280678 8.01308475,1.90684746 7.86338983,1.90684746 C7.71369492,1.90684746 7.59220339,2.0280678 7.59220339,2.1780339 L7.59220339,2.44922034 C7.59220339,2.59891525 7.71369492,2.72040678 7.86338983,2.72040678 Z" id="Path"></path>
                    <path d="M7.86338983,13.5678644 C7.71369492,13.5678644 7.59220339,13.6890847 7.59220339,13.8390508 L7.59220339,14.1102373 C7.59220339,14.2602034 7.71369492,14.3814237 7.86338983,14.3814237 C8.01308475,14.3814237 8.13457627,14.2602034 8.13457627,14.1102373 L8.13457627,13.8390508 C8.13457627,13.6890847 8.01335593,13.5678644 7.86338983,13.5678644 Z" id="Path"></path>
                    <path d="M13.5583051,8.41532203 L13.8294915,8.41532203 C13.9791864,8.41532203 14.100678,8.29410169 14.100678,8.14413559 C14.100678,7.99416949 13.9791864,7.87294915 13.8294915,7.87294915 L13.5583051,7.87294915 C13.4086102,7.87294915 13.2871186,7.99416949 13.2871186,8.14413559 C13.2871186,8.29410169 13.4086102,8.41532203 13.5583051,8.41532203 Z" id="Path"></path>
                    <path d="M2.16847458,7.87294915 L1.89728814,7.87294915 C1.74759322,7.87294915 1.62610169,7.99416949 1.62610169,8.14413559 C1.62610169,8.29410169 1.74759322,8.41532203 1.89728814,8.41532203 L2.16847458,8.41532203 C2.31816949,8.41532203 2.43966102,8.29410169 2.43966102,8.14413559 C2.43966102,7.99416949 2.31844068,7.87294915 2.16847458,7.87294915 Z" id="Path"></path>
                    <path d="M11.8905085,3.73355932 L11.6987797,3.92528814 C11.5927458,4.03132203 11.5927458,4.20271186 11.6987797,4.30874576 C11.751661,4.36162712 11.8210847,4.38820339 11.8905085,4.38820339 C11.9599322,4.38820339 12.0293559,4.36162712 12.0822373,4.30874576 L12.2739661,4.11701695 C12.38,4.01098305 12.38,3.83959322 12.2739661,3.73355932 C12.1679322,3.62752542 11.9962712,3.62752542 11.8905085,3.73355932 Z" id="Path"></path>
                    <path d="M3.64481356,11.9792542 L3.45308475,12.1709831 C3.34705085,12.2770169 3.34705085,12.4484068 3.45308475,12.5544407 C3.5059661,12.607322 3.57538983,12.6338983 3.64481356,12.6338983 C3.71423729,12.6338983 3.78366102,12.607322 3.83654237,12.5544407 L4.02827119,12.3627119 C4.13430508,12.256678 4.13430508,12.0852881 4.02827119,11.9792542 C3.92223729,11.8732203 3.75084746,11.8734915 3.64481356,11.9792542 Z" id="Path"></path>
                    <path d="M12.0822373,11.9792542 C11.9762034,11.8732203 11.8048136,11.8732203 11.6987797,11.9792542 C11.5927458,12.0852881 11.5927458,12.256678 11.6987797,12.3627119 L11.8905085,12.5544407 C11.9433898,12.607322 12.0128136,12.6338983 12.0822373,12.6338983 C12.151661,12.6338983 12.2210847,12.607322 12.2739661,12.5544407 C12.38,12.4484068 12.38,12.2770169 12.2739661,12.1709831 L12.0822373,11.9792542 Z" id="Path"></path>
                    <path d="M3.83654237,3.73355932 C3.73050847,3.62752542 3.55911864,3.62752542 3.45308475,3.73355932 C3.34705085,3.83959322 3.34705085,4.01098305 3.45308475,4.11701695 L3.64481356,4.30874576 C3.69769492,4.36162712 3.76711864,4.38820339 3.83654237,4.38820339 C3.9059661,4.38820339 3.97538983,4.36162712 4.02827119,4.30874576 C4.13430508,4.20271186 4.13430508,4.03132203 4.02827119,3.92528814 L3.83654237,3.73355932 Z" id="Path"></path>
                </g>
            </g>
        </g>
    </g>
</svg>