<?xml version="1.0" encoding="UTF-8"?>
<svg width="100px" height="100px" viewBox="0 0 100 100" version="1.1" xmlns="http://www.w3.org/2000/svg" xmlns:xlink="http://www.w3.org/1999/xlink">
    <!-- Generator: Sketch 61 (89581) - https://sketch.com -->
    <title>ic_degital_video_editing</title>
    <desc>Created with Sketch.</desc>
    <g id="Assets" stroke="none" stroke-width="1" fill="none" fill-rule="evenodd">
        <g id="Artboard" transform="translate(0.000000, -392.000000)" fill="#E9D5A7" fill-rule="nonzero">
            <g id="ic_degital_video_editing" transform="translate(0.000000, 392.000000)">
                <path d="M80.078125,35.9375 C79.5646668,35.9375 79.0603637,36.1465453 78.6972047,36.5097047 C78.3340453,36.8728637 78.125,37.3771668 78.125,37.890625 C78.125,38.4040832 78.3340453,38.9083863 78.6972047,39.2715453 C79.0603637,39.6347047 79.5646668,39.84375 80.078125,39.84375 C80.5915832,39.84375 81.0958863,39.6347047 81.4590453,39.2715453 C81.8222047,38.9083863 82.03125,38.4040832 82.03125,37.890625 C82.03125,37.3771668 81.8222047,36.8728637 81.4590453,36.5097047 C81.0958863,36.1465453 80.5915832,35.9375 80.078125,35.9375 Z" id="Path"></path>
                <path d="M24.1645812,42.8932189 C24.7306824,43.2029725 25.3540039,43.3563232 25.9765625,43.3563232 C26.6860961,43.3563232 27.394867,43.1564332 28.0143738,42.7597047 L41.0110473,34.4291687 C42.0997619,33.7310791 42.7490234,32.5424195 42.7490234,31.25 C42.7490234,29.9575805 42.0997619,28.7689209 41.0110473,28.0708312 L28.0143738,19.7402953 C26.8516541,18.9956664 25.3768922,18.9437867 24.1653441,19.6067811 C22.9530334,20.2690125 22.2007752,21.5385437 22.2007752,22.9194641 L22.2007752,39.5805359 C22.2007752,40.9614562 22.9530334,42.2309875 24.1645812,42.8932189 Z M26.1070252,23.1575012 L38.7321473,31.25 L26.1070252,39.3424988 L26.1070252,23.1575012 Z" id="Shape"></path>
                <path d="M93.5722352,82.5752258 L82.0243836,71.0266113 C82.0274354,70.979309 82.03125,70.9312439 82.03125,70.8824158 L82.03125,51.914215 C82.157135,51.9393922 82.2883605,51.953125 82.421875,51.953125 L85.1196289,51.953125 C86.1984254,51.953125 87.0727539,51.0787965 87.0727539,50 C87.0727539,48.9212035 86.1984254,48.046875 85.1196289,48.046875 L82.421875,48.046875 C82.2883605,48.046875 82.157135,48.0606078 82.03125,48.085785 L82.03125,44.8852539 C82.03125,43.8064574 81.1569215,42.9321289 80.078125,42.9321289 C78.9993285,42.9321289 78.125,43.8064574 78.125,44.8852539 L78.125,67.1279906 L63.6192322,52.6222229 C61.7767334,50.7797242 58.7783812,50.7797242 56.9358826,52.6222229 L52.6222229,56.9358826 C51.7295838,57.8285217 51.2382508,59.0156555 51.2382508,60.2775574 C51.2382508,61.5402223 51.7295838,62.726593 52.6222229,63.6192322 L61.2251281,72.2221375 C61.2251281,72.2229004 61.225891,72.2229004 61.2266541,72.2236633 C61.2266541,72.2244262 61.227417,72.2244262 61.2281799,72.2251893 L78.125,89.1220094 L78.125,91.796875 C78.125,94.1665648 76.1978148,96.09375 73.828125,96.09375 L8.203125,96.09375 C5.83343516,96.09375 3.90625,94.1665648 3.90625,91.796875 L3.90625,8.203125 C3.90625,5.83343516 5.83343516,3.90625 8.203125,3.90625 L57.8125,3.90625 L57.8125,16.040802 C57.8125,20.563507 61.492157,24.243927 66.015625,24.243927 L78.125,24.243927 L78.125,29.7851563 C78.125,30.8639527 78.9993285,31.7382813 80.078125,31.7382813 C81.1569215,31.7382813 82.03125,30.8639527 82.03125,29.7851563 L82.03125,22.290802 C82.03125,21.772766 81.8260193,21.2760926 81.4598084,20.9098816 L61.1473084,0.572967578 C60.7810975,0.20599375 60.2836609,0 59.765625,0 L8.203125,0 C3.67965703,0 -4.97379915e-14,3.67965703 -4.97379915e-14,8.203125 L-4.97379915e-14,91.796875 C-4.97379915e-14,96.320343 3.67965703,100 8.203125,100 L73.828125,100 C77.960968,100 81.388092,96.9268799 81.9488525,92.9466248 L87.6190186,98.6160277 C88.5398865,99.5376586 89.7499084,99.9977111 90.9606934,99.9977111 C92.1707152,99.9977111 93.3807373,99.5376586 94.3023682,98.6160277 L98.6152648,94.3023682 C99.5079041,93.4097289 99.9992371,92.2233582 99.9992371,90.9606934 C99.9992371,89.6980285 99.5079041,88.5116578 98.6152648,87.6190186 L93.5722352,82.5752258 Z M61.71875,16.040802 L61.71875,6.67266836 L75.3669738,20.337677 L66.015625,20.337677 C63.6459352,20.337677 61.71875,18.4097289 61.71875,16.040802 Z M55.1445008,60.2775574 C55.1445008,60.1509094 55.1750184,59.9067687 55.3840637,59.6977234 L59.6977234,55.3848266 C59.9067687,55.1757812 60.1501465,55.1445008 60.2775574,55.1445008 C60.4042053,55.1445008 60.6483459,55.1757812 60.8566285,55.3848266 L68.0801391,62.6075744 L62.6075744,68.0801391 L55.3840637,60.8573914 C55.1750184,60.6483459 55.1445008,60.4042053 55.1445008,60.2775574 L55.1445008,60.2775574 Z M95.853424,91.5405273 L91.5405273,95.8541871 C91.2208557,96.1730957 90.7005311,96.1738586 90.3808594,95.8541871 L65.3694152,70.842743 L70.842743,65.3701781 L95.853424,90.3816223 C96.0624695,90.5899047 96.09375,90.8340453 96.09375,90.9606934 C96.09375,91.0873414 96.0624695,91.331482 95.853424,91.5405273 L95.853424,91.5405273 Z" id="Shape"></path>
                <path d="M51.953125,50 L51.953125,12.5 C51.953125,11.4212035 51.0787965,10.546875 50,10.546875 L12.5,10.546875 C11.4212035,10.546875 10.546875,11.4212035 10.546875,12.5 L10.546875,50 C10.546875,51.0787965 11.4212035,51.953125 12.5,51.953125 L50,51.953125 C51.0787965,51.953125 51.953125,51.0787965 51.953125,50 Z M48.046875,48.046875 L14.453125,48.046875 L14.453125,14.453125 L48.046875,14.453125 L48.046875,48.046875 Z" id="Shape"></path>
                <path d="M10.546875,67.3324586 L10.546875,86.3754273 C10.546875,87.4542236 11.4212035,88.3285523 12.5,88.3285523 C13.5787965,88.3285523 14.453125,87.4542236 14.453125,86.3754273 L14.453125,67.3324586 C14.453125,66.254425 13.5787965,65.3793336 12.5,65.3793336 C11.4212035,65.3793336 10.546875,66.254425 10.546875,67.3324586 Z" id="Path"></path>
                <path d="M13.8809203,57.9551697 C13.5177613,57.5897217 13.0134582,57.382965 12.5,57.382965 C11.9865418,57.382965 11.4822387,57.5897217 11.1190797,57.9551697 C10.7559203,58.3183289 10.546875,58.820343 10.546875,59.33609 C10.546875,59.8495484 10.7559203,60.3538514 11.1190797,60.7170105 C11.4822387,61.0801697 11.9865418,61.289215 12.5,61.289215 C13.0134582,61.289215 13.5177613,61.0801697 13.8809203,60.7170105 C14.2440797,60.3538514 14.453125,59.8495484 14.453125,59.33609 C14.453125,58.820343 14.2440797,58.3183289 13.8809203,57.9551697 Z" id="Path"></path>
                <path d="M41.5245057,74.1294861 C41.5245057,73.0506896 40.650177,72.1763611 39.5713807,72.1763611 C38.4925842,72.1763611 37.6182557,73.0506896 37.6182557,74.1294861 L37.6182557,76.82724 C37.6182557,77.9060363 38.4925842,78.780365 39.5713807,78.780365 C40.650177,78.780365 41.5245057,77.9060363 41.5245057,76.82724 L41.5245057,74.1294861 Z" id="Path"></path>
                <path d="M39.5713807,85.1036072 C38.4925842,85.1036072 37.6182557,85.9779357 37.6182557,87.0567322 L37.6182557,89.753723 C37.6182557,90.8325195 38.4925842,91.706848 39.5713807,91.706848 C40.650177,91.706848 41.5245057,90.8325195 41.5245057,89.753723 L41.5245057,87.0567322 C41.5245057,85.9779357 40.650177,85.1036072 39.5713807,85.1036072 Z" id="Path"></path>
                <path d="M44.6861268,79.9888611 C43.6073303,79.9888611 42.7330018,80.8631896 42.7330018,81.9419861 C42.7330018,83.0207824 43.6073303,83.8951111 44.6861268,83.8951111 L47.3838807,83.8951111 C48.462677,83.8951111 49.3370057,83.0207824 49.3370057,81.9419861 C49.3370057,80.8631896 48.462677,79.9888611 47.3838807,79.9888611 L44.6861268,79.9888611 Z" id="Path"></path>
                <path d="M31.7588807,79.9888611 C30.6800842,79.9888611 29.8057557,80.8631896 29.8057557,81.9419861 C29.8057557,83.0207824 30.6800842,83.8951111 31.7588807,83.8951111 L34.4558715,83.8951111 C35.534668,83.8951111 36.4089965,83.0207824 36.4089965,81.9419861 C36.4089965,80.8631896 35.534668,79.9888611 34.4558715,79.9888611 L31.7588807,79.9888611 Z" id="Path"></path>
                <path d="M90.234375,46.8383789 C91.3131715,46.8383789 92.1875,45.9640504 92.1875,44.8852539 L92.1875,42.1875 C92.1875,41.1087035 91.3131715,40.234375 90.234375,40.234375 C89.1555785,40.234375 88.28125,41.1087035 88.28125,42.1875 L88.28125,44.8852539 C88.28125,45.9640504 89.1555785,46.8383789 90.234375,46.8383789 Z" id="Path"></path>
                <path d="M90.234375,59.765625 C91.3131715,59.765625 92.1875,58.8912965 92.1875,57.8125 L92.1875,55.1147461 C92.1875,54.0359496 91.3131715,53.1616211 90.234375,53.1616211 C89.1555785,53.1616211 88.28125,54.0359496 88.28125,55.1147461 L88.28125,57.8125 C88.28125,58.8912965 89.1555785,59.765625 90.234375,59.765625 Z" id="Path"></path>
                <path d="M95.3491211,51.953125 L98.046875,51.953125 C99.1256715,51.953125 100,51.0787965 100,50 C100,48.9212035 99.1256715,48.046875 98.046875,48.046875 L95.3491211,48.046875 C94.2703246,48.046875 93.3959961,48.9212035 93.3959961,50 C93.3959961,51.0787965 94.2703246,51.953125 95.3491211,51.953125 Z" id="Path"></path>
            </g>
        </g>
    </g>
</svg>