<?xml version="1.0" encoding="UTF-8"?>
<svg width="24px" height="24px" viewBox="0 0 24 24" version="1.1" xmlns="http://www.w3.org/2000/svg" xmlns:xlink="http://www.w3.org/1999/xlink">
    <!-- Generator: Sketch 61 (89581) - https://sketch.com -->
    <title>ic_email</title>
    <desc>Created with Sketch.</desc>
    <g id="Assets" stroke="none" stroke-width="1" fill="none" fill-rule="evenodd">
        <g id="Artboard" transform="translate(-120.000000, -64.000000)" fill="#EFA91F" fill-rule="nonzero">
            <g id="ic_email" transform="translate(124.000000, 70.000000)">
                <path d="M1.5345625,3.99706452 C1.7368125,4.1443871 2.34646875,4.58193548 3.3635625,5.30948387 C4.3806875,6.03703226 5.159875,6.59722581 5.70115625,6.99009677 C5.760625,7.03316129 5.88696875,7.12677419 6.08025,7.27106452 C6.2735625,7.41545161 6.4341875,7.53212903 6.562,7.62112903 C6.68990625,7.71009677 6.84453125,7.80990323 7.02603125,7.9203871 C7.20746875,8.03077419 7.3785,8.11380645 7.53909375,8.16877419 C7.69971875,8.22419355 7.84840625,8.25164516 7.9851875,8.25164516 L7.99415625,8.25164516 L8.00315625,8.25164516 C8.1399375,8.25164516 8.2886875,8.22416129 8.4493125,8.16877419 C8.60984375,8.11380645 8.78103125,8.03067742 8.9623125,7.9203871 C9.1436875,7.80977419 9.2983125,7.71006452 9.42621875,7.62112903 C9.554125,7.53212903 9.714625,7.41545161 9.908,7.27106452 C10.10125,7.12664516 10.22775,7.03316129 10.2872187,6.99009677 C10.8343437,6.59722581 12.2263125,5.59945161 14.4626875,3.99687097 C14.896875,3.68387097 15.259625,3.30619355 15.5510312,2.86409677 C15.8426562,2.42219355 15.9883125,1.9586129 15.9883125,1.4736129 C15.9883125,1.06832258 15.8469687,0.721387097 15.5644062,0.43283871 C15.281875,0.144225806 14.94725,-1.25233157e-13 14.56075,-1.25233157e-13 L1.42746875,-1.25233157e-13 C0.9695,-1.25233157e-13 0.6170625,0.159612903 0.37021875,0.47883871 C0.12340625,0.798129032 -5.32907052e-14,1.19722581 -5.32907052e-14,1.67609677 C-5.32907052e-14,2.06290323 0.163625,2.48206452 0.49071875,2.93332258 C0.81778125,3.3846129 1.16584375,3.73922581 1.5345625,3.99706452 Z" id="Path"></path>
                <path d="M15.096,4.98241935 C13.14525,6.34535484 11.664,7.40458065 10.6529688,8.15987097 C10.3139375,8.41764516 10.0389063,8.61887097 9.8276875,8.76306452 C9.61646875,8.90735484 9.3355625,9.05470968 8.9845625,9.20506452 C8.6336875,9.35564516 8.3066875,9.43070968 8.00328125,9.43070968 L7.9941875,9.43070968 L7.98521875,9.43070968 C7.681875,9.43070968 7.3546875,9.35564516 7.0038125,9.20506452 C6.6529375,9.05470968 6.37184375,8.90735484 6.1606875,8.76306452 C5.94959375,8.61887097 5.67446875,8.41764516 5.33546875,8.15987097 C4.5324375,7.55206452 3.054375,6.49277419 0.90121875,4.98241935 C0.56209375,4.74925806 0.26171875,4.482 5.32907052e-15,4.18119355 L5.32907052e-15,11.4936129 C5.32907052e-15,11.8990968 0.13971875,12.2458387 0.4193125,12.5344194 C0.69884375,12.8230968 1.03496875,12.9673871 1.4275625,12.9673871 L14.560875,12.9673871 C14.953375,12.9673871 15.2894688,12.8230968 15.5690313,12.5344194 C15.8486875,12.2457419 15.9883438,11.899129 15.9883438,11.4936129 L15.9883438,4.18119355 C15.7325313,4.47577419 15.4352188,4.74303226 15.096,4.98241935 Z" id="Path"></path>
            </g>
        </g>
    </g>
</svg>