<?xml version="1.0" encoding="UTF-8"?>
<svg width="24px" height="16px" viewBox="0 0 24 16" version="1.1" xmlns="http://www.w3.org/2000/svg" xmlns:xlink="http://www.w3.org/1999/xlink">
    <!-- Generator: Sketch 61 (89581) - https://sketch.com -->
    <title>ic_hidden_password</title>
    <desc>Created with Sketch.</desc>
    <g id="Assets" stroke="none" stroke-width="1" fill="none" fill-rule="evenodd" opacity="0.11">
        <g id="Artboard" transform="translate(-72.000000, -96.000000)">
            <g id="ic_hidden_password" transform="translate(75.000000, 96.000000)">
                <path d="M9.01816783,2 C5.05160835,2 1.63295883,4.3842623 0.0625408209,7.82491803 C0.0143093097,7.92918033 0.0143093097,8.05114754 0.0625408209,8.15737705 C1.63295883,11.5980131 5.05162764,13.9822951 9.01816783,13.9822951 C12.984708,13.9822951 16.4033768,11.5980328 17.9737948,8.15737705 C18.0220264,8.05311475 18.0220264,7.93114754 17.9737948,7.82491803 C16.4033768,4.3842623 12.9847273,2 9.01816783,2 Z M9.01816783,12.1252656 C6.77829645,12.1252656 4.96479162,10.2740984 4.96479162,7.99213115 C4.96479162,5.70819672 6.78022571,3.85901639 9.01816783,3.85901639 C11.2580392,3.85901639 13.071544,5.71016393 13.071544,7.99213115 C13.071544,10.2740984 11.25611,12.1252656 9.01816783,12.1252656 Z" id="Shape" fill="#000000" fill-rule="nonzero"></path>
                <ellipse id="Oval" fill="#000000" fill-rule="nonzero" cx="9.01816783" cy="7.99016393" rx="2.59485531" ry="2.64590164"></ellipse>
                <g id="Group-3" transform="translate(9.000000, 7.998095) rotate(-45.000000) translate(-9.000000, -7.998095) translate(0.000000, 6.498095)" stroke-linecap="square">
                    <line x1="0" y1="1" x2="17.9836013" y2="1" id="Line" stroke="#F9F9F9"></line>
                    <line x1="0" y1="2" x2="17.9836013" y2="2" id="Line-Copy" stroke="#000000"></line>
                </g>
            </g>
        </g>
    </g>
</svg>