<?xml version="1.0" encoding="UTF-8"?>
<svg width="24px" height="24px" viewBox="0 0 24 24" version="1.1" xmlns="http://www.w3.org/2000/svg" xmlns:xlink="http://www.w3.org/1999/xlink">
    <!-- Generator: Sketch 61 (89581) - https://sketch.com -->
    <title>ic_help</title>
    <desc>Created with Sketch.</desc>
    <g id="Assets" stroke="none" stroke-width="1" fill="none" fill-rule="evenodd">
        <g id="Artboard" transform="translate(-240.000000, -64.000000)">
            <g id="ic_help" transform="translate(243.000000, 67.000000)">
                <g id="Group">
                    <circle id="Oval-3" stroke="#979797" stroke-width="1.4" cx="9" cy="9" r="8.3"></circle>
                    <path d="M8.12810742,11.3711787 L8.12810742,10.8391787 C8.12810742,10.6151776 8.14444059,10.4145129 8.17710742,10.2371787 C8.20977425,10.0598445 8.26110707,9.89184617 8.33110742,9.73317871 C8.40110777,9.57451125 8.49444017,9.42051279 8.61110742,9.27117871 C8.72777467,9.12184463 8.8747732,8.96317955 9.05210742,8.79517871 L9.68210742,8.19317871 C9.85944164,8.03451125 10.0111068,7.85717969 10.1371074,7.66117871 C10.2631081,7.46517773 10.3261074,7.22718011 10.3261074,6.94717871 C10.3261074,6.58317689 10.2117752,6.27751328 9.98310742,6.03017871 C9.75443961,5.78284414 9.43010952,5.65917871 9.01010742,5.65917871 C8.79543968,5.65917871 8.60177495,5.69884498 8.42910742,5.77817871 C8.25643989,5.85751244 8.10710805,5.9648447 7.98110742,6.10017871 C7.85510679,6.23551272 7.75944108,6.39184449 7.69410742,6.56917871 C7.62877376,6.74651293 7.5914408,6.92851111 7.58210742,7.11517871 L5.86010742,6.96117871 C5.9161077,6.51317647 6.03510651,6.11418046 6.21710742,5.76417871 C6.39910833,5.41417696 6.63477264,5.11784659 6.92410742,4.87517871 C7.2134422,4.63251083 7.54477222,4.44817934 7.91810742,4.32217871 C8.29144262,4.19617808 8.69277194,4.13317871 9.12210742,4.13317871 C9.52344276,4.13317871 9.90377229,4.19151146 10.2631074,4.30817871 C10.6224426,4.42484596 10.9397727,4.5975109 11.2151074,4.82617871 C11.4904421,5.05484652 11.70744,5.33717703 11.8661074,5.67317871 C12.0247749,6.00918039 12.1041074,6.39650985 12.1041074,6.83517871 C12.1041074,7.13384687 12.0714411,7.39517759 12.0061074,7.61917871 C11.9407738,7.84317983 11.8474414,8.04851111 11.7261074,8.23517871 C11.6047735,8.42184631 11.457775,8.60151118 11.2851074,8.77417871 C11.1124399,8.94684624 10.9187752,9.12651111 10.7041074,9.31317871 C10.5174398,9.47184617 10.3657747,9.61184477 10.2491074,9.73317871 C10.1324402,9.85451265 10.0391078,9.97584477 9.96910742,10.0971787 C9.89910707,10.2185127 9.85010756,10.349178 9.82210742,10.4891787 C9.79410728,10.6291794 9.78010742,10.8018444 9.78010742,11.0071787 L9.78010742,11.3711787 L8.12810742,11.3711787 Z M7.84810742,13.3171787 C7.84810742,13.0185106 7.95777299,12.7618465 8.17710742,12.5471787 C8.39644185,12.332511 8.66010588,12.2251787 8.96810742,12.2251787 C9.26677558,12.2251787 9.5281063,12.3278444 9.75210742,12.5331787 C9.97610854,12.7385131 10.0881074,12.9905106 10.0881074,13.2891787 C10.0881074,13.5878469 9.97844185,13.844511 9.75910742,14.0591787 C9.53977299,14.2738465 9.27610896,14.3811787 8.96810742,14.3811787 C8.81877334,14.3811787 8.67644143,14.353179 8.54110742,14.2971787 C8.40577341,14.2411784 8.2867746,14.1665125 8.18410742,14.0731787 C8.08144024,13.9798449 7.99977439,13.867846 7.93910742,13.7371787 C7.87844045,13.6065114 7.84810742,13.4665128 7.84810742,13.3171787 Z" id="?" fill="#979797" fill-rule="nonzero"></path>
                </g>
            </g>
        </g>
    </g>
</svg>