<?xml version="1.0" encoding="UTF-8"?>
<svg width="64px" height="64px" viewBox="0 0 64 64" version="1.1" xmlns="http://www.w3.org/2000/svg" xmlns:xlink="http://www.w3.org/1999/xlink">
    <!-- Generator: Sketch 61 (89581) - https://sketch.com -->
    <title>ic_Individual</title>
    <desc>Created with Sketch.</desc>
    <g id="Assets" stroke="none" stroke-width="1" fill="none" fill-rule="evenodd">
        <g id="Artboard" transform="translate(-512.000000, -192.000000)">
            <g id="ic_Individual" transform="translate(517.000000, 192.000000)">
                <path d="M13.9159609,34.6689452 C12.0624433,39.9524409 10.8425723,44.6430334 10.2563477,48.7407227 C9.67012304,52.8384119 9.67012304,56.6746749 10.2563477,60.2495118 L43.9492188,60.2495118 C46.2595939,59.9953913 47.8847566,59.3147272 48.824707,58.2075195 C49.7646574,57.1003119 50.2548511,55.3339137 50.2952881,52.9083252 C50.2579457,46.5358225 49.4663197,41.9517974 47.9204102,39.15625 C46.3745006,36.3607026 43.726235,34.8649344 39.9756133,34.6689452 C35.1957536,37.6604817 30.7171102,39.15625 26.5396831,39.15625 C22.362256,39.15625 18.1543486,37.6604817 13.9159609,34.6689452 Z" id="Path-4" fill="#EFA91F"></path>
                <circle id="Oval" fill="#EFA91F" cx="30.5" cy="15.5" r="10.5"></circle>
                <path d="M26.5396831,30.8291015 C30.8146174,30.8291015 34.5158805,29.3100586 37.5409609,26.3129882 C40.5650555,23.3164062 42.098788,19.6499024 42.098788,15.4140625 C42.098788,11.1796875 40.5655483,7.51269525 37.5404681,4.51513675 C34.5153877,1.519043 30.8141246,-1.0658141e-14 26.5396831,-1.0658141e-14 C22.264256,-1.0658141e-14 18.5634856,1.519043 15.5388982,4.515625 C12.5143107,7.512207 10.9805783,11.1791992 10.9805783,15.4140625 C10.9805783,19.6499024 12.5143107,23.3168945 15.5388982,26.3134765 C18.5644714,29.3095702 22.2657345,30.8291015 26.5396831,30.8291015 Z M18.2160302,7.1674805 C20.5368356,4.868164 23.2593092,3.75048825 26.5396831,3.75048825 C29.8195641,3.75048825 32.5425307,4.868164 34.8638289,7.1674805 C37.1846342,9.46728512 38.3132484,12.165039 38.3132484,15.4140625 C38.3132484,18.6640625 37.1846342,21.3613281 34.8638289,23.6611327 C32.5425307,25.9609375 29.8195641,27.0786132 26.5396831,27.0786132 C23.260295,27.0786132 20.5378213,25.9604492 18.2160302,23.6611327 C15.8947321,21.3618164 14.7661178,18.6640625 14.7661178,15.4140625 C14.7661178,12.165039 15.8947321,9.46728512 18.2160302,7.1674805 Z" id="Shape" fill="#000000" fill-rule="nonzero"></path>
                <path d="M53.7639274,49.2128906 C53.6766939,47.9658202 53.5002555,46.6054687 53.2405265,45.1689452 C52.9783331,43.7216797 52.6407345,42.3535156 52.236602,41.1030274 C51.8186697,39.8105469 51.2514056,38.5341797 50.549102,37.3110351 C49.8211704,36.0415039 48.9655921,34.9360351 48.0055308,34.0263672 C47.0016063,33.074707 45.7724517,32.3095702 44.351088,31.7514649 C42.9346525,31.196289 41.3649424,30.915039 39.6858207,30.915039 C39.0263945,30.915039 38.3886536,31.1831055 37.1570349,31.977539 C36.3990399,32.4672851 35.5124124,33.0336914 34.5227804,33.6601562 C33.6765662,34.194336 32.5302095,34.6948242 31.1142669,35.1479492 C29.7328234,35.5908202 28.3301877,35.8154297 26.9452942,35.8154297 C25.5613865,35.8154297 24.1587508,35.5908202 22.7763216,35.1479492 C21.3618575,34.6953125 20.215008,34.1948242 19.3702724,33.6606445 C18.3900043,33.040039 17.502884,32.4736327 16.7335536,31.9770507 C15.5029206,31.1826172 14.8651796,30.9145507 14.2057535,30.9145507 C12.526139,30.9145507 10.9569217,31.196289 9.54097915,31.7519531 C8.12060087,32.309082 6.89095363,33.0742187 5.8860434,34.0268555 C4.92598207,34.9370117 4.0704038,36.0419922 3.34296513,37.3110351 C2.6416472,38.5341797 2.07389019,39.8100586 1.65595794,41.1035156 C1.25231816,42.3540039 0.914719626,43.7216797 0.652526285,45.1689452 C0.392304322,46.6035156 0.216358822,47.9643555 0.129125355,49.2143555 C0.0433703271,50.4365235 9.59232693e-14,51.7084961 9.59232693e-14,52.9936524 C9.59232693e-14,56.3344726 1.07193709,59.0390625 3.18574766,61.0336914 C5.2734375,63.0019531 8.03533879,64 11.3950606,64 L42.4994706,64 C45.8582068,64 48.6201081,63.0019531 50.7082907,61.0336914 C52.8225942,59.0405274 53.8945312,56.334961 53.8945312,52.993164 C53.8945312,51.7036132 53.8501752,50.4316406 53.7639274,49.2128906 L53.7639274,49.2128906 Z M48.0981856,58.3164062 C46.7187134,59.6171875 44.8873029,60.2495117 42.4989778,60.2495117 L11.3950606,60.2495117 C9.00624264,60.2495117 7.17483213,59.6171875 5.7958528,58.3168945 C4.44299434,57.0410156 3.78553954,55.2993164 3.78553954,52.9936524 C3.78553954,51.7944336 3.82545993,50.6103515 3.90530082,49.4736327 C3.98317021,48.3583985 4.14235905,47.1333007 4.37843166,45.831543 C4.61154714,44.5458985 4.90823966,43.3393555 5.26111642,42.2470702 C5.59970058,41.199707 6.06149609,40.1625976 6.63418148,39.1635742 C7.18074614,38.2114257 7.80961601,37.3945312 8.50354124,36.7363281 C9.15261758,36.1206055 9.97073966,35.6166992 10.9347438,35.2387695 C11.8262996,34.8891601 12.8282527,34.6977539 13.9159609,34.6689452 C14.048536,34.7387695 14.2846086,34.8720702 14.6670561,35.1191406 C15.4452578,35.621582 16.342235,36.1948242 17.3338384,36.8222656 C18.45161,37.5283202 19.8917019,38.1660156 21.6122225,38.7163086 C23.371185,39.2797851 25.1651394,39.565918 26.945787,39.565918 C28.7264348,39.565918 30.520882,39.2797851 32.2788588,38.7167969 C34.0008579,38.1655274 35.4404571,37.5283202 36.5597072,36.821289 C37.5744743,36.178711 38.4463164,35.6220702 39.2245181,35.1191406 C39.6069655,34.8725586 39.8430381,34.7387695 39.9756133,34.6689452 C41.0638143,34.6977539 42.0657673,34.8891601 42.9578162,35.2387695 C43.9213275,35.6166992 44.7394494,36.1210937 45.3885259,36.7363281 C46.0824511,37.394043 46.7113209,38.2109375 47.2578855,39.1640625 C47.8310638,40.1625976 48.293352,41.2001952 48.6314435,42.246582 C48.9848131,43.340332 49.2819984,44.5463867 49.5146211,45.8310547 C49.7502008,47.1352539 49.9098824,48.3608399 49.9877519,49.4741211 L49.9877519,49.4750976 C50.0680856,50.6074219 50.1084988,51.7910156 50.1089916,52.9936524 C50.1084988,55.2998047 49.451044,57.0410156 48.0981856,58.3164063 L48.0981856,58.3164062 Z" id="Shape" fill="#000000" fill-rule="nonzero"></path>
            </g>
        </g>
    </g>
</svg>