<?xml version="1.0" encoding="UTF-8"?>
<svg width="24px" height="24px" viewBox="0 0 24 24" version="1.1" xmlns="http://www.w3.org/2000/svg" xmlns:xlink="http://www.w3.org/1999/xlink">
    <!-- Generator: Sketch 61 (89581) - https://sketch.com -->
    <title>ic_location</title>
    <desc>Created with Sketch.</desc>
    <g id="Assets" stroke="none" stroke-width="1" fill="none" fill-rule="evenodd">
        <g id="Artboard" transform="translate(-96.000000, -64.000000)" fill="#EFA91F" fill-rule="nonzero">
            <path d="M107.99975,68 C104.691648,68 102,70.6425413 102,73.8906173 C102,74.7378418 102.17663,75.5467496 102.52472,76.2950712 C104.024824,79.5177665 106.900941,82.9202554 107.746897,83.8861962 C107.810277,83.9584084 107.902678,84 107.999917,84 C108.097155,84 108.189556,83.9584084 108.252936,83.8861962 C109.098559,82.9204192 111.974676,79.518094 113.47528,76.2950712 C113.823537,75.5467496 114,74.7378418 114,73.8906173 C113.999666,70.6425413 111.308018,68 107.99975,68 Z M107.99975,76.9502211 C106.281318,76.9502211 104.883122,75.577534 104.883122,73.8904536 C104.883122,72.2032094 106.281318,70.8305224 107.99975,70.8305224 C109.718181,70.8305224 111.116377,72.2032094 111.116377,73.8904536 C111.116544,75.577534 109.718348,76.9502211 107.99975,76.9502211 Z" id="ic_location"></path>
        </g>
    </g>
</svg>