<?xml version="1.0" encoding="UTF-8"?>
<svg width="24px" height="24px" viewBox="0 0 24 24" version="1.1" xmlns="http://www.w3.org/2000/svg" xmlns:xlink="http://www.w3.org/1999/xlink">
    <!-- Generator: Sketch 61 (89581) - https://sketch.com -->
    <title>ic_log_out</title>
    <desc>Created with Sketch.</desc>
    <g id="Assets" stroke="none" stroke-width="1" fill="none" fill-rule="evenodd">
        <g id="Artboard" transform="translate(-264.000000, -64.000000)" fill="#979797" fill-rule="nonzero">
            <g id="ic_log_out" transform="translate(267.000000, 67.000000)">
                <g id="Group" transform="translate(0.442505, 0.014038)">
                    <path d="M11.6250117,13.5 L10.8750234,13.5 C10.667918,13.5 10.5000117,13.6679062 10.5000117,13.8750117 L10.5000117,16.5000234 L1.50001172,16.5000234 L1.50001172,1.50001172 L10.5000117,1.50001172 L10.5000117,4.12502344 C10.5000117,4.33212891 10.667918,4.50003516 10.8750234,4.50003516 L11.6250117,4.50003516 C11.8321172,4.50003516 12.0000234,4.33212891 12.0000234,4.12502344 L12.0000234,1.50001172 C12.0000234,0.671589844 11.3284336,0 10.5000117,0 L1.50001172,0 C0.671589844,0 9.9475983e-14,0.671589844 9.9475983e-14,1.50001172 L9.9475983e-14,16.5000234 C9.9475983e-14,17.3284453 0.671589844,18 1.50001172,18 L10.5000117,18 C11.3284336,18 12.0000234,17.3284453 12.0000234,16.4999883 L12.0000234,13.8749766 C12.0000234,13.6679062 11.8321172,13.5 11.6250117,13.5 Z" id="Path"></path>
                    <path d="M17.8784297,8.72349609 L13.3784297,4.59850781 C13.2685664,4.49852344 13.1092734,4.47106641 12.9741328,4.53185156 C12.8379023,4.59154687 12.7500117,4.72630078 12.7500117,4.87497656 L12.7500117,5.625 C12.7500117,5.73120703 12.7950469,5.83263281 12.8741484,5.90368359 L15.4810195,8.25001172 L4.87501172,8.25001172 C4.66773047,8.25001172 4.5,8.41774219 4.5,8.62502344 L4.5,9.37501172 C4.5,9.58229297 4.66773047,9.75002344 4.87501172,9.75002344 L15.4810195,9.75002344 L12.8741484,12.0963516 C12.7950469,12.1674023 12.7500117,12.2688281 12.7500117,12.3750352 L12.7500117,13.1250234 C12.7500117,13.2736992 12.8379023,13.4084883 12.9741328,13.4681484 C13.0224727,13.4897695 13.0741172,13.5 13.1250234,13.5 C13.216957,13.5 13.3077656,13.4659336 13.3784297,13.4014922 L17.8784297,9.27650391 C17.9560547,9.20545312 18,9.10511719 18,9 C18,8.89488281 17.9560547,8.79454687 17.8784297,8.72349609 Z" id="Path"></path>
                </g>
            </g>
        </g>
    </g>
</svg>