<?xml version="1.0" encoding="UTF-8"?>
<svg width="88px" height="74px" viewBox="0 0 88 74" version="1.1" xmlns="http://www.w3.org/2000/svg" xmlns:xlink="http://www.w3.org/1999/xlink">
    <!-- Generator: Sketch 61 (89581) - https://sketch.com -->
    <title>ic_motion_graphics</title>
    <desc>Created with Sketch.</desc>
    <g id="Assets" stroke="none" stroke-width="1" fill="none" fill-rule="evenodd">
        <g id="Artboard" transform="translate(-368.000000, -192.000000)" fill="#D9ACF9" fill-rule="nonzero">
            <g id="ic_motion_graphics" transform="translate(376.000000, 193.000000)">
                <path d="M6.11353125,13.9549219 C7.49390625,13.9549219 8.74898438,13.4115469 9.67879688,12.5287031 L20.9712656,18.44325 C20.9019375,18.78075 20.8655156,19.1302031 20.8655156,19.4876719 C20.8655156,22.3457344 23.19075,24.6708281 26.0486719,24.6708281 C28.9065938,24.6708281 31.2318281,22.3457344 31.2318281,19.4876719 C31.2318281,19.0584844 31.1783906,18.6416719 31.0796719,18.2424375 L43.0765313,9.47207812 C43.9063594,10.0362656 44.9071875,10.3665937 45.9840938,10.3665937 C47.3069531,10.3665937 48.5150625,9.86779687 49.4319375,9.04907812 L61.2026719,17.343 C60.904125,17.9970469 60.7363594,18.7228125 60.7363594,19.4875312 C60.7363594,22.3455937 63.0615938,24.6708281 65.9195156,24.6708281 C68.7774375,24.6708281 71.1026719,22.3455937 71.1026719,19.4875312 C71.1026719,16.6294687 68.7774375,14.304375 65.9195156,14.304375 C64.9961719,14.304375 64.1290781,14.5482187 63.3772969,14.9731875 L51.0481406,6.28565625 C51.1254844,5.93015625 51.16725,5.56157812 51.16725,5.18315625 C51.1673906,2.32509375 48.8421563,-3.05533376e-13 45.9842344,-3.05533376e-13 C43.1263125,-3.05533376e-13 40.8010781,2.32509375 40.8010781,5.18315625 C40.8010781,5.80542187 40.9114688,6.40251562 41.1135469,6.95573437 L29.388375,15.5273906 C28.4857031,14.7650625 27.3203438,14.3039531 26.0489531,14.3039531 C24.7009219,14.3039531 23.4715781,14.8215937 22.5487969,15.6682969 L11.2066875,9.72815625 C11.2649063,9.4179375 11.2966875,9.09871875 11.2966875,8.77176562 C11.2966875,5.91370312 8.97145313,3.58860937 6.11353125,3.58860937 C3.25560938,3.58860937 0.930375,5.9135625 0.930375,8.771625 C0.930375,11.6298281 3.25560938,13.9549219 6.11353125,13.9549219 Z M65.919375,17.4938906 C67.0186406,17.4938906 67.912875,18.3882656 67.912875,19.4873906 C67.912875,20.5866562 67.0186406,21.4808906 65.919375,21.4808906 C64.8201094,21.4808906 63.925875,20.5866562 63.925875,19.4873906 C63.925875,18.388125 64.8199688,17.4938906 65.919375,17.4938906 Z M45.9840938,3.18979687 C47.0833594,3.18979687 47.9775938,4.08403125 47.9775938,5.18329687 C47.9775938,6.2825625 47.0833594,7.17679687 45.9840938,7.17679687 C44.8848281,7.17679687 43.9905938,6.2825625 43.9905938,5.18329687 C43.9905938,4.08403125 44.8846875,3.18979687 45.9840938,3.18979687 Z M26.0488125,17.4938906 C27.1480781,17.4938906 28.0423125,18.388125 28.0423125,19.4873906 C28.0423125,20.5866562 27.1480781,21.4808906 26.0488125,21.4808906 C24.9495469,21.4808906 24.0553125,20.5866562 24.0553125,19.4873906 C24.0553125,18.388125 24.9494063,17.4938906 26.0488125,17.4938906 Z M6.11353125,6.778125 C7.21279688,6.778125 8.10703125,7.67235937 8.10703125,8.771625 C8.10703125,9.87089062 7.21279688,10.765125 6.11353125,10.765125 C5.01426563,10.765125 4.12003125,9.87089062 4.12003125,8.771625 C4.12003125,7.67235937 5.014125,6.778125 6.11353125,6.778125 Z" id="Shape"></path>
                <path d="M5.18315625,48.0022031 C8.04107812,48.0022031 10.3663125,45.6771094 10.3663125,42.8190469 C10.3663125,42.7341094 10.3639219,42.6494531 10.3599844,42.5655 L22.372875,38.9221875 C23.3123906,39.8684531 24.6133125,40.4552812 26.0489531,40.4552812 C28.906875,40.4552812 31.2321094,38.1301875 31.2321094,35.272125 C31.2321094,35.0670937 31.2188906,34.8650156 31.1954062,34.6658906 L42.0011719,30.6901406 C42.9526406,31.8322969 44.3847656,32.5607344 45.9842344,32.5607344 C47.3045625,32.5607344 48.5104219,32.0637656 49.4265937,31.248 L61.7587031,40.0228594 C61.5756094,40.5525937 61.4746406,41.1205781 61.4746406,41.7117656 C61.4746406,44.5698281 63.799875,46.8949219 66.6577969,46.8949219 C69.5157187,46.8949219 71.8409531,44.5698281 71.8409531,41.7117656 C71.8409531,38.8537031 69.5157187,36.5286094 66.6577969,36.5286094 C65.5493906,36.5286094 64.5219844,36.8794687 63.6785156,37.4743125 L51.0467344,28.4862656 C51.1249219,28.1287969 51.16725,27.75825 51.16725,27.3777187 C51.16725,24.5196562 48.8420156,22.1945625 45.9840937,22.1945625 C43.1261719,22.1945625 40.8009375,24.5196562 40.8009375,27.3777187 C40.8009375,27.4955625 40.8064219,27.6122812 40.8141562,27.7282969 L29.8565156,31.7600156 C28.9088437,30.7333125 27.5529375,30.0888281 26.0488125,30.0888281 C23.1908906,30.0888281 20.8656562,32.4139219 20.8656562,35.2719844 C20.8656562,35.5291875 20.8850625,35.7818906 20.9214844,36.02925 L9.22317187,39.5773594 C8.27240625,38.3948437 6.81510937,37.6360312 5.18315625,37.6360312 C2.32523437,37.6360312 -2.13162821e-14,39.961125 -2.13162821e-14,42.8191875 C-2.13162821e-14,45.67725 2.32523437,48.0022031 5.18315625,48.0022031 Z M66.6576562,39.7185469 C67.7569219,39.7185469 68.6511562,40.6127812 68.6511562,41.7120469 C68.6511562,42.8113125 67.7569219,43.7055469 66.6576562,43.7055469 C65.5583906,43.7055469 64.6641562,42.8113125 64.6641562,41.7120469 C64.6641562,40.6127812 65.5583906,39.7185469 66.6576562,39.7185469 Z M45.9840937,25.3843594 C47.0833594,25.3843594 47.9775937,26.2785937 47.9775937,27.3778594 C47.9775937,28.477125 47.0833594,29.3713594 45.9840937,29.3713594 C44.8848281,29.3713594 43.9905937,28.477125 43.9905937,27.3778594 C43.9905937,26.2785937 44.8846875,25.3843594 45.9840937,25.3843594 Z M26.0488125,33.278625 C27.1480781,33.278625 28.0423125,34.1728594 28.0423125,35.272125 C28.0423125,36.3713906 27.1480781,37.265625 26.0488125,37.265625 C24.9495469,37.265625 24.0553125,36.3713906 24.0553125,35.272125 C24.0553125,34.1728594 24.9494062,33.278625 26.0488125,33.278625 Z M5.18315625,40.8255469 C6.28242187,40.8255469 7.17665625,41.7197812 7.17665625,42.8190469 C7.17665625,43.9183125 6.28242187,44.8125469 5.18315625,44.8125469 C4.08389062,44.8125469 3.18965625,43.9183125 3.18965625,42.8190469 C3.18965625,41.7197812 4.08389062,40.8255469 5.18315625,40.8255469 Z" id="Shape"></path>
                <path d="M70.5045937,55.8635625 L46.30275,51.8864062 L26.4268125,47.0366719 C26.1149062,46.9604531 25.7876719,46.9802812 25.4871562,47.0933437 L1.96340625,55.9445625 C1.34170312,56.1785625 0.93009375,56.773125 0.93009375,57.4371562 L0.93009375,70.4051719 C0.93009375,71.2857656 1.64404687,72 2.52492187,72 L70.2458437,72 C71.1267187,72 71.840672,71.2859062 71.840672,70.4051719 L71.840672,57.4371562 C71.840672,56.6562656 71.2753594,55.9902656 70.5045937,55.8635625 Z M4.11989062,68.8104844 L4.11989062,65.0393437 L18.3404531,65.0393437 C19.2213281,65.0393437 19.9352812,64.32525 19.9352812,63.4445156 C19.9352812,62.5637812 19.2213281,61.8496875 18.3404531,61.8496875 L4.11989062,61.8496875 L4.11989062,58.5412031 L26.1492187,50.2520625 L45.6059531,54.9995625 C45.6454687,55.0092656 45.6854062,55.0172812 45.7253437,55.02375 L68.6510156,58.791375 L68.6510156,68.8104844 L4.11989062,68.8104844 L4.11989062,68.8104844 Z" id="Shape"></path>
                <path d="M26.0488125,61.8495469 L25.6767188,61.8495469 C24.7958438,61.8495469 24.0818906,62.5636406 24.0818906,63.444375 C24.0818906,64.3249687 24.7958438,65.0392031 25.6767188,65.0392031 L26.0488125,65.0392031 C26.9296875,65.0392031 27.6436406,64.3251094 27.6436406,63.444375 C27.6436406,62.5637812 26.9295469,61.8495469 26.0488125,61.8495469 Z" id="Path"></path>
            </g>
        </g>
    </g>
</svg>