<?xml version="1.0" encoding="UTF-8"?>
<svg width="24px" height="24px" viewBox="0 0 24 24" version="1.1" xmlns="http://www.w3.org/2000/svg" xmlns:xlink="http://www.w3.org/1999/xlink">
    <!-- Generator: Sketch 61 (89581) - https://sketch.com -->
    <title>ic_my_courses</title>
    <desc>Created with Sketch.</desc>
    <g id="Assets" stroke="none" stroke-width="1" fill="none" fill-rule="evenodd">
        <g id="Artboard" transform="translate(-168.000000, -64.000000)" fill="#979797" fill-rule="nonzero">
            <g id="ic_my_courses" transform="translate(173.000000, 67.000000)">
                <g id="Group" transform="translate(0.008498, 0.000000)">
                    <path d="M13.3607158,1.51214698 L11.040007,1.51214698 L11.040007,0.612423447 C11.040007,0.274169729 10.7650667,0 10.4259719,0 C10.0868772,0 9.81193684,0.274169729 9.81193684,0.612423447 L9.81193684,1.51214698 L7.60141053,1.51214698 L7.60141053,0.612423447 C7.60141053,0.274169729 7.32647018,0 6.98737544,0 C6.6482807,0 6.37334035,0.274169729 6.37334035,0.612423447 L6.37334035,1.51214698 L4.16281404,1.51214698 L4.16281404,0.612423447 C4.16281404,0.274169729 3.88787368,0 3.54877895,0 C3.20968421,0 2.93474386,0.274169729 2.93474386,0.612423447 L2.93474386,1.51214698 L0.614035088,1.51214698 C0.274940351,1.51214698 6.65245636e-13,1.7863657 6.65245636e-13,2.12457043 L6.65245636e-13,17.0460122 C6.65245636e-13,17.384217 0.274940351,17.6584357 0.614035088,17.6584357 L13.3607158,17.6584357 C13.6998105,17.6584357 13.9747509,17.384217 13.9747509,17.0460122 L13.9747509,2.12457043 C13.9747509,1.7863657 13.6998105,1.51214698 13.3607158,1.51214698 Z M12.7466807,16.4335888 L1.22807018,16.4335888 L1.22807018,2.73699388 L2.93474386,2.73699388 L2.93474386,3.45181452 C2.93474386,3.79006824 3.20968421,4.06423797 3.54877895,4.06423797 C3.88787368,4.06423797 4.16281404,3.79006824 4.16281404,3.45181452 L4.16281404,2.73699388 L6.37334035,2.73699388 L6.37334035,3.45181452 C6.37334035,3.79006824 6.6482807,4.06423797 6.98737544,4.06423797 C7.32647018,4.06423797 7.60141053,3.79006824 7.60141053,3.45181452 L7.60141053,2.73699388 L9.81193684,2.73699388 L9.81193684,3.45181452 C9.81193684,3.79006824 10.0868772,4.06423797 10.4259719,4.06423797 C10.7650667,4.06423797 11.040007,3.79006824 11.040007,3.45181452 L11.040007,2.73699388 L12.7466807,2.73699388 L12.7466807,16.4335888 Z" id="Shape"></path>
                    <path d="M10.6422385,6.24377046 L3.37206311,6.24377046 C3.03296837,6.24377046 2.75802802,6.51798919 2.75802802,6.85619391 C2.75802802,7.19439864 3.03296837,7.46861736 3.37206311,7.46861736 L10.6422385,7.46861736 C10.9813333,7.46861736 11.2562736,7.19439864 11.2562736,6.85619391 C11.2562736,6.51798919 10.9813333,6.24377046 10.6422385,6.24377046 Z" id="Path"></path>
                    <path d="M10.6422385,9.67334177 L3.37206311,9.67334177 C3.03296837,9.67334177 2.75802802,9.94760948 2.75802802,10.2857652 C2.75802802,10.6239699 3.03296837,10.8981887 3.37206311,10.8981887 L10.6422385,10.8981887 C10.9813333,10.8981887 11.2562736,10.6239699 11.2562736,10.2857652 C11.2562736,9.94756049 10.9813333,9.67334177 10.6422385,9.67334177 Z" id="Path"></path>
                    <path d="M10.6422385,13.1029131 L3.37206311,13.1029131 C3.03296837,13.1029131 2.75802802,13.3771808 2.75802802,13.7153365 C2.75802802,14.0535412 3.03296837,14.32776 3.37206311,14.32776 L10.6422385,14.32776 C10.9813333,14.32776 11.2562736,14.0535412 11.2562736,13.7153365 C11.2562736,13.3771318 10.9813333,13.1029131 10.6422385,13.1029131 Z" id="Path"></path>
                </g>
            </g>
        </g>
    </g>
</svg>