<?xml version="1.0" encoding="UTF-8"?>
<svg width="32px" height="32px" viewBox="0 0 32 32" version="1.1" xmlns="http://www.w3.org/2000/svg" xmlns:xlink="http://www.w3.org/1999/xlink">
    <!-- Generator: Sketch 61 (89581) - https://sketch.com -->
    <title>ic_productions_2</title>
    <desc>Created with Sketch.</desc>
    <g id="Assets" stroke="none" stroke-width="1" fill="none" fill-rule="evenodd">
        <g id="Artboard" transform="translate(-32.000000, -128.000000)" fill="#FFFFFF" fill-rule="nonzero">
            <path d="M59.31375,132.68625 C56.2916875,129.664312 52.27375,128 48,128 C43.72625,128 39.7083125,129.664312 36.68625,132.68625 C33.6643125,135.708313 32,139.72625 32,144 C32,148.27375 33.6643125,152.291687 36.68625,155.31375 C39.7083125,158.335688 43.72625,160 48,160 C52.27375,160 56.2916875,158.335688 59.31375,155.31375 C62.3356875,152.291687 64,148.27375 64,144 C64,139.72625 62.3356875,135.708313 59.31375,132.68625 Z M36.1485,151.67625 C35.2194375,150.182813 34.729375,148.471 34.729375,146.695875 C34.729375,141.486312 38.9676875,137.248063 44.1771875,137.248063 C46.5555,137.248063 48.7310625,138.13175 50.3936875,139.587562 C49.641625,139.333625 48.836625,139.195875 48,139.195875 C47.935375,139.195875 47.8709375,139.196687 47.8066875,139.198313 C42.159875,139.301813 37.5979375,143.926813 37.5979375,149.597938 C37.5979375,151.551187 38.1395,153.380188 39.07975,154.943375 C37.9420625,154.01425 36.9514375,152.911687 36.1485,151.67625 Z M53.625,146.695812 C53.625,149.797438 51.101625,152.320812 48,152.320812 C44.898375,152.320812 42.375,149.797438 42.375,146.695812 C42.375,143.594188 44.898375,141.070812 48,141.070812 C51.101625,141.070812 53.625,143.594188 53.625,146.695812 Z M48,158.125 C47.9265,158.125 47.853375,158.123312 47.780125,158.122187 C43.1795,158.005188 39.472875,154.22625 39.472875,149.597938 C39.472875,148.039 39.89375,146.576687 40.6273125,145.317937 C40.544,145.76475 40.5,146.22525 40.5,146.695812 C40.5,150.831312 43.8645,154.195812 48,154.195812 C52.1355,154.195812 55.5,150.831312 55.5,146.695812 C55.5,146.631188 55.4991875,146.56675 55.4975625,146.5025 C55.3939375,140.348 50.356,135.373 44.1771875,135.373 C39.780125,135.373 35.9605625,137.8925 34.0859375,141.563562 C35.24375,134.932125 41.042125,129.875 48,129.875 C55.7885625,129.875 62.125,136.211437 62.125,144 C62.125,151.788563 55.7885625,158.125 48,158.125 Z" id="Shape"></path>
        </g>
    </g>
</svg>