<?xml version="1.0" encoding="UTF-8"?>
<svg width="24px" height="24px" viewBox="0 0 24 24" version="1.1" xmlns="http://www.w3.org/2000/svg" xmlns:xlink="http://www.w3.org/1999/xlink">
    <!-- Generator: Sketch 61 (89581) - https://sketch.com -->
    <title>ic_purchase_history</title>
    <desc>Created with Sketch.</desc>
    <g id="Assets" stroke="none" stroke-width="1" fill="none" fill-rule="evenodd">
        <g id="Artboard" transform="translate(-192.000000, -64.000000)" fill="#979797" fill-rule="nonzero" stroke="#979797" stroke-width="0.4">
            <g id="ic_purchase_history" transform="translate(195.000000, 67.000000)">
                <g id="Group" transform="translate(0.007080, 0.362541)">
                    <path d="M5.50776509,10.0726262 L16.1050082,10.0726262 L17.980062,3.39414759 L15.2206591,3.39414759 L14.229925,0.340495931 L10.0982055,1.67693001 L10.6632822,3.39414759 L10.4688059,3.39414759 L9.44870799,0.340495931 L5.31695922,1.67693001 L5.88203589,3.39414759 L3.6730571,3.39414759 L3.21439478,1.5634216 C2.9832137,0.6480586 2.18328548,0 1.26226101,0 L2.43360887e-13,0 L2.43360887e-13,0.765229517 L1.26226101,0.765229517 C1.83467863,0.765229517 2.33371615,1.14601302 2.48784666,1.72088009 L4.517031,9.64423006 C4.09871452,9.94446772 3.82351713,10.4350971 3.82351713,10.9953142 C3.82351713,11.9106772 4.59041109,12.6759067 5.50776509,12.6759067 L15.8371517,12.6759067 L15.8371517,11.9106772 L5.50776509,11.9106772 C5.00872757,11.9106772 4.59041109,11.4896061 4.59041109,10.9953142 C4.59044046,10.4936972 5.01239804,10.0726262 5.50776509,10.0726262 L5.50776509,10.0726262 Z M13.7345873,1.29248399 L14.4244307,3.35388931 L11.441217,3.35388931 L11.01923,2.17125122 L13.7345873,1.29248399 Z M8.95334095,1.29248399 L9.64318434,3.35388931 L6.65997064,3.35388931 L6.23798369,2.17125122 L8.95334095,1.29248399 Z M16.9856868,4.11911883 L15.5325905,9.31105914 L5.20320392,9.31105914 L3.86386297,4.11911883 L16.9856868,4.11911883 L16.9856868,4.11911883 Z" id="Shape"></path>
                    <path d="M12.4722969,13.814624 C11.5916476,13.814624 10.8650995,14.5395952 10.8650995,15.4183332 C10.8650995,16.2970711 11.5916476,17.0220423 12.4722969,17.0220423 C13.3896509,17.0220423 14.0794943,16.2970711 14.0794943,15.4183332 C14.0794943,14.5395952 13.3529755,13.814624 12.4722969,13.814624 Z M12.4722969,16.2970711 C11.9732594,16.2970711 11.5916476,15.876 11.5916476,15.4183332 C11.5916476,14.9203787 12.0136346,14.5395952 12.4722969,14.5395952 C12.9713344,14.5395952 13.3529462,14.9203787 13.3529462,15.4183332 C13.3529755,15.9162876 12.9309886,16.2970711 12.4722969,16.2970711 Z" id="Shape"></path>
                    <path d="M6.57924959,13.814624 C5.69860033,13.814624 4.9720522,14.5395952 4.9720522,15.4183332 C4.9720522,16.2970711 5.69860033,17.0220423 6.57924959,17.0220423 C7.45989886,17.0220423 8.18644698,16.2970711 8.18644698,15.4183332 C8.18644698,14.5395952 7.45989886,13.814624 6.57924959,13.814624 Z M6.57924959,16.2970711 C6.08021207,16.2970711 5.69860033,15.876 5.69860033,15.4183332 C5.69860033,14.9203787 6.12058728,14.5395952 6.57924959,14.5395952 C7.03791191,14.5395952 7.45989886,14.9203787 7.45989886,15.4183332 C7.45989886,15.9162876 7.03791191,16.2970711 6.57924959,16.2970711 Z" id="Shape"></path>
                </g>
            </g>
        </g>
    </g>
</svg>