<?xml version="1.0" encoding="UTF-8"?>
<svg width="24px" height="16px" viewBox="0 0 24 16" version="1.1" xmlns="http://www.w3.org/2000/svg" xmlns:xlink="http://www.w3.org/1999/xlink">
    <!-- Generator: Sketch 61 (89581) - https://sketch.com -->
    <title>ic_password_show</title>
    <desc>Created with Sketch.</desc>
    <g id="Assets" stroke="none" stroke-width="1" fill="none" fill-rule="evenodd" opacity="0.11">
        <g id="Artboard" transform="translate(-48.000000, -96.000000)" fill="#000000" fill-rule="nonzero">
            <g id="ic_password_show" transform="translate(51.000000, 98.000000)">
                <path d="M8.99180064,0.0103278689 C5.02524116,0.0103278689 1.60659164,2.39459016 0.0361736334,5.8352459 C-0.0120578778,5.9395082 -0.0120578778,6.06147541 0.0361736334,6.16770492 C1.60659164,9.60834098 5.02526045,11.992623 8.99180064,11.992623 C12.9583408,11.992623 16.3770096,9.60836066 17.9474277,6.16770492 C17.9956592,6.06344262 17.9956592,5.94147541 17.9474277,5.8352459 C16.3770096,2.39459016 12.9583601,0.0103278689 8.99180064,0.0103278689 Z M8.99180064,10.1355934 C6.75192926,10.1355934 4.93842444,8.28442623 4.93842444,6.00245902 C4.93842444,3.71852459 6.75385852,1.86934426 8.99180064,1.86934426 C11.231672,1.86934426 13.0451768,3.7204918 13.0451768,6.00245902 C13.0451768,8.28442623 11.2297428,10.1355934 8.99180064,10.1355934 Z" id="Shape"></path>
                <ellipse id="Oval" cx="8.99180064" cy="6.0004918" rx="2.59485531" ry="2.64590164"></ellipse>
            </g>
        </g>
    </g>
</svg>