<?xml version="1.0" encoding="UTF-8"?>
<svg width="24px" height="24px" viewBox="0 0 24 24" version="1.1" xmlns="http://www.w3.org/2000/svg" xmlns:xlink="http://www.w3.org/1999/xlink">
    <!-- Generator: Sketch 61 (89581) - https://sketch.com -->
    <title>ic_request_quote</title>
    <desc>Created with Sketch.</desc>
    <g id="Assets" stroke="none" stroke-width="1" fill="none" fill-rule="evenodd">
        <g id="Artboard" transform="translate(-1008.000000, -64.000000)" fill="#EFA91F" fill-rule="nonzero">
            <g id="ic_request_quote" transform="translate(1012.000000, 68.000000)">
                <path d="M14.252,3.3333125 C13.7853438,3.3333125 13.3473438,3.51465625 13.0166563,3.8453125 L12.3333125,4.52865625 L14.8046563,7 L15.488,6.31665625 C15.818,5.98665625 16,5.54865625 16,5.08065625 C16,4.11665625 15.2166563,3.3333125 14.252,3.3333125 Z" id="Path"></path>
                <path d="M3,2.66665625 L9,2.66665625 C9.184,2.66665625 9.33334375,2.5173125 9.33334375,2.3333125 L9.33334375,1.66665625 C9.33334375,1.1153125 8.88534375,0.66665625 8.33334375,0.66665625 L7.1506875,0.66665625 C6.91534375,0.26065625 6.47934375,-2.4735769e-13 6,-2.4735769e-13 C5.52065625,-2.4735769e-13 5.08465625,0.26 4.84934375,0.66665625 L3.6666875,0.66665625 C3.11603125,0.66665625 2.6666875,1.1153125 2.6666875,1.66665625 L2.6666875,2.3333125 C2.6666875,2.5173125 2.816,2.66665625 3,2.66665625 Z" id="Path"></path>
                <path d="M6.09734375,13.236 C6.16134375,13.2993438 6.2466875,13.3333438 6.33334375,13.3333438 C6.3606875,13.3333438 6.38734375,13.33 6.414,13.3233438 L8.836,12.718 C8.81,12.6773438 8.79,12.632 8.784,12.5806563 C8.78,12.5506563 8.66865625,11.784 7.85534375,11.1066563 C7.3806875,10.7106563 6.92334375,10.5586563 6.6146875,10.4986563 L6.00934375,12.9186563 C5.98134375,13.0326563 6.01534375,13.1526563 6.09734375,13.236 Z" id="Path"></path>
                <path d="M6.96334375,9.8993125 C7.3386875,10.0013125 7.808,10.1979688 8.28334375,10.5946563 C9.124,11.2953125 9.362,12.0906563 9.4246875,12.3813125 L14.3346875,7.4713125 L11.8626875,4.99996875 L6.96334375,9.8993125 Z" id="Path"></path>
                <path d="M11.7946562,11.244 C11.67,11.192 11.5273125,11.2206562 11.4313125,11.316 L9.70665625,13.04 C9.57865625,13.168 9.4173125,13.2593437 9.242,13.3033437 L6.57534375,13.97 C6.2346875,14.0546562 5.872,13.954 5.626,13.7066562 C5.37865625,13.4593125 5.278,13.096 5.36265625,12.7573125 L6.0293125,10.0906562 C6.07265625,9.9153125 6.16396875,9.75465625 6.29265625,9.626 L11.902,4.01665625 C11.9653437,3.954 12,3.8693125 12,3.78065625 L12,2.33265625 C12,1.7813125 11.5513437,1.33265625 11,1.33265625 L10.3333437,1.33265625 C10.1493437,1.33265625 10,1.482 10,1.666 L10,2.33265625 C10,2.884 9.55134375,3.33265625 9,3.33265625 L3,3.33265625 C2.44865625,3.33265625 2,2.884 2,2.33265625 L2,1.666 C2,1.482 1.85065625,1.33265625 1.66665625,1.33265625 L1,1.33265625 C0.44865625,1.33265625 0,1.7813125 0,2.33265625 L0,14.9993125 C0,15.5506562 0.44865625,15.9993125 1,15.9993125 L11,15.9993125 C11.5513438,15.9993125 12,15.5506562 12,14.9993125 L12,11.5513125 C12,11.4173125 11.9186562,11.2953125 11.7946562,11.244 Z M2.33334375,13.6666562 C1.966,13.6666562 1.6666875,13.3673125 1.6666875,13 C1.6666875,12.6326562 1.96603125,12.3333437 2.33334375,12.3333437 C2.7006875,12.3333437 3,12.6326875 3,13 C3,13.3673125 2.70134375,13.6666562 2.33334375,13.6666562 Z M2.33334375,11 C1.966,11 1.6666875,10.7006562 1.6666875,10.3333437 C1.6666875,9.96603125 1.96603125,9.6666875 2.33334375,9.6666875 C2.7006875,9.6666875 3,9.96603125 3,10.3333437 C3,10.7006562 2.70134375,11 2.33334375,11 Z M2.33334375,8.3333125 C1.966,8.3333125 1.6666875,8.03396875 1.6666875,7.66665625 C1.6666875,7.2993125 1.96603125,7 2.33334375,7 C2.7006875,7 3,7.29934375 3,7.66665625 C3,8.034 2.70134375,8.3333125 2.33334375,8.3333125 Z M2.33334375,5.66665625 C1.966,5.66665625 1.6666875,5.3673125 1.6666875,5 C1.6666875,4.6326875 1.96603125,4.33334375 2.33334375,4.33334375 C2.7006875,4.33334375 3,4.6326875 3,5 C3,5.3673125 2.70134375,5.66665625 2.33334375,5.66665625 Z M4.33334375,4.66665625 L9.6666875,4.66665625 C9.8506875,4.66665625 10.0000312,4.816 10.0000312,5 C10.0000312,5.184 9.8506875,5.33334375 9.6666875,5.33334375 L4.33334375,5.33334375 C4.14934375,5.33334375 4,5.184 4,5 C4,4.816 4.14934375,4.66665625 4.33334375,4.66665625 Z M4.33334375,7.3333125 L7,7.3333125 C7.184,7.3333125 7.33334375,7.48265625 7.33334375,7.66665625 C7.33334375,7.85065625 7.184,8 7,8 L4.33334375,8 C4.14934375,8 4,7.85065625 4,7.66665625 C4,7.48265625 4.14934375,7.3333125 4.33334375,7.3333125 Z M4.66665625,13.3333125 L4.3333125,13.3333125 C4.1493125,13.3333125 3.99996875,13.1839687 3.99996875,12.9999687 C3.99996875,12.8159687 4.1493125,12.666625 4.3333125,12.666625 L4.66665625,12.666625 C4.85065625,12.666625 5,12.8159687 5,12.9999687 C5,13.184 4.85065625,13.3333125 4.66665625,13.3333125 Z M5,10.6666562 L4.33334375,10.6666562 C4.14934375,10.6666562 4,10.5173125 4,10.3333125 C4,10.1493125 4.14934375,9.99996875 4.33334375,9.99996875 L5,9.99996875 C5.184,9.99996875 5.33334375,10.1493125 5.33334375,10.3333125 C5.33334375,10.5173125 5.184,10.6666562 5,10.6666562 Z" id="Shape"></path>
            </g>
        </g>
    </g>
</svg>