<?xml version="1.0" encoding="UTF-8"?>
<svg width="100px" height="100px" viewBox="0 0 100 100" version="1.1" xmlns="http://www.w3.org/2000/svg" xmlns:xlink="http://www.w3.org/1999/xlink">
    <!-- Generator: Sketch 61 (89581) - https://sketch.com -->
    <title>ic_sound_design</title>
    <desc>Created with Sketch.</desc>
    <g id="Assets" stroke="none" stroke-width="1" fill="none" fill-rule="evenodd">
        <g id="Artboard" transform="translate(0.000000, -492.000000)" fill="#99D3F6" fill-rule="nonzero" stroke="#C4E9FF" stroke-width="0.4">
            <g id="ic_sound_design" transform="translate(1.000000, 493.000000)">
                <path d="M49,17.4179688 C40.5769766,17.4179688 32.6495039,20.7065195 26.6780117,26.6780117 C20.7065195,32.6495039 17.4179688,40.5769766 17.4179688,49 C17.4179688,50.5856094 18.7034531,51.8710938 20.2890625,51.8710938 C21.8746719,51.8710938 23.1601562,50.5856094 23.1601562,49 C23.1601562,42.1107148 25.8515195,35.6252969 30.7383125,30.7383125 C35.6252969,25.8515195 42.1107148,23.1601562 49,23.1601562 C50.5856094,23.1601562 51.8710938,21.8746719 51.8710938,20.2890625 C51.8710938,18.7034531 50.5856094,17.4179688 49,17.4179688 Z" id="Path"></path>
                <path d="M77.7109375,46.1289062 C76.1253281,46.1289062 74.8398438,47.4143906 74.8398438,49 C74.8398438,55.8892852 72.1484805,62.3747031 67.2616875,67.2616875 C62.3747031,72.1484805 55.8892852,74.8398438 49,74.8398438 C47.4143906,74.8398438 46.1289062,76.1253281 46.1289062,77.7109375 C46.1289062,79.2965469 47.4143906,80.5820312 49,80.5820312 C57.4230234,80.5820312 65.3504961,77.2934805 71.3219883,71.3219883 C77.2934805,65.3504961 80.5820312,57.4230234 80.5820312,49 C80.5820312,47.4143906 79.2965469,46.1289062 77.7109375,46.1289062 Z" id="Path"></path>
                <path d="M49,34.6445312 C41.0843945,34.6445312 34.6445312,41.0843945 34.6445312,49 C34.6445312,56.9156055 41.0843945,63.3554688 49,63.3554688 C56.9156055,63.3554688 63.3554688,56.9156055 63.3554688,49 C63.3554688,41.0843945 56.9156055,34.6445312 49,34.6445312 Z M49,57.6132812 C44.2506367,57.6132812 40.3867188,53.7493633 40.3867188,49 C40.3867188,44.2506367 44.2506367,40.3867188 49,40.3867188 C53.7493633,40.3867188 57.6132812,44.2506367 57.6132812,49 C57.6132812,53.7493633 53.7493633,57.6132812 49,57.6132812 Z" id="Shape"></path>
                <circle id="Oval" cx="49" cy="49" r="2.87109375"></circle>
                <path d="M83.6483594,14.351832 C74.393293,5.09695703 62.0883594,0 49,0 C35.9116406,0 23.606707,5.09695703 14.351832,14.3516406 C5.09695703,23.606707 0,35.9116406 0,49 C0,62.0883594 5.09695703,74.393293 14.3516406,83.648168 C23.606707,92.903043 35.9116406,98 49,98 C62.0883594,98 74.393293,92.903043 83.648168,83.6483594 C92.903043,74.393293 98,62.0883594 98,49 C98,35.9116406 92.903043,23.606707 83.6483594,14.351832 Z M79.5878672,79.5878672 C71.4176914,87.7582344 60.5546211,92.2578125 49,92.2578125 C37.4453789,92.2578125 26.5823086,87.7582344 18.4121328,79.5878672 C10.2417656,71.4176914 5.7421875,60.5546211 5.7421875,49 C5.7421875,37.4453789 10.2417656,26.5823086 18.4121328,18.4121328 C26.5823086,10.2417656 37.4453789,5.7421875 49,5.7421875 C60.5546211,5.7421875 71.4176914,10.2417656 79.5878672,18.4121328 C87.7582344,26.5823086 92.2578125,37.4453789 92.2578125,49 C92.2578125,60.5546211 87.7582344,71.4176914 79.5878672,79.5878672 Z" id="Shape"></path>
            </g>
        </g>
    </g>
</svg>