<?xml version="1.0" encoding="UTF-8"?>
<svg width="32px" height="32px" viewBox="0 0 32 32" version="1.1" xmlns="http://www.w3.org/2000/svg" xmlns:xlink="http://www.w3.org/1999/xlink">
    <!-- Generator: Sketch 61 (89581) - https://sketch.com -->
    <title>ic_search</title>
    <desc>Created with Sketch.</desc>
    <g id="Assets" stroke="none" stroke-width="1" fill="none" fill-rule="evenodd">
        <g id="Artboard" transform="translate(-768.000000, 0.000000)" fill-rule="nonzero" stroke="#FFFFFF" stroke-width="0.6">
            <g id="ic_search" transform="translate(772.000000, 4.000000)">
                <g id="Group" transform="translate(0.422363, 0.304688)">
                    <path d="M9.67882105,3.63627789 C9.01106526,3.63627789 8.46942316,4.17832421 8.46942316,4.84567579 C8.46942316,5.51424 9.01106526,6.05507368 9.67882105,6.05507368 C11.1566147,6.05507368 12.4763621,6.88047158 13.1243116,8.21072842 C13.3340968,8.64 13.7641768,8.88980211 14.2120421,8.88980211 C14.3902989,8.88980211 14.5709811,8.85059368 14.7411537,8.76732632 C15.3418105,8.47508211 15.5916126,7.75114105 15.29856,7.15008 C14.2423579,4.98270316 12.08832,3.63627789 9.67882105,3.63627789 Z" id="Path" fill="#EFA91F"></path>
                    <path d="M22.6903579,20.2477137 L18.6599747,16.2169263 C19.8532042,14.5386442 20.5617853,12.4929347 20.5617853,10.2810947 C20.5617853,4.61204211 15.9497432,9.41469125e-14 10.2806905,9.41469125e-14 C4.61163789,9.41469125e-14 2.73558953e-13,4.61204211 2.73558953e-13,10.2810947 C2.73558953e-13,15.9497432 4.61163789,20.5617853 10.2806905,20.5617853 C12.64896,20.5617853 14.8260379,19.7493221 16.56576,18.3988547 L20.5520842,22.3851789 C20.8471579,22.6802526 21.2347958,22.8281937 21.6212211,22.8281937 C22.0084547,22.8281937 22.3952842,22.6806568 22.6903579,22.3851789 C23.2809095,21.7954358 23.2809095,20.8382653 22.6903579,20.2477137 Z M2.41960421,10.2814989 C2.41960421,5.94634105 5.94674526,2.41960421 10.2814989,2.41960421 C14.6162526,2.41960421 18.1433937,5.94634105 18.1433937,10.2814989 C18.1433937,12.0850863 17.5269726,13.7439663 16.5010863,15.0722021 C16.1619537,15.5107705 15.7811874,15.9153853 15.3583832,16.27392 C13.9873011,17.4372379 12.2164547,18.1433937 10.2814989,18.1433937 C5.94634105,18.1429895 2.41960421,14.6162526 2.41960421,10.2814989 Z" id="Shape" fill="#333D47"></path>
                </g>
            </g>
        </g>
    </g>
</svg>