<?xml version="1.0" encoding="UTF-8"?>
<svg width="32px" height="32px" viewBox="0 0 32 32" version="1.1" xmlns="http://www.w3.org/2000/svg" xmlns:xlink="http://www.w3.org/1999/xlink">
    <!-- Generator: Sketch 61 (89581) - https://sketch.com -->
    <title>ic_training_1</title>
    <desc>Created with Sketch.</desc>
    <g id="Assets" stroke="none" stroke-width="1" fill="none" fill-rule="evenodd">
        <g id="Artboard" transform="translate(0.000000, -128.000000)" fill="#FFFFFF" fill-rule="nonzero">
            <g id="ic_training_1" transform="translate(0.000000, 128.000000)">
                <path d="M26.1911542,10 L5.80884571,10 C5.36193956,10 5,9.5521495 5,9 C5,8.4474766 5.36193956,8 5.80884571,8 L26.1911542,8 C26.6377581,8 27,8.4474766 27,9 C27,9.5521495 26.6377581,10 26.1911542,10 L26.1911542,10 Z" id="Path"></path>
                <path d="M26.1911542,15 L5.80884571,15 C5.36193956,15 5,14.5521496 5,14 C5,13.4478504 5.36193956,13 5.80884571,13 L26.1911542,13 C26.6377581,13 27,13.4478504 27,14 C27,14.5521496 26.6377581,15 26.1911542,15 L26.1911542,15 Z" id="Path"></path>
                <path d="M10.2207603,25 L5.77923964,25 C5.34869154,25 5,24.5525234 5,24 C5,23.4478504 5.34869154,23 5.77923964,23 L10.2207603,23 C10.6510172,23 11,23.4478504 11,24 C11,24.5525234 10.6510172,25 10.2207603,25 L10.2207603,25 Z" id="Path"></path>
                <path d="M16.210507,20 L5.78949305,20 C5.3532797,20 5,19.5521495 5,19 C5,18.4478505 5.3532797,18 5.78949305,18 L16.210507,18 C16.6464252,18 17,18.4478505 17,19 C17,19.5521495 16.6464252,20 16.210507,20 Z" id="Path"></path>
                <path d="M32,9.37246919 L32,0.792093886 C32,0.354739646 31.6452604,0 31.2079061,0 L0.792093886,0 C0.354739646,0 0,0.354739646 0,0.792093886 L0,31.2079061 C0,31.6452604 0.354739646,32 0.792093886,32 L9.37246919,32 L23.652367,32 L31.2079061,32 C31.6452604,32 32,31.6452604 32,31.2079061 L32,23.652367 L32,9.37246919 Z M30.4158123,30.4158123 L1.58418777,30.4158123 L1.58418777,1.58418777 L30.4158123,1.58418777 L30.4158123,30.4158123 Z" id="Shape"></path>
            </g>
        </g>
    </g>
</svg>