<?xml version="1.0" encoding="UTF-8"?>
<svg width="24px" height="24px" viewBox="0 0 24 24" version="1.1" xmlns="http://www.w3.org/2000/svg" xmlns:xlink="http://www.w3.org/1999/xlink">
    <!-- Generator: Sketch 61 (89581) - https://sketch.com -->
    <title>ic_web_development</title>
    <desc>Created with Sketch.</desc>
    <defs>
        <linearGradient x1="50%" y1="0%" x2="50%" y2="97.2520773%" id="linearGradient-1">
            <stop stop-color="#EFA91F" offset="0%"></stop>
            <stop stop-color="#FFFFFF" offset="100%"></stop>
        </linearGradient>
    </defs>
    <g id="Assets" stroke="none" stroke-width="1" fill="none" fill-rule="evenodd">
        <g id="Artboard" transform="translate(-144.000000, -64.000000)">
            <g id="ic_web_development" transform="translate(145.000000, 66.000000)">
                <g id="Group-2">
                    <circle id="Oval" fill="url(#linearGradient-1)" opacity="0.537202381" cx="15" cy="7" r="7"></circle>
                    <g id="Group" transform="translate(0.000000, 2.000000)" fill="#2C2C2C" fill-rule="nonzero" stroke="#2C2C2C" stroke-width="0.4">
                        <path d="M7.98963091,13.062375 C7.91314121,13.062375 7.83609183,13.0359375 7.77322097,12.982125 L5.60986791,11.13075 C5.5352438,11.0668125 5.49233491,10.9734375 5.49233491,10.8748125 C5.49233491,10.776375 5.53543034,10.683 5.60986791,10.6190625 L7.77322097,8.76768749 C7.91370091,8.64731251 8.12470061,8.66437498 8.24447229,8.80556251 C8.36405742,8.94693749 8.34726702,9.159 8.20660054,9.27918749 L6.34230358,10.8748125 L8.20660054,12.4704375 C8.34726702,12.5908125 8.36405742,12.802875 8.24447229,12.9440625 C8.17824337,13.02225 8.08421699,13.062375 7.98963091,13.062375 Z" id="Path"></path>
                        <path d="M12.2603691,13.062375 C12.165783,13.062375 12.0717566,13.02225 12.0057143,12.9440625 C11.8859426,12.802875 11.9029195,12.5908125 12.0433995,12.4704375 L13.9076964,10.8748125 L12.0433995,9.27918749 C11.9029195,9.159 11.8859426,8.94693749 12.0057143,8.80556251 C12.1252994,8.66437498 12.3364857,8.64731251 12.476779,8.76768749 L14.6401321,10.6190625 C14.7147562,10.683 14.7576651,10.776375 14.7576651,10.8748125 C14.7576651,10.9734375 14.7147562,11.0668125 14.6401321,11.13075 L12.476779,12.982125 C12.4139082,13.0359375 12.3368588,13.062375 12.2603691,13.062375 L12.2603691,13.062375 Z" id="Path"></path>
                        <path d="M9.35917003,14.451 C9.3362231,14.451 9.31308962,14.4485625 9.2897696,14.4436875 C9.10917924,14.4054375 8.99351186,14.227125 9.03157016,14.045625 L10.3798414,7.61193749 C10.4178996,7.43043749 10.5951319,7.31418749 10.7759088,7.35243749 C10.9564992,7.39068749 11.0721666,7.56881251 11.0341083,7.7505 L9.6858371,14.1841875 C9.65262935,14.3424375 9.51382849,14.451 9.35917003,14.451 L9.35917003,14.451 Z" id="Path"></path>
                        <path d="M18.0053066,17.956125 L2.2446934,17.956125 C1.00705246,17.956125 0,16.9441875 0,15.700125 L0,2.256 C0,1.01212502 1.00705246,0 2.2446934,0 L18.0053066,0 C19.2429475,0 20.25,1.01212502 20.25,2.256 L20.25,15.700125 C20.25,16.9441875 19.2429475,17.956125 18.0053066,17.956125 Z M2.2446934,0.672 C1.37569559,0.672 0.668632075,1.38262502 0.668632075,2.256 L0.668632075,15.700125 C0.668632075,16.5735 1.37569559,17.284125 2.2446934,17.284125 L18.0053066,17.284125 C18.8743044,17.284125 19.5813679,16.5735 19.5813679,15.700125 L19.5813679,2.256 C19.5813679,1.38262502 18.8743044,0.672 18.0053066,0.672 L2.2446934,0.672 Z" id="Shape"></path>
                        <path d="M19.915684,5.38031251 L0.334316038,5.38031251 C0.149621328,5.38031251 0,5.22993749 0,5.04431251 C0,4.85887498 0.149621328,4.70831251 0.334316038,4.70831251 L19.915684,4.70831251 C20.1003787,4.70831251 20.25,4.85887498 20.25,5.04431251 C20.25,5.22993749 20.1003787,5.38031251 19.915684,5.38031251 Z" id="Path"></path>
                        <path d="M5.7121029,3.7725 C5.12891546,3.7725 4.65411954,3.29531251 4.65411954,2.70918749 C4.65411954,2.12287498 5.12891546,1.64587498 5.7121029,1.64587498 C6.29547694,1.64587498 6.77008631,2.12287498 6.77008631,2.70918749 C6.77008631,3.29531251 6.29547694,3.7725 5.7121029,3.7725 Z M5.7121029,2.31787498 C5.49755859,2.31787498 5.32275161,2.49337498 5.32275161,2.70918749 C5.32275161,2.925 5.49755859,3.1005 5.7121029,3.1005 C5.92683381,3.1005 6.10145424,2.925 6.10145424,2.70918749 C6.10145424,2.49337498 5.92683381,2.31787498 5.7121029,2.31787498 Z" id="Shape"></path>
                        <path d="M2.46147643,3.76218749 C1.87810244,3.76218749 1.40349307,3.28518749 1.40349307,2.69887498 C1.40349307,2.11256251 1.87810244,1.63556251 2.46147643,1.63556251 C3.04485046,1.63556251 3.51945984,2.11256251 3.51945984,2.69887498 C3.51945984,3.28518749 3.04485046,3.76218749 2.46147643,3.76218749 Z M2.46147643,2.30756251 C2.24693212,2.30756251 2.07212514,2.48325 2.07212514,2.69887498 C2.07212514,2.91468749 2.24693212,3.09018749 2.46147643,3.09018749 C2.67620733,3.09018749 2.85082776,2.91468749 2.85082776,2.69887498 C2.85082776,2.48325 2.67620733,2.30756251 2.46147643,2.30756251 Z" id="Shape"></path>
                        <path d="M8.96272938,3.78262502 C8.37954194,3.78262502 7.90493256,3.30562502 7.90493256,2.71931251 C7.90493256,2.13318749 8.37954194,1.65618749 8.96272938,1.65618749 C9.54610341,1.65618749 10.0207128,2.13318749 10.0207128,2.71931251 C10.0207128,3.30562502 9.54610341,3.78262502 8.96272938,3.78262502 Z M8.96272938,2.328 C8.74818507,2.328 8.57356464,2.5035 8.57356464,2.71931251 C8.57356464,2.93512502 8.74818507,3.11062502 8.96272938,3.11062502 C9.17746028,3.11062502 9.35208071,2.93512502 9.35208071,2.71931251 C9.35208071,2.5035 9.17746028,2.328 8.96272938,2.328 Z" id="Shape"></path>
                    </g>
                </g>
            </g>
        </g>
    </g>
</svg>