<?xml version="1.0" encoding="UTF-8"?>
<svg xmlns="http://www.w3.org/2000/svg" xmlns:xlink="http://www.w3.org/1999/xlink" width="24pt" height="24pt" viewBox="0 0 24 24" version="1.1">
<g id="surface1">
<path style=" stroke:none;fill-rule:nonzero;fill:rgb(93.72549%,66.27451%,12.156863%);fill-opacity:1;" d="M 15.703125 0 C 11.230469 0 7.589844 3.640625 7.589844 8.113281 C 7.589844 9.105469 7.765625 10.074219 8.117188 10.988281 L 0.359375 18.746094 C 0.25 18.859375 0.1875 19.007812 0.1875 19.164062 L 0.1875 23.410156 C 0.1875 23.734375 0.449219 24 0.777344 24 L 4.273438 24 C 4.433594 24 4.582031 23.9375 4.691406 23.828125 L 5.871094 22.648438 C 5.984375 22.539062 6.046875 22.390625 6.046875 22.230469 L 6.046875 20.785156 L 7.492188 20.785156 C 7.816406 20.785156 8.082031 20.519531 8.082031 20.195312 L 8.082031 19.613281 L 8.660156 19.613281 C 8.988281 19.613281 9.253906 19.347656 9.253906 19.023438 L 9.253906 17.75 L 10.523438 17.75 C 10.679688 17.75 10.832031 17.6875 10.941406 17.578125 L 12.824219 15.695312 C 13.742188 16.046875 14.707031 16.222656 15.703125 16.222656 C 20.175781 16.222656 23.8125 12.585938 23.8125 8.113281 C 23.8125 3.640625 20.175781 0 15.703125 0 Z M 15.703125 15.039062 C 14.734375 15.039062 13.796875 14.84375 12.921875 14.460938 C 12.691406 14.359375 12.4375 14.414062 12.269531 14.578125 C 12.269531 14.582031 12.265625 14.582031 12.265625 14.582031 L 10.28125 16.570312 L 8.660156 16.570312 C 8.335938 16.570312 8.070312 16.832031 8.070312 17.160156 L 8.070312 18.433594 L 7.492188 18.433594 C 7.164062 18.433594 6.898438 18.695312 6.898438 19.023438 L 6.898438 19.601562 L 5.453125 19.601562 C 5.128906 19.601562 4.863281 19.867188 4.863281 20.195312 L 4.863281 21.988281 L 4.03125 22.816406 L 1.367188 22.816406 L 1.367188 21.980469 L 8.59375 14.757812 C 8.800781 14.550781 8.800781 14.210938 8.59375 14.003906 C 8.386719 13.796875 8.050781 13.796875 7.839844 14.003906 L 1.367188 20.476562 L 1.367188 19.410156 L 9.230469 11.546875 C 9.230469 11.546875 9.234375 11.542969 9.234375 11.542969 C 9.398438 11.375 9.453125 11.121094 9.351562 10.894531 C 8.96875 10.015625 8.773438 9.078125 8.773438 8.113281 C 8.773438 4.289062 11.882812 1.183594 15.703125 1.183594 C 19.523438 1.183594 22.632812 4.289062 22.632812 8.113281 C 22.632812 11.933594 19.523438 15.039062 15.703125 15.039062 Z M 15.703125 15.039062 "/>
<path style=" stroke:none;fill-rule:nonzero;fill:rgb(93.72549%,66.27451%,12.156863%);fill-opacity:1;" d="M 18.171875 3.429688 C 16.949219 3.429688 15.957031 4.421875 15.957031 5.644531 C 15.957031 6.863281 16.949219 7.855469 18.171875 7.855469 C 19.390625 7.855469 20.382812 6.863281 20.382812 5.644531 C 20.382812 4.421875 19.390625 3.429688 18.171875 3.429688 Z M 18.171875 6.675781 C 17.601562 6.675781 17.136719 6.210938 17.136719 5.644531 C 17.136719 5.074219 17.601562 4.609375 18.171875 4.609375 C 18.738281 4.609375 19.203125 5.074219 19.203125 5.644531 C 19.203125 6.210938 18.738281 6.675781 18.171875 6.675781 Z M 18.171875 6.675781 "/>
</g>
</svg>
