<?xml version="1.0" encoding="UTF-8"?>
<svg width="139px" height="40px" viewBox="0 0 139 40" version="1.1" xmlns="http://www.w3.org/2000/svg" xmlns:xlink="http://www.w3.org/1999/xlink">
    <!-- Generator: Sketch 61 (89581) - https://sketch.com -->
    <title>main_footer_logo</title>
    <desc>Created with Sketch.</desc>
    <g id="Assets" stroke="none" stroke-width="1" fill="none" fill-rule="evenodd">
        <g id="Artboard" transform="translate(-139.000000, 0.000000)">
            <g id="main_footer_logo" transform="translate(139.000000, 0.000000)">
                <g id="Group-146">
                    <path d="M7.01900493,14.3880381 L13.4792679,14.3880381 C13.2614378,11.4120381 12.2770132,10.3328 10.2708433,10.3328 C8.39567616,10.3328 7.23721589,11.3720381 7.01900493,14.3880381 M11.3611364,26.7518476 C4.95038027,26.7518476 0.371377534,23.5747048 0.371377534,16.5773714 C0.371377534,10.1430857 5.04406247,6.24213333 10.4456405,6.24213333 C16.631331,6.24213333 19.6097392,10.7461333 19.6097392,16.4566095 C19.6097392,17.0600381 19.5659447,17.7034667 19.5221501,18.0249905 L7.06279945,18.0249905 C7.41163233,21.1617524 8.96881315,22.1785143 11.8904789,22.1785143 C14.2454816,22.1785143 15.6743255,21.3369905 18.0293282,20.0501333 L19.7510241,24.261181 C17.4398159,25.628419 14.7192241,26.7518476 11.3611364,26.7518476" id="Fill-118" fill="#FEFEFE"></path>
                    <path d="M73.9348997,14.3880381 L80.3951627,14.3880381 C80.1773326,11.4120381 79.1929079,10.3328 77.1867381,10.3328 C75.311571,10.3328 74.1527299,11.3720381 73.9348997,14.3880381 M78.2770312,26.7518476 C71.8662751,26.7518476 67.2876532,23.5747048 67.2876532,16.5773714 C67.2876532,10.1430857 71.9599573,6.24213333 77.3611545,6.24213333 C83.5472258,6.24213333 86.525634,10.7461333 86.525634,16.4566095 C86.525634,17.0600381 86.4818395,17.7034667 86.4380449,18.0249905 L73.9786942,18.0249905 C74.3275271,21.1617524 75.8847079,22.1785143 78.8063737,22.1785143 C81.1613764,22.1785143 82.5902203,21.3369905 84.9448422,20.0501333 L86.6672997,24.261181 C84.3557107,25.628419 81.6351189,26.7518476 78.2770312,26.7518476" id="Fill-120" fill="#FEFEFE"></path>
                    <path d="M95.9567268,14.3880381 L102.41699,14.3880381 C102.19916,11.4120381 101.214735,10.3328 99.2085652,10.3328 C97.3333981,10.3328 96.1749378,11.3720381 95.9567268,14.3880381 M100.298858,26.7518476 C93.8881022,26.7518476 89.3094803,23.5747048 89.3094803,16.5773714 C89.3094803,10.1430857 93.9817844,6.24213333 99.3833625,6.24213333 C105.569053,6.24213333 108.547461,10.7461333 108.547461,16.4566095 C108.547461,17.0600381 108.503667,17.7034667 108.459872,18.0249905 L96.0005214,18.0249905 C96.3493542,21.1617524 97.9065351,22.1785143 100.828201,22.1785143 C103.183584,22.1785143 104.612047,21.3369905 106.966669,20.0501333 L108.689127,24.261181 C106.377538,25.628419 103.656946,26.7518476 100.298858,26.7518476" id="Fill-122" fill="#FEFEFE"></path>
                    <path d="M58.3041022,26.7115048 C52.1553515,26.7115048 47.9685953,23.0116952 47.9685953,16.6577905 C47.9685953,9.7408381 52.765809,6.32255238 58.6095214,6.32255238 C61.1823542,6.32255238 63.2319378,6.9256 64.9326885,7.81055238 L64.0602255,12.9983619 C62.4032693,12.0330286 61.0079378,11.5507429 59.2637734,11.5507429 C56.559557,11.5507429 54.6409762,13.1995048 54.6409762,16.4970286 C54.6409762,19.8749333 56.7777679,21.4836952 59.4381899,21.4836952 C61.0079378,21.4836952 62.5338912,21.0814095 64.322231,19.9956952 L65.1071049,24.981981 C63.0571405,26.1484571 60.9203488,26.7115048 58.3041022,26.7115048" id="Fill-124" fill="#FEFEFE"></path>
                    <path d="M124.981412,11.8320381 C124.021741,11.4297524 123.280281,11.2689905 121.884949,11.2689905 C119.704744,11.2689905 118.047407,12.8373714 118.047407,16.6175619 C118.047407,19.9954667 119.443119,21.3630857 121.317905,21.3630857 C122.713618,21.3630857 123.847324,20.5185143 124.981412,19.352419 L124.981412,11.8320381 Z M125.404505,26.3493714 L125.286831,23.7760381 C123.847324,25.2636571 121.884949,26.7516571 119.1377,26.7516571 C114.776527,26.7516571 111.269157,23.6956571 111.269157,17.0598476 C111.269157,9.53984762 115.736198,6.48346667 120.446204,6.48346667 C122.408198,6.48346667 123.760116,6.76499048 124.981412,7.16727619 L124.981412,0.246895238 L131.566204,0.246895238 L131.566204,26.3493714 L125.404505,26.3493714 Z" id="Fill-126" fill="#FEFEFE"></path>
                    <path d="M82.8927833,34.5712762 C82.7118929,34.3392762 82.4632162,34.1503238 82.1532271,34.0089905 C81.8470463,33.8699429 81.4528956,33.7994667 80.9814381,33.7994667 C80.55606,33.7994667 80.1451532,33.8973714 79.7593805,34.0905143 C79.4882353,34.2268952 79.2608847,34.4181333 79.0796134,34.6615619 C78.9291888,34.4162286 78.7326847,34.2246095 78.4931477,34.0897524 C78.1496463,33.8969905 77.7665395,33.7994667 77.3541093,33.7994667 C76.8575175,33.7994667 76.4146216,33.9129905 76.0379888,34.1373714 C75.85786,34.2448 75.7013422,34.3632762 75.5688162,34.492419 C75.5653888,34.380419 75.5608189,34.2657524 75.5558682,34.1480381 C75.5509175,34.0280381 75.4519038,33.933181 75.3319449,33.933181 L74.5965778,33.933181 C74.4724299,33.933181 74.3718929,34.0337524 74.3718929,34.1575619 C74.3718929,34.2280381 74.3760819,34.3274667 74.38446,34.4566095 C74.3928381,34.5766095 74.3985504,34.7061333 74.4027395,34.8440381 C74.4069285,34.9872762 74.4130216,35.1289905 74.4213997,35.2688 C74.4290162,35.4013714 74.4332052,35.5148952 74.4332052,35.6067048 L74.4332052,39.3068952 C74.4332052,39.4307048 74.5337422,39.5312762 74.6578901,39.5312762 L75.3932573,39.5312762 C75.5170244,39.5312762 75.6175614,39.4307048 75.6175614,39.3068952 L75.6175614,36.7320381 C75.6175614,36.404419 75.6640216,36.1187048 75.7554189,35.8828952 C75.8456737,35.6497524 75.9686792,35.4543238 76.1210079,35.3030857 C76.2721942,35.1529905 76.4546079,35.0394667 76.6632984,34.9655619 C76.8788436,34.8889905 77.1111449,34.8501333 77.3541093,34.8501333 C77.6770463,34.8501333 77.9063011,34.9594667 78.0555833,35.1846095 C78.2216216,35.4352762 78.3057833,35.7796571 78.3057833,36.2082286 L78.3057833,39.3068952 C78.3057833,39.4307048 78.4067011,39.5312762 78.5304682,39.5312762 L79.2662162,39.5312762 C79.3899833,39.5312762 79.4901395,39.4307048 79.4901395,39.3068952 L79.4901395,36.4089905 C79.4901395,36.2421333 79.5148929,36.0619429 79.5628764,35.8737524 C79.6093367,35.693181 79.6881668,35.5232762 79.7982244,35.3686095 C79.9033312,35.220419 80.0518518,35.0954667 80.2399778,34.9975619 C80.4269614,34.8996571 80.6767805,34.8501333 80.9814381,34.8501333 C81.2388737,34.8501333 81.4460408,34.8889905 81.5976079,34.9655619 C81.7465093,35.0406095 81.858471,35.1377524 81.939586,35.2615619 C82.0260326,35.3926095 82.0873449,35.5449905 82.1223805,35.7137524 C82.1597011,35.8947048 82.1787422,36.0832762 82.1787422,36.2752762 L82.1787422,39.3068952 C82.1787422,39.4307048 82.27966,39.5312762 82.4034271,39.5312762 L83.1387942,39.5312762 C83.2625614,39.5312762 83.3630984,39.4307048 83.3630984,39.3068952 L83.3630984,36.2417524 C83.3630984,35.9442286 83.3303477,35.6501333 83.2656079,35.3667048 C83.1974408,35.0688 83.0717696,34.8009905 82.8927833,34.5712762" id="Fill-128" fill="#FEFEFE"></path>
                    <path d="M91.927631,36.0729524 C91.9356282,36.0508571 91.9436255,36.0264762 91.953146,36.0001905 C92.0098885,35.8428571 92.1089022,35.6748571 92.248283,35.5019048 C92.3838556,35.332381 92.5742666,35.1784762 92.8138036,35.044381 C93.0442008,34.915619 93.3435268,34.8504762 93.7026419,34.8504762 C93.9444638,34.8504762 94.1760036,34.8904762 94.3911679,34.9700952 C94.6051899,35.0493333 94.7921734,35.1575238 94.9467871,35.2912381 C95.0994967,35.4238095 95.2217405,35.5792381 95.3104721,35.7529524 C95.3622638,35.8542857 95.3984419,35.9617143 95.4190063,36.0729524 L91.927631,36.0729524 Z M95.8782775,34.6180952 C95.6330282,34.3712381 95.3283707,34.1708571 94.9715405,34.0226667 C94.6150912,33.8744762 94.2003762,33.7994286 93.7395816,33.7994286 C93.2963049,33.7994286 92.8846364,33.8740952 92.5163816,34.0215238 C92.1481268,34.1689524 91.8232858,34.3758095 91.5506173,34.636 C91.2760447,34.8977143 91.0608803,35.2097143 90.9104556,35.5632381 C90.7604118,35.916 90.6838666,36.3057143 90.6838666,36.7209524 C90.6838666,37.1499048 90.757746,37.548 90.90322,37.9034286 C91.0490748,38.2626667 91.2627159,38.5773333 91.538431,38.8394286 C91.8114803,39.100381 92.1416529,39.3057143 92.5201899,39.4497143 C92.8952995,39.5925714 93.3180118,39.6649524 93.7765214,39.6649524 C94.3096721,39.6649524 94.805883,39.5731429 95.2518255,39.3921905 C95.7099542,39.2062857 96.0991542,38.8958095 96.4091433,38.4691429 C96.4807378,38.3704762 96.4605542,38.2325714 96.3638255,38.1586667 L95.8245816,37.7464762 C95.7754556,37.7087619 95.7122392,37.6927619 95.6513077,37.7034286 C95.5899953,37.7137143 95.5359186,37.748381 95.5016447,37.8001905 C95.3375104,38.0466667 95.0960693,38.2447619 94.7849378,38.3899048 C94.4650474,38.5388571 94.1299241,38.6139048 93.7887077,38.6139048 C93.3953186,38.6139048 93.0746666,38.548381 92.8355104,38.4184762 C92.5898803,38.2851429 92.3929953,38.1251429 92.2494255,37.9419048 C92.1054748,37.7586667 92.0053186,37.5697143 91.9516227,37.379619 C91.9257268,37.2859048 91.9055433,37.2001905 91.8918337,37.124 L96.3992419,37.124 C96.523009,37.124 96.623546,37.0234286 96.623546,36.8992381 L96.623546,36.4310476 C96.623546,36.1072381 96.5607104,35.7834286 96.4365625,35.468381 C96.3112721,35.1514286 96.1235268,34.8653333 95.8782775,34.6180952 L95.8782775,34.6180952 Z" id="Fill-130" fill="#FEFEFE"></path>
                    <path d="M106.828393,34.8502857 C107.134193,34.8502857 107.42019,34.9013333 107.678387,35.0019048 C107.938108,35.1032381 108.166982,35.2411429 108.358535,35.4118095 C108.547423,35.5805714 108.698228,35.7817143 108.807524,36.0099048 C108.914916,36.2342857 108.969374,36.4773333 108.969374,36.7321905 C108.969374,36.9866667 108.914916,37.2297143 108.807524,37.4540952 C108.698609,37.6826667 108.547423,37.8838095 108.358535,38.0521905 C108.166601,38.2232381 107.937727,38.3611429 107.678387,38.4620952 C107.419809,38.5630476 107.133812,38.6140952 106.828393,38.6140952 C106.516119,38.6140952 106.230883,38.5634286 105.980302,38.4628571 C105.731245,38.3630476 105.516842,38.2270476 105.342426,38.0582857 C105.170294,37.8921905 105.037387,37.6933333 104.947513,37.4678095 C104.856497,37.239619 104.810037,36.992381 104.810037,36.7321905 C104.810037,36.472 104.856497,36.224381 104.947894,35.9958095 C105.037387,35.7710476 105.170294,35.5721905 105.342426,35.4057143 C105.516461,35.2373333 105.731245,35.1013333 105.980683,35.0011429 C106.230502,34.9009524 106.515738,34.8502857 106.828393,34.8502857 M109.855546,31.392 L109.12056,31.392 C108.996412,31.392 108.895875,31.4925714 108.895875,31.616381 L108.895875,34.4937143 C108.86579,34.4681905 108.834563,34.4430476 108.802574,34.4186667 C108.616733,34.2784762 108.413374,34.160381 108.197448,34.0681905 C107.982664,33.9767619 107.754552,33.9081905 107.518823,33.864381 C106.811637,33.7333333 106.133393,33.8015238 105.551116,34.0133333 C105.156585,34.1565714 104.813845,34.3615238 104.531656,34.6220952 C104.249086,34.8834286 104.025163,35.1969524 103.86636,35.5542857 C103.706796,35.912381 103.626061,36.3085714 103.626061,36.7321905 C103.626061,37.1558095 103.706796,37.552381 103.865979,37.9100952 C104.025163,38.2674286 104.249086,38.5809524 104.531656,38.8419048 C104.813464,39.1024762 105.156204,39.3074286 105.551116,39.4510476 C105.941839,39.5927619 106.371787,39.6651429 106.828393,39.6651429 C107.052697,39.6651429 107.284618,39.6430476 107.518823,39.6 C107.754933,39.5561905 107.983045,39.487619 108.197448,39.3961905 C108.413374,39.304 108.616733,39.1859048 108.802574,39.0453333 C108.834563,39.0213333 108.86579,38.9961905 108.895875,38.9702857 L108.895875,39.3066667 C108.895875,39.4304762 108.996412,39.5314286 109.12056,39.5314286 L109.855546,39.5314286 C109.979313,39.5314286 110.080231,39.4304762 110.080231,39.3066667 L110.080231,31.616381 C110.080231,31.4925714 109.979313,31.392 109.855546,31.392" id="Fill-132" fill="#FEFEFE"></path>
                    <path d="M128.425908,34.8502857 C128.731327,34.8502857 129.017325,34.9013333 129.275522,35.0019048 C129.535242,35.1032381 129.764116,35.2411429 129.95567,35.4118095 C130.144558,35.5805714 130.295744,35.7817143 130.404659,36.0099048 C130.512432,36.2342857 130.566508,36.4773333 130.566508,36.7321905 C130.566508,36.9866667 130.512432,37.2297143 130.404659,37.4540952 C130.295744,37.6826667 130.144558,37.8838095 129.95567,38.0521905 C129.763736,38.2232381 129.534862,38.3611429 129.275522,38.4620952 C129.016944,38.5630476 128.730947,38.6140952 128.425908,38.6140952 C128.113253,38.6140952 127.828018,38.5634286 127.577818,38.4628571 C127.32876,38.3630476 127.113977,38.2270476 126.93956,38.0582857 C126.767429,37.8921905 126.634522,37.6933333 126.545029,37.4678095 C126.453632,37.239619 126.407552,36.992381 126.407552,36.7321905 C126.407552,36.472 126.453632,36.224381 126.545029,35.9958095 C126.634522,35.7710476 126.767429,35.5721905 126.93956,35.4057143 C127.113977,35.2373333 127.328379,35.1013333 127.577818,35.0011429 C127.827637,34.9009524 128.112873,34.8502857 128.425908,34.8502857 M131.453062,33.9321905 L130.717695,33.9321905 C130.593547,33.9321905 130.49339,34.0327619 130.49339,34.1569524 L130.49339,34.5535238 C130.462925,34.527619 130.10876,34.1992381 129.794582,34.0681905 C129.579037,33.9779048 129.352067,33.9081905 129.115958,33.864381 C128.409152,33.7333333 127.730527,33.8015238 127.148251,34.0133333 C126.753719,34.1565714 126.410979,34.3615238 126.12879,34.6220952 C125.846221,34.8834286 125.622297,35.1969524 125.463495,35.5542857 C125.304311,35.912381 125.223196,36.3085714 125.223196,36.7321905 C125.223196,37.1558095 125.304311,37.552381 125.463495,37.9100952 C125.622297,38.2674286 125.846221,38.5809524 126.12879,38.8419048 C126.410599,39.1024762 126.753338,39.3074286 127.148251,39.4510476 C127.538974,39.5927619 127.968922,39.6651429 128.425908,39.6651429 C128.649832,39.6651429 128.882133,39.6430476 129.115958,39.6 C129.352067,39.5561905 129.580179,39.487619 129.794582,39.3961905 C130.010508,39.304 130.213867,39.1859048 130.399708,39.0453333 C130.431697,39.0213333 130.462925,38.9961905 130.49339,38.9702857 L130.49339,39.3066667 C130.49339,39.4304762 130.593547,39.5314286 130.717695,39.5314286 L131.453062,39.5314286 C131.576829,39.5314286 131.677366,39.4304762 131.677366,39.3066667 L131.677366,34.1569524 C131.677366,34.0327619 131.576829,33.9321905 131.453062,33.9321905" id="Fill-134" fill="#FEFEFE"></path>
                    <path d="M118.655084,33.9330667 L117.919717,33.9330667 C117.795569,33.9330667 117.695032,34.0336381 117.695032,34.1574476 L117.695032,39.306781 C117.695032,39.4305905 117.795569,39.5311619 117.919717,39.5311619 L118.655084,39.5311619 C118.778851,39.5311619 118.879388,39.4305905 118.879388,39.306781 L118.879388,34.1574476 C118.879388,34.0336381 118.778851,33.9330667 118.655084,33.9330667" id="Fill-136" fill="#FEFEFE"></path>
                    <path d="M118.287248,31.3919619 C118.07513,31.3919619 117.892717,31.4605333 117.744196,31.5950095 C117.591867,31.7332952 117.511514,31.9146286 117.511514,32.1180571 C117.511514,32.3218667 117.592248,32.502819 117.744196,32.6407238 C117.892336,32.775581 118.07475,32.8441524 118.287248,32.8441524 C118.499747,32.8441524 118.682161,32.775581 118.830681,32.6407238 C118.98301,32.5024381 119.063363,32.3214857 119.063363,32.1180571 C119.063363,31.9150095 118.98301,31.7340571 118.8303,31.5950095 C118.682161,31.4605333 118.499366,31.3919619 118.287248,31.3919619" id="Fill-138" fill="#ECA820"></path>
                    <path d="M28.0785712,14.0547048 L29.2309384,15.4428952 L33.1773959,10.6889905 L32.8457,10.2889905 C30.9115055,7.87794286 28.1791082,6.64441905 25.0883575,6.64441905 L22.7931438,6.64441905 L22.7931438,12.1827048 L24.6393685,12.1827048 C26.0423164,12.1827048 27.2007767,12.9602286 28.0785712,14.0547048" id="Fill-140" fill="#ECA820"></path>
                    <path d="M40.0270493,18.9393905 L38.8746822,17.5512 L34.9282247,22.3051048 L35.2599205,22.7047238 C37.1941151,25.1161524 39.9265123,26.3496762 43.017263,26.3496762 L45.3124767,26.3496762 L45.3124767,20.8113905 L43.4662521,20.8113905 C42.0633041,20.8113905 40.9048438,20.0338667 40.0270493,18.9393905" id="Fill-142" fill="#ECA820"></path>
                    <path d="M43.0173011,6.64438095 C39.9265504,6.64438095 37.1941532,7.87790476 35.2599586,10.2889524 L28.0784189,18.9392381 C27.2006244,20.0337143 26.0421641,20.8112381 24.639597,20.8112381 L22.7929915,20.8112381 L22.7929915,26.3495238 L25.0882052,26.3495238 C28.1793367,26.3495238 30.9113532,25.116381 32.8459285,22.7049524 L40.0270874,14.0546667 C40.9048819,12.9601905 42.0633422,12.1826667 43.4662901,12.1826667 L45.3125148,12.1826667 L45.3125148,6.64438095 L43.0173011,6.64438095 Z" id="Fill-144" fill="#ECA820"></path>
                </g>
                <polygon id="Fill-147" fill="#EBA821" points="136.195627 39.5314286 138.926882 39.5314286 138.926882 0.246857143 136.195627 0.246857143"></polygon>
            </g>
        </g>
    </g>
</svg>