<svg height="512" viewBox="0 0 512 512" width="512" xmlns="http://www.w3.org/2000/svg"><g id="Flat"><path d="m455.529 152v304h-400v-304a32 32 0 0 1 32-32h336a32 32 0 0 1 32 32z" fill="#348fd9"/><path d="m55.529 408h400v48h-400z" fill="#3086cd"/><path d="m455.529 152v304h-400v-25.78l315.48-310.22h52.52a32 32 0 0 1 32 32z" fill="#3086cd"/><path d="m487.529 56v144a32 32 0 0 1 -32 32h-56l-56 48v-48h-40a31.981 31.981 0 0 1 -32-32v-144a32 32 0 0 1 32-32h152a31.994 31.994 0 0 1 32 32z" fill="#60d1e0"/><path d="m487.529 56v144a32 32 0 0 1 -32 32h-56l-56 48v-48h-40a31.98 31.98 0 0 1 -26.07-13.43l193.71-190.49a31.993 31.993 0 0 1 16.36 27.92z" fill="#5bccd9"/><g fill="#3b9dc7"><path d="m303.529 64h56v16h-56z"/><path d="m375.529 64h80v16h-80z"/><path d="m303.529 104h152v16h-152z"/><path d="m303.529 184h152v16h-152z"/><path d="m399.529 144h56v16h-56z"/><path d="m303.529 144h80v16h-80z"/></g><path d="m239.529 248v32a56 56 0 1 1 -112 0v-32a56.014 56.014 0 0 1 53.04-55.93c.98-.04 1.97-.07 2.96-.07a55.993 55.993 0 0 1 56 56z" fill="#fec9a3"/><path d="m239.529 248v32a56.033 56.033 0 0 1 -72.19 53.62 70.962 70.962 0 0 0 33.51-60.3v-31.57a70.778 70.778 0 0 0 -20.28-49.68c.98-.04 1.97-.07 2.96-.07a55.993 55.993 0 0 1 56 56z" fill="#fec093"/><path d="m119.529 272h8v-32h-8a16 16 0 0 0 -16 16 16 16 0 0 0 16 16z" fill="#f7ad7c"/><path d="m247.529 272h-8v-32h8a16 16 0 0 1 16 16 16 16 0 0 1 -16 16z" fill="#f7ad7c"/><path d="m163.529 272a12 12 0 1 1 12-12 12.013 12.013 0 0 1 -12 12z" fill="#7a432a"/><path d="m203.529 272a12 12 0 1 1 12-12 12.013 12.013 0 0 1 -12 12z" fill="#7a432a"/><path d="m183.529 307.752a43.8 43.8 0 0 1 -19.578-4.6l7.156-14.31a27.917 27.917 0 0 0 24.844 0l7.156 14.31a43.8 43.8 0 0 1 -19.578 4.6z" fill="#f7ad7c"/><path d="m271.529 440h-176v-64a40 40 0 0 1 40-40h96a40 40 0 0 1 40 40z" fill="#4d5e78"/><path d="m215.529 336-32 56-32-56z" fill="#e0e0de"/><path d="m191.529 336v42l-8 14-8-14v-42z" fill="#7a432a"/><path d="m239.529 240-16-24h-32a53.9 53.9 0 0 1 -44.845 24h-19.155v-24a32 32 0 0 1 32-32h48a32 32 0 0 1 32 32z" fill="#7a432a"/><path d="m351.529 376-24 64h-56l24-64z" fill="#4d5e78"/><path d="m383.529 344a32 32 0 0 1 -32 32h-56l7.954-19.885a32 32 0 0 1 29.711-20.115h50.335z" fill="#fec9a3"/><path d="m95.529 408h176v32h-176z" fill="#485870"/><path d="m339.529 408-12 32h-56l12-32z" fill="#485870"/><path d="m303.529 432a27.315 27.315 0 0 1 -19.314 8h-57.372a27.315 27.315 0 0 1 -19.314-8 27.315 27.315 0 0 0 -19.314-8h-164.686v32a32 32 0 0 0 32 32h400a32 32 0 0 0 32-32v-32h-164.686a27.315 27.315 0 0 0 -19.314 8z" fill="#e0e0de"/><path d="m487.529 424v32a32 32 0 0 1 -32 32h-80a32 32 0 0 0 32-32v-32z" fill="#d6d6d4"/><path d="m87.529 144h16v16h-16z" fill="#2a71ad"/><path d="m119.529 144h16v16h-16z" fill="#2a71ad"/><path d="m151.529 144h16v16h-16z" fill="#2a71ad"/></g></svg>